<?xml version="1.0" encoding="UTF-8"?>
<svg xmlns="http://www.w3.org/2000/svg" xmlns:xlink="http://www.w3.org/1999/xlink" width="500px" height="500px" viewBox="0 0 500 500" version="1.1">
<g id="surface1">
<path style=" stroke:none;fill-rule:nonzero;fill:rgb(90.196078%,90.196078%,90.196078%);fill-opacity:1;" d="M 494.773438 328.28125 L 146.628906 328.28125 C 143.65625 328.273438 141.246094 324.363281 141.242188 319.539062 L 141.242188 8.738281 C 141.246094 3.914062 143.65625 0.00390625 146.628906 0 L 494.773438 0 C 497.75 0.00390625 500.15625 3.914062 500.160156 8.738281 L 500.160156 319.539062 C 500.15625 324.363281 497.75 328.273438 494.773438 328.28125 Z M 494.773438 328.28125 "/>
<path style=" stroke:none;fill-rule:nonzero;fill:rgb(100%,100%,100%);fill-opacity:1;" d="M 487.429688 316.363281 L 153.972656 316.363281 C 151 316.355469 148.589844 312.449219 148.585938 307.621094 L 148.585938 20.65625 C 148.589844 15.832031 151 11.921875 153.972656 11.917969 L 487.429688 11.917969 C 490.402344 11.921875 492.8125 15.832031 492.816406 20.65625 L 492.816406 307.621094 C 492.8125 312.449219 490.402344 316.355469 487.429688 316.363281 Z M 487.429688 316.363281 "/>
<path style=" stroke:none;fill-rule:nonzero;fill:rgb(24.705882%,23.921569%,33.72549%);fill-opacity:1;" d="M 247.28125 188.980469 L 184.546875 188.980469 C 183.105469 188.976562 181.9375 187.082031 181.933594 184.738281 L 181.933594 78.726562 C 181.9375 76.386719 183.105469 74.488281 184.546875 74.484375 L 247.28125 74.484375 C 248.726562 74.488281 249.894531 76.386719 249.898438 78.726562 L 249.898438 184.738281 C 249.894531 187.082031 248.726562 188.976562 247.28125 188.980469 Z M 184.546875 76.183594 C 183.683594 76.183594 182.980469 77.324219 182.980469 78.726562 L 182.980469 184.738281 C 182.980469 186.144531 183.683594 187.28125 184.546875 187.285156 L 247.28125 187.285156 C 248.148438 187.28125 248.851562 186.144531 248.851562 184.738281 L 248.851562 78.726562 C 248.851562 77.324219 248.148438 76.183594 247.28125 76.183594 Z M 184.546875 76.183594 "/>
<path style=" stroke:none;fill-rule:nonzero;fill:rgb(24.705882%,23.921569%,33.72549%);fill-opacity:1;" d="M 352.070312 188.980469 L 289.335938 188.980469 C 287.890625 188.976562 286.722656 187.082031 286.722656 184.738281 L 286.722656 78.726562 C 286.722656 76.386719 287.890625 74.488281 289.335938 74.484375 L 352.070312 74.484375 C 353.511719 74.488281 354.679688 76.386719 354.683594 78.726562 L 354.683594 184.738281 C 354.679688 187.082031 353.511719 188.976562 352.070312 188.980469 Z M 289.335938 76.183594 C 288.46875 76.183594 287.765625 77.324219 287.765625 78.726562 L 287.765625 184.738281 C 287.765625 186.144531 288.46875 187.28125 289.335938 187.285156 L 352.070312 187.285156 C 352.933594 187.28125 353.636719 186.144531 353.636719 184.738281 L 353.636719 78.726562 C 353.636719 77.324219 352.933594 76.183594 352.070312 76.183594 Z M 289.335938 76.183594 "/>
<path style=" stroke:none;fill-rule:nonzero;fill:rgb(24.705882%,23.921569%,33.72549%);fill-opacity:1;" d="M 456.855469 188.980469 L 394.121094 188.980469 C 392.679688 188.976562 391.507812 187.082031 391.507812 184.738281 L 391.507812 78.726562 C 391.507812 76.386719 392.679688 74.488281 394.121094 74.484375 L 456.855469 74.484375 C 458.300781 74.488281 459.46875 76.386719 459.46875 78.726562 L 459.46875 184.738281 C 459.46875 187.082031 458.300781 188.976562 456.855469 188.980469 Z M 394.121094 76.183594 C 393.253906 76.183594 392.554688 77.324219 392.554688 78.726562 L 392.554688 184.738281 C 392.554688 186.144531 393.253906 187.28125 394.121094 187.285156 L 456.855469 187.285156 C 457.722656 187.28125 458.421875 186.144531 458.425781 184.738281 L 458.425781 78.726562 C 458.421875 77.324219 457.722656 76.183594 456.855469 76.183594 Z M 394.121094 76.183594 "/>
<path style=" stroke:none;fill-rule:nonzero;fill:rgb(90.196078%,90.196078%,90.196078%);fill-opacity:1;" d="M 203.800781 253.792969 C 204.78125 253.792969 205.578125 252.503906 205.578125 250.914062 C 205.578125 249.324219 204.78125 248.035156 203.804688 248.035156 L 187.878906 248.035156 C 186.898438 248.035156 186.101562 249.324219 186.101562 250.914062 C 186.101562 252.503906 186.898438 253.792969 187.878906 253.792969 Z M 203.800781 253.792969 "/>
<path style=" stroke:none;fill-rule:nonzero;fill:rgb(90.196078%,90.196078%,90.196078%);fill-opacity:1;" d="M 243.953125 236.828125 C 244.933594 236.832031 245.730469 235.542969 245.730469 233.953125 C 245.734375 232.363281 244.941406 231.074219 243.960938 231.070312 L 187.878906 231.070312 C 186.898438 231.074219 186.105469 232.359375 186.105469 233.949219 C 186.105469 235.539062 186.898438 236.824219 187.878906 236.828125 Z M 243.953125 236.828125 "/>
<path style=" stroke:none;fill-rule:nonzero;fill:rgb(90.196078%,90.196078%,90.196078%);fill-opacity:1;" d="M 308.589844 253.792969 C 309.566406 253.792969 310.363281 252.503906 310.363281 250.914062 C 310.363281 249.324219 309.566406 248.035156 308.589844 248.035156 L 292.664062 248.035156 C 291.683594 248.035156 290.890625 249.324219 290.890625 250.914062 C 290.890625 252.503906 291.683594 253.792969 292.664062 253.792969 Z M 308.589844 253.792969 "/>
<path style=" stroke:none;fill-rule:nonzero;fill:rgb(90.196078%,90.196078%,90.196078%);fill-opacity:1;" d="M 348.738281 236.828125 C 349.71875 236.824219 350.511719 235.539062 350.511719 233.949219 C 350.511719 232.359375 349.71875 231.074219 348.738281 231.070312 L 292.664062 231.070312 C 291.683594 231.074219 290.894531 232.359375 290.894531 233.949219 C 290.894531 235.539062 291.683594 236.824219 292.664062 236.828125 Z M 348.738281 236.828125 "/>
<path style=" stroke:none;fill-rule:nonzero;fill:rgb(90.196078%,90.196078%,90.196078%);fill-opacity:1;" d="M 413.375 253.792969 C 414.355469 253.792969 415.148438 252.503906 415.148438 250.914062 C 415.148438 249.324219 414.355469 248.035156 413.375 248.035156 L 397.449219 248.035156 C 396.472656 248.035156 395.675781 249.324219 395.675781 250.914062 C 395.675781 252.503906 396.46875 253.792969 397.449219 253.792969 Z M 413.375 253.792969 "/>
<path style=" stroke:none;fill-rule:nonzero;fill:rgb(90.196078%,90.196078%,90.196078%);fill-opacity:1;" d="M 453.527344 236.828125 C 454.503906 236.824219 455.296875 235.539062 455.296875 233.949219 C 455.296875 232.359375 454.503906 231.074219 453.527344 231.070312 L 397.449219 231.070312 C 396.472656 231.066406 395.675781 232.355469 395.671875 233.945312 C 395.671875 235.535156 396.464844 236.824219 397.445312 236.828125 Z M 453.527344 236.828125 "/>
<path style=" stroke:none;fill-rule:nonzero;fill:rgb(42.352941%,38.823529%,100%);fill-opacity:1;" d="M 243.953125 220.144531 C 244.933594 220.144531 245.726562 218.855469 245.730469 217.265625 C 245.730469 215.675781 244.933594 214.386719 243.953125 214.386719 L 187.878906 214.386719 C 186.898438 214.386719 186.101562 215.675781 186.101562 217.265625 C 186.101562 218.855469 186.898438 220.144531 187.878906 220.144531 Z M 243.953125 220.144531 "/>
<path style=" stroke:none;fill-rule:nonzero;fill:rgb(42.352941%,38.823529%,100%);fill-opacity:1;" d="M 348.738281 220.144531 C 349.71875 220.144531 350.515625 218.855469 350.515625 217.265625 C 350.515625 215.675781 349.71875 214.386719 348.738281 214.386719 L 292.664062 214.386719 C 291.683594 214.386719 290.890625 215.675781 290.890625 217.265625 C 290.890625 218.855469 291.683594 220.144531 292.664062 220.144531 Z M 348.738281 220.144531 "/>
<path style=" stroke:none;fill-rule:nonzero;fill:rgb(42.352941%,38.823529%,100%);fill-opacity:1;" d="M 453.527344 220.144531 C 454.507812 220.144531 455.300781 218.855469 455.300781 217.265625 C 455.300781 215.675781 454.507812 214.386719 453.527344 214.386719 L 397.449219 214.386719 C 396.472656 214.382812 395.675781 215.671875 395.675781 217.261719 C 395.675781 218.855469 396.46875 220.144531 397.449219 220.144531 Z M 453.527344 220.144531 "/>
<path style=" stroke:none;fill-rule:nonzero;fill:rgb(90.196078%,90.196078%,90.196078%);fill-opacity:1;" d="M 233.914062 168.433594 C 234.894531 168.433594 235.6875 167.144531 235.6875 165.554688 C 235.6875 163.96875 234.894531 162.679688 233.914062 162.675781 L 197.914062 162.675781 C 196.9375 162.671875 196.140625 163.960938 196.136719 165.550781 C 196.136719 167.140625 196.929688 168.433594 197.910156 168.433594 Z M 233.914062 168.433594 "/>
<path style=" stroke:none;fill-rule:nonzero;fill:rgb(90.196078%,90.196078%,90.196078%);fill-opacity:1;" d="M 233.914062 151.46875 C 234.894531 151.46875 235.6875 150.179688 235.6875 148.589844 C 235.6875 147.003906 234.894531 145.714844 233.914062 145.710938 L 197.914062 145.710938 C 196.9375 145.707031 196.140625 146.996094 196.136719 148.585938 C 196.136719 150.175781 196.929688 151.46875 197.910156 151.46875 Z M 233.914062 151.46875 "/>
<path style=" stroke:none;fill-rule:nonzero;fill:rgb(42.352941%,38.823529%,100%);fill-opacity:1;" d="M 227.175781 113.304688 C 227.175781 123.398438 222.136719 131.578125 215.914062 131.578125 C 209.695312 131.578125 204.652344 123.398438 204.652344 113.304688 C 204.652344 103.214844 209.695312 95.03125 215.914062 95.03125 C 222.136719 95.03125 227.175781 103.214844 227.175781 113.304688 Z M 227.175781 113.304688 "/>
<path style=" stroke:none;fill-rule:nonzero;fill:rgb(90.196078%,90.196078%,90.196078%);fill-opacity:1;" d="M 338.703125 168.433594 C 339.679688 168.433594 340.472656 167.144531 340.472656 165.554688 C 340.472656 163.96875 339.679688 162.679688 338.703125 162.675781 L 302.703125 162.675781 C 301.722656 162.679688 300.929688 163.96875 300.929688 165.554688 C 300.929688 167.144531 301.722656 168.433594 302.703125 168.433594 Z M 338.703125 168.433594 "/>
<path style=" stroke:none;fill-rule:nonzero;fill:rgb(90.196078%,90.196078%,90.196078%);fill-opacity:1;" d="M 338.703125 151.46875 C 339.679688 151.46875 340.472656 150.179688 340.472656 148.589844 C 340.472656 147.003906 339.679688 145.714844 338.703125 145.710938 L 302.703125 145.710938 C 301.722656 145.714844 300.929688 147.003906 300.929688 148.589844 C 300.929688 150.179688 301.722656 151.46875 302.703125 151.46875 Z M 338.703125 151.46875 "/>
<path style=" stroke:none;fill-rule:nonzero;fill:rgb(42.352941%,38.823529%,100%);fill-opacity:1;" d="M 331.964844 113.304688 C 331.964844 123.398438 326.921875 131.578125 320.703125 131.578125 C 314.480469 131.578125 309.441406 123.398438 309.441406 113.304688 C 309.441406 103.214844 314.480469 95.03125 320.703125 95.03125 C 326.921875 95.03125 331.964844 103.214844 331.964844 113.304688 Z M 331.964844 113.304688 "/>
<path style=" stroke:none;fill-rule:nonzero;fill:rgb(90.196078%,90.196078%,90.196078%);fill-opacity:1;" d="M 443.488281 168.433594 C 444.46875 168.4375 445.265625 167.152344 445.265625 165.5625 C 445.269531 163.972656 444.476562 162.679688 443.496094 162.675781 L 407.488281 162.675781 C 406.511719 162.679688 405.71875 163.96875 405.71875 165.554688 C 405.71875 167.144531 406.511719 168.433594 407.488281 168.433594 Z M 443.488281 168.433594 "/>
<path style=" stroke:none;fill-rule:nonzero;fill:rgb(90.196078%,90.196078%,90.196078%);fill-opacity:1;" d="M 443.488281 151.46875 C 444.46875 151.472656 445.265625 150.1875 445.265625 148.597656 C 445.269531 147.003906 444.476562 145.714844 443.496094 145.710938 L 407.488281 145.710938 C 406.511719 145.714844 405.71875 147.003906 405.71875 148.589844 C 405.71875 150.179688 406.511719 151.46875 407.488281 151.46875 Z M 443.488281 151.46875 "/>
<path style=" stroke:none;fill-rule:nonzero;fill:rgb(42.352941%,38.823529%,100%);fill-opacity:1;" d="M 436.75 113.304688 C 436.75 123.398438 431.707031 131.578125 425.488281 131.578125 C 419.269531 131.578125 414.226562 123.398438 414.226562 113.304688 C 414.226562 103.214844 419.269531 95.03125 425.488281 95.03125 C 431.707031 95.03125 436.75 103.214844 436.75 113.304688 Z M 436.75 113.304688 "/>
<path style=" stroke:none;fill-rule:nonzero;fill:rgb(100%,71.372549%,71.372549%);fill-opacity:1;" d="M 37.71875 488.800781 L 44.378906 488.800781 L 47.550781 447.101562 L 37.714844 447.101562 Z M 37.71875 488.800781 "/>
<path style=" stroke:none;fill-rule:nonzero;fill:rgb(18.431373%,18.039216%,25.490196%);fill-opacity:1;" d="M 36.019531 485.269531 L 49.140625 485.269531 C 53.757812 485.269531 57.5 491.34375 57.503906 498.835938 L 57.503906 499.277344 L 36.019531 499.28125 Z M 36.019531 485.269531 "/>
<path style=" stroke:none;fill-rule:nonzero;fill:rgb(100%,71.372549%,71.372549%);fill-opacity:1;" d="M 60.542969 488.800781 L 67.207031 488.800781 L 70.375 447.101562 L 60.542969 447.101562 Z M 60.542969 488.800781 "/>
<path style=" stroke:none;fill-rule:nonzero;fill:rgb(18.431373%,18.039216%,25.490196%);fill-opacity:1;" d="M 58.84375 485.269531 L 71.964844 485.269531 C 76.585938 485.269531 80.328125 491.34375 80.328125 498.835938 L 80.328125 499.277344 L 58.84375 499.28125 Z M 58.84375 485.269531 "/>
<path style=" stroke:none;fill-rule:nonzero;fill:rgb(18.431373%,18.039216%,25.490196%);fill-opacity:1;" d="M 85.863281 307.140625 L 69.585938 470.265625 L 58.714844 469.382812 L 58.984375 319.601562 Z M 85.863281 307.140625 "/>
<path style=" stroke:none;fill-rule:nonzero;fill:rgb(18.431373%,18.039216%,25.490196%);fill-opacity:1;" d="M 41.980469 257.300781 L 81.472656 258.191406 L 85.863281 307.140625 L 58.984375 327.609375 L 47.304688 465.855469 L 36.976562 464.976562 L 33.207031 293.789062 Z M 41.980469 257.300781 "/>
<path style=" stroke:none;fill-rule:nonzero;fill:rgb(100%,72.54902%,72.54902%);fill-opacity:1;" d="M 77.636719 111.34375 C 77.636719 122.15625 72.230469 130.921875 65.566406 130.921875 C 58.902344 130.921875 53.5 122.15625 53.5 111.34375 C 53.5 100.53125 58.902344 91.765625 65.566406 91.765625 C 72.230469 91.765625 77.636719 100.53125 77.636719 111.34375 Z M 77.636719 111.34375 "/>
<path style=" stroke:none;fill-rule:nonzero;fill:rgb(89.411765%,89.411765%,89.411765%);fill-opacity:1;" d="M 71.214844 142.222656 L 78.183594 156.734375 L 74.890625 267.980469 L 49.113281 267.089844 L 44.726562 170.082031 L 50.210938 145.164062 L 52.195312 139.578125 Z M 71.214844 142.222656 "/>
<path style=" stroke:none;fill-rule:nonzero;fill:rgb(18.431373%,18.039216%,25.490196%);fill-opacity:1;" d="M 83.121094 198.5625 L 89.152344 235.941406 L 83.121094 273.320312 L 92.992188 294.679688 L 101.769531 227.042969 C 101.769531 227.042969 95.1875 171.863281 94.636719 165.632812 C 94.089844 159.402344 92.992188 158.511719 92.992188 158.511719 L 88.605469 159.402344 Z M 83.121094 198.5625 "/>
<path style=" stroke:none;fill-rule:nonzero;fill:rgb(18.431373%,18.039216%,25.490196%);fill-opacity:1;" d="M 39.238281 212.800781 L 35.402344 224.371094 L 34.304688 243.953125 L 36.496094 266.199219 L 28.820312 286.671875 L 21.140625 230.601562 L 29.367188 158.511719 L 32.65625 158.511719 Z M 39.238281 212.800781 "/>
<path style=" stroke:none;fill-rule:nonzero;fill:rgb(18.431373%,18.039216%,25.490196%);fill-opacity:1;" d="M 55.132812 116.414062 L 54.847656 124.328125 C 54.847656 124.328125 51.308594 111.34375 50.757812 97.992188 C 50.210938 84.644531 59.535156 81.972656 65.019531 81.082031 C 70.503906 80.195312 79.828125 86.421875 79.828125 93.542969 C 79.828125 100.664062 69.957031 98.882812 66.117188 97.105469 C 62.277344 95.324219 60.632812 110.453125 60.632812 110.453125 L 58.4375 111.34375 Z M 55.132812 116.414062 "/>
<path style=" stroke:none;fill-rule:nonzero;fill:rgb(18.431373%,18.039216%,25.490196%);fill-opacity:1;" d="M 84.765625 211.023438 L 82.570312 244.839844 L 86.960938 265.3125 L 89.703125 284.890625 C 89.703125 284.890625 89.703125 303.582031 78.730469 304.46875 C 67.761719 305.359375 35.949219 303.582031 35.949219 303.582031 C 35.949219 303.582031 31.5625 302.691406 27.722656 288.449219 C 23.882812 274.210938 35.398438 260.859375 35.398438 260.859375 L 38.691406 242.171875 L 37.59375 219.03125 L 29.914062 158.511719 L 52.679688 139.378906 L 58.4375 230.601562 L 70.777344 142.046875 L 74.890625 146.941406 L 92.445312 158.511719 Z M 84.765625 211.023438 "/>
<path style=" stroke:none;fill-rule:nonzero;fill:rgb(24.705882%,23.921569%,33.72549%);fill-opacity:1;" d="M 140.074219 500.121094 L 0 500.121094 L 0 498.261719 L 140.28125 498.261719 Z M 140.074219 500.121094 "/>
</g>
</svg>
