<?xml version="1.0" encoding="UTF-8"?>
<svg xmlns="http://www.w3.org/2000/svg" xmlns:xlink="http://www.w3.org/1999/xlink" width="500px" height="500px" viewBox="0 0 500 500" version="1.1">
<defs>
<filter id="alpha" filterUnits="objectBoundingBox" x="0%" y="0%" width="100%" height="100%">
  <feColorMatrix type="matrix" in="SourceGraphic" values="0 0 0 0 1 0 0 0 0 1 0 0 0 0 1 0 0 0 1 0"/>
</filter>
<mask id="mask0">
  <g filter="url(#alpha)">
<rect x="0" y="0" width="500" height="500" style="fill:rgb(0%,0%,0%);fill-opacity:0.2;stroke:none;"/>
  </g>
</mask>
<clipPath id="clip1">
  <rect x="0" y="0" width="500" height="500"/>
</clipPath>
<g id="surface5" clip-path="url(#clip1)">
<path style=" stroke:none;fill-rule:nonzero;fill:rgb(0%,0%,0%);fill-opacity:1;" d="M 178.476562 411.15625 L 185.828125 382.789062 L 192.316406 407.265625 Z M 178.476562 411.15625 "/>
</g>
<mask id="mask1">
  <g filter="url(#alpha)">
<rect x="0" y="0" width="500" height="500" style="fill:rgb(0%,0%,0%);fill-opacity:0.2;stroke:none;"/>
  </g>
</mask>
<clipPath id="clip2">
  <rect x="0" y="0" width="500" height="500"/>
</clipPath>
<g id="surface8" clip-path="url(#clip2)">
<path style=" stroke:none;fill-rule:nonzero;fill:rgb(0%,0%,0%);fill-opacity:1;" d="M 374.066406 398.878906 C 374.203125 396.632812 374.351562 394.316406 374.527344 391.90625 C 365.753906 370.003906 130.382812 408.78125 126.414062 434.179688 C 126.425781 436.507812 126.523438 438.769531 126.691406 440.976562 C 136.304688 415.90625 359.914062 379.050781 374.066406 398.878906 Z M 374.066406 398.878906 "/>
</g>
</defs>
<g id="surface1">
<path style=" stroke:none;fill-rule:nonzero;fill:rgb(94.901961%,94.901961%,94.901961%);fill-opacity:1;" d="M 500 250 C 500.085938 309.011719 479.210938 366.140625 441.097656 411.195312 C 439.714844 412.835938 438.304688 414.453125 436.867188 416.0625 C 419.96875 435.070312 400.285156 451.398438 378.484375 464.5 C 373.484375 467.5 368.375 470.328125 363.15625 472.984375 C 362.628906 473.253906 362.09375 473.519531 361.566406 473.78125 C 360.933594 474.101562 360.292969 474.410156 359.652344 474.722656 C 346.445312 481.1875 332.691406 486.460938 318.546875 490.484375 C 317.074219 490.898438 315.601562 491.304688 314.125 491.695312 C 295.519531 496.617188 276.410156 499.371094 257.171875 499.90625 C 256.167969 499.929688 255.183594 499.949219 254.230469 499.964844 C 253.894531 499.972656 253.5625 499.984375 253.234375 499.984375 C 252.152344 499.992188 251.082031 500 250 500 C 229.726562 500.015625 209.527344 497.566406 189.84375 492.707031 C 187.871094 492.222656 185.910156 491.710938 183.953125 491.175781 C 173.65625 488.363281 163.550781 484.890625 153.703125 480.769531 C 148.511719 478.605469 143.414062 476.273438 138.410156 473.773438 C 137.273438 473.199219 136.140625 472.628906 135.027344 472.042969 C 134.550781 471.808594 134.082031 471.558594 133.617188 471.316406 C 106.9375 457.234375 83.011719 438.460938 62.984375 415.898438 C 61.601562 414.351562 60.242188 412.777344 58.902344 411.195312 C 14.300781 358.3125 -6.398438 289.316406 1.730469 220.621094 C 9.859375 151.921875 46.089844 89.660156 101.800781 48.652344 C 103.21875 47.605469 104.644531 46.566406 106.089844 45.554688 C 106.375 45.355469 106.660156 45.15625 106.945312 44.957031 C 132.328125 27.175781 160.820312 14.308594 190.941406 7.023438 C 192.65625 6.601562 194.367188 6.203125 196.097656 5.832031 C 228.726562 -1.304688 262.445312 -1.898438 295.304688 4.089844 C 297.023438 4.410156 298.746094 4.742188 300.457031 5.09375 C 330.3125 11.21875 358.785156 22.78125 384.453125 39.203125 C 385.027344 39.566406 385.597656 39.929688 386.167969 40.3125 C 387.316406 41.054688 388.46875 41.816406 389.601562 42.585938 C 458.660156 89.011719 500.054688 166.789062 500 250 Z M 500 250 "/>
<path style=" stroke:none;fill-rule:nonzero;fill:rgb(80%,80%,80%);fill-opacity:1;" d="M 186.851562 379.332031 L 106.945312 386.425781 L 106.089844 386.503906 L 106.089844 45.554688 C 106.375 45.355469 106.660156 45.15625 106.945312 44.957031 C 123.597656 33.308594 141.613281 23.738281 160.589844 16.460938 L 164.671875 72.777344 L 165.042969 77.933594 L 169.082031 133.78125 L 170.328125 150.960938 L 186.703125 377.34375 Z M 186.851562 379.332031 "/>
<path style=" stroke:none;fill-rule:nonzero;fill:rgb(80%,80%,80%);fill-opacity:1;" d="M 384.453125 39.203125 C 385.027344 39.566406 385.597656 39.929688 386.167969 40.3125 L 386.167969 386.503906 L 384.453125 386.347656 L 305.414062 379.332031 L 305.5625 377.34375 L 321.9375 150.960938 L 323.183594 133.78125 L 327.222656 77.933594 L 327.59375 72.777344 L 331.878906 13.71875 C 350.34375 20.121094 367.992188 28.675781 384.453125 39.203125 Z M 384.453125 39.203125 "/>
<path style=" stroke:none;fill-rule:nonzero;fill:rgb(80%,80%,80%);fill-opacity:1;" d="M 384.453125 39.203125 L 384.453125 391.226562 C 384.453125 397.984375 379.800781 403.476562 374.074219 403.476562 L 117.328125 403.476562 C 112.585938 403.476562 108.5625 399.707031 107.34375 394.558594 C 107.078125 393.46875 106.945312 392.351562 106.945312 391.226562 L 106.945312 44.957031 C 106.660156 45.15625 106.375 45.355469 106.089844 45.554688 C 104.644531 46.566406 103.21875 47.605469 101.800781 48.652344 L 101.800781 391.226562 C 101.722656 396.359375 103.640625 401.320312 107.144531 405.070312 C 108.984375 406.996094 111.308594 408.386719 113.875 409.101562 C 115 409.40625 116.160156 409.558594 117.328125 409.558594 L 374.074219 409.558594 C 375.242188 409.558594 376.40625 409.40625 377.535156 409.101562 C 384.4375 407.242188 389.601562 399.9375 389.601562 391.226562 L 389.601562 42.585938 C 388.46875 41.816406 387.316406 41.054688 386.167969 40.3125 C 385.597656 39.929688 385.027344 39.566406 384.453125 39.203125 Z M 384.453125 39.203125 "/>
<path style=" stroke:none;fill-rule:nonzero;fill:rgb(80%,80%,80%);fill-opacity:1;" d="M 104.371094 72.78125 L 387.03125 72.78125 L 387.03125 77.933594 L 104.371094 77.933594 Z M 104.371094 72.78125 "/>
<path style=" stroke:none;fill-rule:nonzero;fill:rgb(80%,80%,80%);fill-opacity:1;" d="M 190.941406 7.023438 C 192.65625 6.601562 194.367188 6.203125 196.097656 5.832031 L 196.097656 145.804688 L 190.941406 145.804688 Z M 190.941406 7.023438 "/>
<path style=" stroke:none;fill-rule:nonzero;fill:rgb(80%,80%,80%);fill-opacity:1;" d="M 295.304688 4.089844 C 297.023438 4.410156 298.746094 4.742188 300.457031 5.09375 L 300.457031 145.804688 L 295.304688 145.804688 Z M 295.304688 4.089844 "/>
<path style=" stroke:none;fill-rule:nonzero;fill:rgb(80%,80%,80%);fill-opacity:1;" d="M 419.246094 377.34375 L 80.742188 377.34375 C 67.929688 377.34375 57.542969 387.730469 57.542969 400.546875 C 57.542969 413.359375 67.929688 423.746094 80.742188 423.746094 L 419.246094 423.746094 C 425.914062 423.746094 432.253906 420.875 436.652344 415.863281 C 437.636719 414.746094 438.511719 413.535156 439.265625 412.25 C 439.847656 411.261719 440.355469 410.234375 440.777344 409.167969 C 443.648438 402.023438 442.78125 393.917969 438.464844 387.539062 C 434.148438 381.160156 426.949219 377.339844 419.246094 377.34375 Z M 419.246094 377.34375 "/>
<path style=" stroke:none;fill-rule:nonzero;fill:rgb(80%,80%,80%);fill-opacity:1;" d="M 106.089844 133.78125 L 387.03125 133.78125 L 387.03125 150.960938 L 106.089844 150.960938 Z M 106.089844 133.78125 "/>
<path style=" stroke:none;fill-rule:nonzero;fill:rgb(80%,80%,80%);fill-opacity:1;" d="M 243.984375 128.625 L 249.136719 128.625 C 254.359375 128.625 258.589844 132.855469 258.589844 138.074219 L 234.53125 138.074219 C 234.53125 132.855469 238.765625 128.625 243.984375 128.625 Z M 243.984375 128.625 "/>
<path style=" stroke:none;fill-rule:nonzero;fill:rgb(24.705882%,23.921569%,33.72549%);fill-opacity:1;" d="M 441.097656 411.195312 C 433.582031 420.097656 425.457031 428.464844 416.773438 436.238281 L 83.226562 436.238281 C 74.542969 428.464844 66.417969 420.097656 58.902344 411.195312 Z M 441.097656 411.195312 "/>
<path style=" stroke:none;fill-rule:nonzero;fill:rgb(18.431373%,18.039216%,25.490196%);fill-opacity:1;" d="M 277.925781 324.453125 L 221.765625 324.453125 C 221.460938 324.453125 221.160156 324.5 220.875 324.59375 C 219.621094 324.980469 218.769531 326.136719 218.773438 327.449219 L 218.773438 416.167969 L 280.925781 416.167969 L 280.925781 327.449219 C 280.925781 325.792969 279.578125 324.453125 277.925781 324.453125 Z M 256.667969 368.226562 C 256.671875 369.664062 256.195312 371.066406 255.320312 372.207031 C 253.605469 374.476562 250.628906 375.398438 247.929688 374.496094 C 245.230469 373.597656 243.40625 371.074219 243.398438 368.226562 L 243.398438 357.933594 C 243.433594 354.292969 246.394531 351.359375 250.035156 351.359375 C 253.675781 351.359375 256.636719 354.292969 256.667969 357.933594 Z M 256.667969 368.226562 "/>
<path style=" stroke:none;fill-rule:nonzero;fill:rgb(24.705882%,23.921569%,33.72549%);fill-opacity:1;" d="M 218.582031 413.332031 L 218.582031 421.886719 C 218.582031 422.808594 219.328125 423.558594 220.25 423.5625 L 279.445312 423.5625 C 280.367188 423.554688 281.113281 422.808594 281.117188 421.886719 L 281.117188 413.332031 Z M 218.582031 413.332031 "/>
<path style=" stroke:none;fill-rule:nonzero;fill:rgb(24.705882%,23.921569%,33.72549%);fill-opacity:1;" d="M 370.917969 186.003906 L 130.863281 186.003906 C 126.570312 186.007812 123.089844 189.484375 123.078125 193.78125 L 123.078125 355.769531 C 123.082031 360.066406 126.566406 363.550781 130.863281 363.554688 L 370.917969 363.554688 C 375.214844 363.550781 378.699219 360.066406 378.703125 355.769531 L 378.703125 193.78125 C 378.691406 189.484375 375.210938 186.007812 370.917969 186.003906 Z M 370.917969 186.003906 "/>
<path style=" stroke:none;fill-rule:nonzero;fill:rgb(42.352941%,38.823529%,100%);fill-opacity:1;" d="M 368.910156 191.625 L 132.863281 191.625 C 130.5625 191.632812 128.703125 193.496094 128.703125 195.796875 L 128.703125 353.773438 C 128.707031 356.066406 130.566406 357.929688 132.863281 357.933594 L 368.910156 357.933594 C 371.207031 357.929688 373.066406 356.066406 373.070312 353.773438 L 373.070312 195.796875 C 373.070312 193.496094 371.210938 191.632812 368.910156 191.625 Z M 368.910156 191.625 "/>
<path style=" stroke:none;fill-rule:nonzero;fill:rgb(18.431373%,18.039216%,25.490196%);fill-opacity:1;" d="M 325.46875 423.425781 L 323.289062 413.070312 C 323.105469 412.214844 322.496094 411.507812 321.679688 411.195312 C 321.386719 411.078125 321.074219 411.019531 320.761719 411.019531 L 184.679688 411.019531 C 184.367188 411.019531 184.054688 411.078125 183.761719 411.195312 C 182.941406 411.507812 182.335938 412.214844 182.152344 413.070312 L 179.972656 423.425781 C 179.816406 424.1875 180.007812 424.980469 180.496094 425.582031 C 180.984375 426.1875 181.722656 426.539062 182.5 426.539062 L 322.933594 426.539062 C 323.714844 426.542969 324.453125 426.191406 324.9375 425.578125 C 325.429688 424.976562 325.625 424.1875 325.46875 423.425781 Z M 325.46875 423.425781 "/>
<path style=" stroke:none;fill-rule:nonzero;fill:rgb(24.705882%,23.921569%,33.72549%);fill-opacity:1;" d="M 186.101562 412.886719 L 189.582031 412.886719 C 189.8125 412.886719 190.003906 413.074219 190.003906 413.308594 L 190.003906 415.058594 C 190.003906 415.292969 189.8125 415.480469 189.582031 415.480469 L 186.101562 415.480469 C 185.867188 415.480469 185.675781 415.292969 185.675781 415.058594 L 185.675781 413.308594 C 185.675781 413.074219 185.867188 412.886719 186.101562 412.886719 Z M 186.101562 412.886719 "/>
<path style=" stroke:none;fill-rule:nonzero;fill:rgb(24.705882%,23.921569%,33.72549%);fill-opacity:1;" d="M 194.75 412.886719 L 198.230469 412.886719 C 198.464844 412.886719 198.652344 413.074219 198.652344 413.308594 L 198.652344 415.058594 C 198.652344 415.292969 198.464844 415.480469 198.230469 415.480469 L 194.75 415.480469 C 194.515625 415.480469 194.328125 415.292969 194.328125 415.058594 L 194.328125 413.308594 C 194.328125 413.074219 194.515625 412.886719 194.75 412.886719 Z M 194.75 412.886719 "/>
<path style=" stroke:none;fill-rule:nonzero;fill:rgb(24.705882%,23.921569%,33.72549%);fill-opacity:1;" d="M 203.402344 412.886719 L 206.882812 412.886719 C 207.113281 412.886719 207.304688 413.074219 207.304688 413.308594 L 207.304688 415.058594 C 207.304688 415.292969 207.113281 415.480469 206.882812 415.480469 L 203.402344 415.480469 C 203.167969 415.480469 202.976562 415.292969 202.976562 415.058594 L 202.976562 413.308594 C 202.976562 413.074219 203.167969 412.886719 203.402344 412.886719 Z M 203.402344 412.886719 "/>
<path style=" stroke:none;fill-rule:nonzero;fill:rgb(24.705882%,23.921569%,33.72549%);fill-opacity:1;" d="M 212.050781 412.886719 L 215.53125 412.886719 C 215.765625 412.886719 215.953125 413.074219 215.953125 413.308594 L 215.953125 415.058594 C 215.953125 415.292969 215.765625 415.480469 215.53125 415.480469 L 212.050781 415.480469 C 211.816406 415.480469 211.628906 415.292969 211.628906 415.058594 L 211.628906 413.308594 C 211.628906 413.074219 211.816406 412.886719 212.050781 412.886719 Z M 212.050781 412.886719 "/>
<path style=" stroke:none;fill-rule:nonzero;fill:rgb(24.705882%,23.921569%,33.72549%);fill-opacity:1;" d="M 220.703125 412.886719 L 224.183594 412.886719 C 224.414062 412.886719 224.605469 413.074219 224.605469 413.308594 L 224.605469 415.058594 C 224.605469 415.292969 224.414062 415.480469 224.183594 415.480469 L 220.703125 415.480469 C 220.46875 415.480469 220.28125 415.292969 220.28125 415.058594 L 220.28125 413.308594 C 220.28125 413.074219 220.46875 412.886719 220.703125 412.886719 Z M 220.703125 412.886719 "/>
<path style=" stroke:none;fill-rule:nonzero;fill:rgb(24.705882%,23.921569%,33.72549%);fill-opacity:1;" d="M 229.351562 412.886719 L 232.832031 412.886719 C 233.066406 412.886719 233.253906 413.074219 233.253906 413.308594 L 233.253906 415.058594 C 233.253906 415.292969 233.066406 415.480469 232.832031 415.480469 L 229.351562 415.480469 C 229.117188 415.480469 228.929688 415.292969 228.929688 415.058594 L 228.929688 413.308594 C 228.929688 413.074219 229.117188 412.886719 229.351562 412.886719 Z M 229.351562 412.886719 "/>
<path style=" stroke:none;fill-rule:nonzero;fill:rgb(24.705882%,23.921569%,33.72549%);fill-opacity:1;" d="M 238.003906 412.886719 L 241.484375 412.886719 C 241.714844 412.886719 241.90625 413.074219 241.90625 413.308594 L 241.90625 415.058594 C 241.90625 415.292969 241.714844 415.480469 241.484375 415.480469 L 238.003906 415.480469 C 237.769531 415.480469 237.582031 415.292969 237.582031 415.058594 L 237.582031 413.308594 C 237.582031 413.074219 237.769531 412.886719 238.003906 412.886719 Z M 238.003906 412.886719 "/>
<path style=" stroke:none;fill-rule:nonzero;fill:rgb(24.705882%,23.921569%,33.72549%);fill-opacity:1;" d="M 246.652344 412.886719 L 250.132812 412.886719 C 250.367188 412.886719 250.554688 413.074219 250.554688 413.308594 L 250.554688 415.058594 C 250.554688 415.292969 250.367188 415.480469 250.132812 415.480469 L 246.652344 415.480469 C 246.421875 415.480469 246.230469 415.292969 246.230469 415.058594 L 246.230469 413.308594 C 246.230469 413.074219 246.421875 412.886719 246.652344 412.886719 Z M 246.652344 412.886719 "/>
<path style=" stroke:none;fill-rule:nonzero;fill:rgb(24.705882%,23.921569%,33.72549%);fill-opacity:1;" d="M 255.304688 412.886719 L 258.785156 412.886719 C 259.019531 412.886719 259.207031 413.074219 259.207031 413.308594 L 259.207031 415.058594 C 259.207031 415.292969 259.019531 415.480469 258.785156 415.480469 L 255.304688 415.480469 C 255.070312 415.480469 254.882812 415.292969 254.882812 415.058594 L 254.882812 413.308594 C 254.882812 413.074219 255.070312 412.886719 255.304688 412.886719 Z M 255.304688 412.886719 "/>
<path style=" stroke:none;fill-rule:nonzero;fill:rgb(24.705882%,23.921569%,33.72549%);fill-opacity:1;" d="M 263.953125 412.886719 L 267.433594 412.886719 C 267.667969 412.886719 267.855469 413.074219 267.855469 413.308594 L 267.855469 415.058594 C 267.855469 415.292969 267.667969 415.480469 267.433594 415.480469 L 263.953125 415.480469 C 263.722656 415.480469 263.53125 415.292969 263.53125 415.058594 L 263.53125 413.308594 C 263.53125 413.074219 263.722656 412.886719 263.953125 412.886719 Z M 263.953125 412.886719 "/>
<path style=" stroke:none;fill-rule:nonzero;fill:rgb(24.705882%,23.921569%,33.72549%);fill-opacity:1;" d="M 272.605469 412.886719 L 276.085938 412.886719 C 276.320312 412.886719 276.507812 413.074219 276.507812 413.308594 L 276.507812 415.058594 C 276.507812 415.292969 276.320312 415.480469 276.085938 415.480469 L 272.605469 415.480469 C 272.371094 415.480469 272.183594 415.292969 272.183594 415.058594 L 272.183594 413.308594 C 272.183594 413.074219 272.371094 412.886719 272.605469 412.886719 Z M 272.605469 412.886719 "/>
<path style=" stroke:none;fill-rule:nonzero;fill:rgb(24.705882%,23.921569%,33.72549%);fill-opacity:1;" d="M 281.253906 412.886719 L 284.734375 412.886719 C 284.96875 412.886719 285.160156 413.074219 285.160156 413.308594 L 285.160156 415.058594 C 285.160156 415.292969 284.96875 415.480469 284.734375 415.480469 L 281.253906 415.480469 C 281.023438 415.480469 280.832031 415.292969 280.832031 415.058594 L 280.832031 413.308594 C 280.832031 413.074219 281.023438 412.886719 281.253906 412.886719 Z M 281.253906 412.886719 "/>
<path style=" stroke:none;fill-rule:nonzero;fill:rgb(24.705882%,23.921569%,33.72549%);fill-opacity:1;" d="M 289.90625 412.886719 L 293.386719 412.886719 C 293.621094 412.886719 293.808594 413.074219 293.808594 413.308594 L 293.808594 415.058594 C 293.808594 415.292969 293.621094 415.480469 293.386719 415.480469 L 289.90625 415.480469 C 289.671875 415.480469 289.484375 415.292969 289.484375 415.058594 L 289.484375 413.308594 C 289.484375 413.074219 289.671875 412.886719 289.90625 412.886719 Z M 289.90625 412.886719 "/>
<path style=" stroke:none;fill-rule:nonzero;fill:rgb(24.705882%,23.921569%,33.72549%);fill-opacity:1;" d="M 298.554688 412.886719 L 302.035156 412.886719 C 302.269531 412.886719 302.460938 413.074219 302.460938 413.308594 L 302.460938 415.058594 C 302.460938 415.292969 302.269531 415.480469 302.035156 415.480469 L 298.554688 415.480469 C 298.324219 415.480469 298.132812 415.292969 298.132812 415.058594 L 298.132812 413.308594 C 298.132812 413.074219 298.324219 412.886719 298.554688 412.886719 Z M 298.554688 412.886719 "/>
<path style=" stroke:none;fill-rule:nonzero;fill:rgb(24.705882%,23.921569%,33.72549%);fill-opacity:1;" d="M 307.207031 412.886719 L 310.6875 412.886719 C 310.921875 412.886719 311.109375 413.074219 311.109375 413.308594 L 311.109375 415.058594 C 311.109375 415.292969 310.921875 415.480469 310.6875 415.480469 L 307.207031 415.480469 C 306.972656 415.480469 306.785156 415.292969 306.785156 415.058594 L 306.785156 413.308594 C 306.785156 413.074219 306.972656 412.886719 307.207031 412.886719 Z M 307.207031 412.886719 "/>
<path style=" stroke:none;fill-rule:nonzero;fill:rgb(24.705882%,23.921569%,33.72549%);fill-opacity:1;" d="M 315.859375 412.886719 L 319.339844 412.886719 C 319.570312 412.886719 319.761719 413.074219 319.761719 413.308594 L 319.761719 415.058594 C 319.761719 415.292969 319.570312 415.480469 319.339844 415.480469 L 315.859375 415.480469 C 315.625 415.480469 315.433594 415.292969 315.433594 415.058594 L 315.433594 413.308594 C 315.433594 413.074219 315.625 412.886719 315.859375 412.886719 Z M 315.859375 412.886719 "/>
<path style=" stroke:none;fill-rule:nonzero;fill:rgb(24.705882%,23.921569%,33.72549%);fill-opacity:1;" d="M 185.996094 417.210938 L 189.476562 417.210938 C 189.710938 417.210938 189.898438 417.398438 189.898438 417.632812 L 189.898438 419.382812 C 189.898438 419.617188 189.710938 419.804688 189.476562 419.804688 L 185.996094 419.804688 C 185.765625 419.804688 185.574219 419.617188 185.574219 419.382812 L 185.574219 417.632812 C 185.574219 417.398438 185.765625 417.210938 185.996094 417.210938 Z M 185.996094 417.210938 "/>
<path style=" stroke:none;fill-rule:nonzero;fill:rgb(24.705882%,23.921569%,33.72549%);fill-opacity:1;" d="M 194.648438 417.210938 L 198.128906 417.210938 C 198.363281 417.210938 198.550781 417.398438 198.550781 417.632812 L 198.550781 419.382812 C 198.550781 419.617188 198.363281 419.804688 198.128906 419.804688 L 194.648438 419.804688 C 194.414062 419.804688 194.226562 419.617188 194.226562 419.382812 L 194.226562 417.632812 C 194.226562 417.398438 194.414062 417.210938 194.648438 417.210938 Z M 194.648438 417.210938 "/>
<path style=" stroke:none;fill-rule:nonzero;fill:rgb(24.705882%,23.921569%,33.72549%);fill-opacity:1;" d="M 203.296875 417.210938 L 206.777344 417.210938 C 207.011719 417.210938 207.203125 417.398438 207.203125 417.632812 L 207.203125 419.382812 C 207.203125 419.617188 207.011719 419.804688 206.777344 419.804688 L 203.296875 419.804688 C 203.066406 419.804688 202.875 419.617188 202.875 419.382812 L 202.875 417.632812 C 202.875 417.398438 203.066406 417.210938 203.296875 417.210938 Z M 203.296875 417.210938 "/>
<path style=" stroke:none;fill-rule:nonzero;fill:rgb(24.705882%,23.921569%,33.72549%);fill-opacity:1;" d="M 211.949219 417.210938 L 215.429688 417.210938 C 215.664062 417.210938 215.851562 417.398438 215.851562 417.632812 L 215.851562 419.382812 C 215.851562 419.617188 215.664062 419.804688 215.429688 419.804688 L 211.949219 419.804688 C 211.714844 419.804688 211.527344 419.617188 211.527344 419.382812 L 211.527344 417.632812 C 211.527344 417.398438 211.714844 417.210938 211.949219 417.210938 Z M 211.949219 417.210938 "/>
<path style=" stroke:none;fill-rule:nonzero;fill:rgb(24.705882%,23.921569%,33.72549%);fill-opacity:1;" d="M 220.597656 417.210938 L 224.082031 417.210938 C 224.3125 417.210938 224.503906 417.398438 224.503906 417.632812 L 224.503906 419.382812 C 224.503906 419.617188 224.3125 419.804688 224.082031 419.804688 L 220.597656 419.804688 C 220.367188 419.804688 220.175781 419.617188 220.175781 419.382812 L 220.175781 417.632812 C 220.175781 417.398438 220.367188 417.210938 220.597656 417.210938 Z M 220.597656 417.210938 "/>
<path style=" stroke:none;fill-rule:nonzero;fill:rgb(24.705882%,23.921569%,33.72549%);fill-opacity:1;" d="M 229.25 417.210938 L 232.730469 417.210938 C 232.964844 417.210938 233.152344 417.398438 233.152344 417.632812 L 233.152344 419.382812 C 233.152344 419.617188 232.964844 419.804688 232.730469 419.804688 L 229.25 419.804688 C 229.015625 419.804688 228.828125 419.617188 228.828125 419.382812 L 228.828125 417.632812 C 228.828125 417.398438 229.015625 417.210938 229.25 417.210938 Z M 229.25 417.210938 "/>
<path style=" stroke:none;fill-rule:nonzero;fill:rgb(24.705882%,23.921569%,33.72549%);fill-opacity:1;" d="M 237.902344 417.210938 L 241.382812 417.210938 C 241.613281 417.210938 241.804688 417.398438 241.804688 417.632812 L 241.804688 419.382812 C 241.804688 419.617188 241.613281 419.804688 241.382812 419.804688 L 237.902344 419.804688 C 237.667969 419.804688 237.476562 419.617188 237.476562 419.382812 L 237.476562 417.632812 C 237.476562 417.398438 237.667969 417.210938 237.902344 417.210938 Z M 237.902344 417.210938 "/>
<path style=" stroke:none;fill-rule:nonzero;fill:rgb(24.705882%,23.921569%,33.72549%);fill-opacity:1;" d="M 246.550781 417.210938 L 250.03125 417.210938 C 250.265625 417.210938 250.453125 417.398438 250.453125 417.632812 L 250.453125 419.382812 C 250.453125 419.617188 250.265625 419.804688 250.03125 419.804688 L 246.550781 419.804688 C 246.316406 419.804688 246.128906 419.617188 246.128906 419.382812 L 246.128906 417.632812 C 246.128906 417.398438 246.316406 417.210938 246.550781 417.210938 Z M 246.550781 417.210938 "/>
<path style=" stroke:none;fill-rule:nonzero;fill:rgb(24.705882%,23.921569%,33.72549%);fill-opacity:1;" d="M 255.203125 417.210938 L 258.683594 417.210938 C 258.914062 417.210938 259.105469 417.398438 259.105469 417.632812 L 259.105469 419.382812 C 259.105469 419.617188 258.914062 419.804688 258.683594 419.804688 L 255.203125 419.804688 C 254.96875 419.804688 254.777344 419.617188 254.777344 419.382812 L 254.777344 417.632812 C 254.777344 417.398438 254.96875 417.210938 255.203125 417.210938 Z M 255.203125 417.210938 "/>
<path style=" stroke:none;fill-rule:nonzero;fill:rgb(24.705882%,23.921569%,33.72549%);fill-opacity:1;" d="M 263.851562 417.210938 L 267.332031 417.210938 C 267.566406 417.210938 267.753906 417.398438 267.753906 417.632812 L 267.753906 419.382812 C 267.753906 419.617188 267.566406 419.804688 267.332031 419.804688 L 263.851562 419.804688 C 263.617188 419.804688 263.429688 419.617188 263.429688 419.382812 L 263.429688 417.632812 C 263.429688 417.398438 263.617188 417.210938 263.851562 417.210938 Z M 263.851562 417.210938 "/>
<path style=" stroke:none;fill-rule:nonzero;fill:rgb(24.705882%,23.921569%,33.72549%);fill-opacity:1;" d="M 272.503906 417.210938 L 275.984375 417.210938 C 276.214844 417.210938 276.40625 417.398438 276.40625 417.632812 L 276.40625 419.382812 C 276.40625 419.617188 276.214844 419.804688 275.984375 419.804688 L 272.503906 419.804688 C 272.269531 419.804688 272.082031 419.617188 272.082031 419.382812 L 272.082031 417.632812 C 272.082031 417.398438 272.269531 417.210938 272.503906 417.210938 Z M 272.503906 417.210938 "/>
<path style=" stroke:none;fill-rule:nonzero;fill:rgb(24.705882%,23.921569%,33.72549%);fill-opacity:1;" d="M 281.152344 417.210938 L 284.632812 417.210938 C 284.867188 417.210938 285.054688 417.398438 285.054688 417.632812 L 285.054688 419.382812 C 285.054688 419.617188 284.867188 419.804688 284.632812 419.804688 L 281.152344 419.804688 C 280.917969 419.804688 280.730469 419.617188 280.730469 419.382812 L 280.730469 417.632812 C 280.730469 417.398438 280.917969 417.210938 281.152344 417.210938 Z M 281.152344 417.210938 "/>
<path style=" stroke:none;fill-rule:nonzero;fill:rgb(24.705882%,23.921569%,33.72549%);fill-opacity:1;" d="M 289.804688 417.210938 L 293.285156 417.210938 C 293.515625 417.210938 293.707031 417.398438 293.707031 417.632812 L 293.707031 419.382812 C 293.707031 419.617188 293.515625 419.804688 293.285156 419.804688 L 289.804688 419.804688 C 289.570312 419.804688 289.382812 419.617188 289.382812 419.382812 L 289.382812 417.632812 C 289.382812 417.398438 289.570312 417.210938 289.804688 417.210938 Z M 289.804688 417.210938 "/>
<path style=" stroke:none;fill-rule:nonzero;fill:rgb(24.705882%,23.921569%,33.72549%);fill-opacity:1;" d="M 298.453125 417.210938 L 301.933594 417.210938 C 302.167969 417.210938 302.355469 417.398438 302.355469 417.632812 L 302.355469 419.382812 C 302.355469 419.617188 302.167969 419.804688 301.933594 419.804688 L 298.453125 419.804688 C 298.222656 419.804688 298.03125 419.617188 298.03125 419.382812 L 298.03125 417.632812 C 298.03125 417.398438 298.222656 417.210938 298.453125 417.210938 Z M 298.453125 417.210938 "/>
<path style=" stroke:none;fill-rule:nonzero;fill:rgb(24.705882%,23.921569%,33.72549%);fill-opacity:1;" d="M 307.105469 417.210938 L 310.585938 417.210938 C 310.820312 417.210938 311.007812 417.398438 311.007812 417.632812 L 311.007812 419.382812 C 311.007812 419.617188 310.820312 419.804688 310.585938 419.804688 L 307.105469 419.804688 C 306.871094 419.804688 306.683594 419.617188 306.683594 419.382812 L 306.683594 417.632812 C 306.683594 417.398438 306.871094 417.210938 307.105469 417.210938 Z M 307.105469 417.210938 "/>
<path style=" stroke:none;fill-rule:nonzero;fill:rgb(24.705882%,23.921569%,33.72549%);fill-opacity:1;" d="M 315.753906 417.210938 L 319.234375 417.210938 C 319.46875 417.210938 319.65625 417.398438 319.65625 417.632812 L 319.65625 419.382812 C 319.65625 419.617188 319.46875 419.804688 319.234375 419.804688 L 315.753906 419.804688 C 315.523438 419.804688 315.332031 419.617188 315.332031 419.382812 L 315.332031 417.632812 C 315.332031 417.398438 315.523438 417.210938 315.753906 417.210938 Z M 315.753906 417.210938 "/>
<path style=" stroke:none;fill-rule:nonzero;fill:rgb(24.705882%,23.921569%,33.72549%);fill-opacity:1;" d="M 227.519531 422.402344 L 261.277344 422.402344 C 261.511719 422.402344 261.699219 422.589844 261.699219 422.824219 L 261.699219 424.574219 C 261.699219 424.808594 261.511719 424.996094 261.277344 424.996094 L 227.519531 424.996094 C 227.285156 424.996094 227.097656 424.808594 227.097656 424.574219 L 227.097656 422.824219 C 227.097656 422.589844 227.285156 422.402344 227.519531 422.402344 Z M 227.519531 422.402344 "/>
<path style=" stroke:none;fill-rule:nonzero;fill:rgb(24.705882%,23.921569%,33.72549%);fill-opacity:1;" d="M 357.046875 213.386719 L 136.179688 213.386719 C 135.703125 213.378906 135.320312 212.988281 135.320312 212.511719 C 135.320312 212.03125 135.703125 211.640625 136.179688 211.632812 L 357.046875 211.632812 C 357.527344 211.640625 357.90625 212.03125 357.90625 212.511719 C 357.90625 212.988281 357.527344 213.378906 357.046875 213.386719 Z M 357.046875 213.386719 "/>
<path style=" stroke:none;fill-rule:nonzero;fill:rgb(24.705882%,23.921569%,33.72549%);fill-opacity:1;" d="M 156.363281 201.886719 C 156.363281 198.980469 154.058594 196.621094 151.214844 196.621094 C 148.371094 196.621094 146.066406 198.980469 146.066406 201.886719 C 146.066406 204.789062 148.371094 207.148438 151.214844 207.148438 C 154.058594 207.148438 156.363281 204.789062 156.363281 201.886719 Z M 156.363281 201.886719 "/>
<path style=" stroke:none;fill-rule:nonzero;fill:rgb(24.705882%,23.921569%,33.72549%);fill-opacity:1;" d="M 174.144531 201.886719 C 174.144531 198.980469 171.839844 196.621094 168.996094 196.621094 C 166.15625 196.621094 163.851562 198.980469 163.851562 201.886719 C 163.851562 204.789062 166.15625 207.148438 168.996094 207.148438 C 171.839844 207.148438 174.144531 204.789062 174.144531 201.886719 Z M 174.144531 201.886719 "/>
<path style=" stroke:none;fill-rule:nonzero;fill:rgb(24.705882%,23.921569%,33.72549%);fill-opacity:1;" d="M 191.925781 201.886719 C 191.925781 198.980469 189.621094 196.621094 186.78125 196.621094 C 183.9375 196.621094 181.632812 198.980469 181.632812 201.886719 C 181.632812 204.789062 183.9375 207.148438 186.78125 207.148438 C 189.621094 207.148438 191.925781 204.789062 191.925781 201.886719 Z M 191.925781 201.886719 "/>
<path style=" stroke:none;fill-rule:nonzero;fill:rgb(24.705882%,23.921569%,33.72549%);fill-opacity:1;" d="M 346.339844 197.925781 L 333.710938 197.925781 C 333.191406 197.9375 332.777344 198.359375 332.777344 198.878906 C 332.777344 199.398438 333.191406 199.824219 333.710938 199.835938 L 346.339844 199.835938 C 346.863281 199.828125 347.285156 199.402344 347.285156 198.878906 C 347.285156 198.355469 346.863281 197.929688 346.339844 197.925781 Z M 346.339844 197.925781 "/>
<path style=" stroke:none;fill-rule:nonzero;fill:rgb(24.705882%,23.921569%,33.72549%);fill-opacity:1;" d="M 346.339844 201.515625 L 333.710938 201.515625 C 333.191406 201.523438 332.777344 201.949219 332.777344 202.46875 C 332.777344 202.988281 333.191406 203.414062 333.710938 203.425781 L 346.339844 203.425781 C 346.863281 203.417969 347.285156 202.992188 347.285156 202.46875 C 347.285156 201.945312 346.863281 201.519531 346.339844 201.515625 Z M 346.339844 201.515625 "/>
<path style=" stroke:none;fill-rule:nonzero;fill:rgb(24.705882%,23.921569%,33.72549%);fill-opacity:1;" d="M 346.339844 205.105469 L 333.710938 205.105469 C 333.191406 205.117188 332.777344 205.539062 332.777344 206.058594 C 332.777344 206.578125 333.191406 207.003906 333.710938 207.015625 L 346.339844 207.015625 C 346.863281 207.007812 347.285156 206.582031 347.285156 206.058594 C 347.285156 205.535156 346.863281 205.109375 346.339844 205.105469 Z M 346.339844 205.105469 "/>
<path style=" stroke:none;fill-rule:nonzero;fill:rgb(90.196078%,90.196078%,90.196078%);fill-opacity:1;" d="M 150.6875 233.800781 L 155.226562 233.800781 C 156.601562 233.800781 157.714844 234.914062 157.714844 236.292969 C 157.714844 237.667969 156.601562 238.78125 155.226562 238.78125 L 150.6875 238.78125 C 149.3125 238.78125 148.195312 237.667969 148.195312 236.292969 C 148.195312 234.914062 149.3125 233.800781 150.6875 233.800781 Z M 150.6875 233.800781 "/>
<path style=" stroke:none;fill-rule:nonzero;fill:rgb(90.196078%,90.196078%,90.196078%);fill-opacity:1;" d="M 202.589844 233.800781 L 207.128906 233.800781 C 208.503906 233.800781 209.621094 234.914062 209.621094 236.292969 C 209.621094 237.667969 208.503906 238.78125 207.128906 238.78125 L 202.589844 238.78125 C 201.214844 238.78125 200.097656 237.667969 200.097656 236.292969 C 200.097656 234.914062 201.214844 233.800781 202.589844 233.800781 Z M 202.589844 233.800781 "/>
<path style=" stroke:none;fill-rule:nonzero;fill:rgb(90.196078%,90.196078%,90.196078%);fill-opacity:1;" d="M 217.296875 233.800781 L 221.835938 233.800781 C 223.210938 233.800781 224.324219 234.914062 224.324219 236.292969 C 224.324219 237.667969 223.210938 238.78125 221.835938 238.78125 L 217.296875 238.78125 C 215.921875 238.78125 214.804688 237.667969 214.804688 236.292969 C 214.804688 234.914062 215.921875 233.800781 217.296875 233.800781 Z M 217.296875 233.800781 "/>
<path style=" stroke:none;fill-rule:nonzero;fill:rgb(90.196078%,90.196078%,90.196078%);fill-opacity:1;" d="M 164.804688 233.386719 L 193.011719 233.386719 C 194.386719 233.386719 195.5 234.5 195.5 235.875 C 195.5 237.253906 194.386719 238.367188 193.011719 238.367188 L 164.804688 238.367188 C 163.429688 238.367188 162.3125 237.253906 162.3125 235.875 C 162.3125 234.5 163.429688 233.386719 164.804688 233.386719 Z M 164.804688 233.386719 "/>
<path style=" stroke:none;fill-rule:nonzero;fill:rgb(90.196078%,90.196078%,90.196078%);fill-opacity:1;" d="M 234.007812 233.386719 L 262.214844 233.386719 C 263.589844 233.386719 264.707031 234.5 264.707031 235.875 C 264.707031 237.253906 263.589844 238.367188 262.214844 238.367188 L 234.007812 238.367188 C 232.632812 238.367188 231.515625 237.253906 231.515625 235.875 C 231.515625 234.5 232.632812 233.386719 234.007812 233.386719 Z M 234.007812 233.386719 "/>
<path style=" stroke:none;fill-rule:nonzero;fill:rgb(90.196078%,90.196078%,90.196078%);fill-opacity:1;" d="M 164.527344 245.046875 L 169.066406 245.046875 C 170.441406 245.046875 171.558594 246.160156 171.558594 247.539062 C 171.558594 248.914062 170.441406 250.027344 169.066406 250.027344 L 164.527344 250.027344 C 163.152344 250.027344 162.035156 248.914062 162.035156 247.539062 C 162.035156 246.160156 163.152344 245.046875 164.527344 245.046875 Z M 164.527344 245.046875 "/>
<path style=" stroke:none;fill-rule:nonzero;fill:rgb(90.196078%,90.196078%,90.196078%);fill-opacity:1;" d="M 216.429688 245.046875 L 220.96875 245.046875 C 222.34375 245.046875 223.460938 246.160156 223.460938 247.539062 C 223.460938 248.914062 222.34375 250.027344 220.96875 250.027344 L 216.429688 250.027344 C 215.054688 250.027344 213.941406 248.914062 213.941406 247.539062 C 213.941406 246.160156 215.054688 245.046875 216.429688 245.046875 Z M 216.429688 245.046875 "/>
<path style=" stroke:none;fill-rule:nonzero;fill:rgb(90.196078%,90.196078%,90.196078%);fill-opacity:1;" d="M 231.136719 245.046875 L 235.675781 245.046875 C 237.050781 245.046875 238.167969 246.160156 238.167969 247.539062 C 238.167969 248.914062 237.050781 250.027344 235.675781 250.027344 L 231.136719 250.027344 C 229.761719 250.027344 228.644531 248.914062 228.644531 247.539062 C 228.644531 246.160156 229.761719 245.046875 231.136719 245.046875 Z M 231.136719 245.046875 "/>
<path style=" stroke:none;fill-rule:nonzero;fill:rgb(90.196078%,90.196078%,90.196078%);fill-opacity:1;" d="M 178.644531 244.628906 L 206.851562 244.628906 C 208.226562 244.628906 209.34375 245.746094 209.34375 247.121094 C 209.34375 248.496094 208.226562 249.613281 206.851562 249.613281 L 178.644531 249.613281 C 177.269531 249.613281 176.152344 248.496094 176.152344 247.121094 C 176.152344 245.746094 177.269531 244.628906 178.644531 244.628906 Z M 178.644531 244.628906 "/>
<path style=" stroke:none;fill-rule:nonzero;fill:rgb(90.196078%,90.196078%,90.196078%);fill-opacity:1;" d="M 247.851562 244.628906 L 276.054688 244.628906 C 277.429688 244.628906 278.546875 245.746094 278.546875 247.121094 C 278.546875 248.496094 277.429688 249.613281 276.054688 249.613281 L 247.851562 249.613281 C 246.472656 249.613281 245.359375 248.496094 245.359375 247.121094 C 245.359375 245.746094 246.472656 244.628906 247.851562 244.628906 Z M 247.851562 244.628906 "/>
<path style=" stroke:none;fill-rule:nonzero;fill:rgb(90.196078%,90.196078%,90.196078%);fill-opacity:1;" d="M 178.367188 256.292969 L 182.90625 256.292969 C 184.28125 256.292969 185.398438 257.40625 185.398438 258.78125 C 185.398438 260.160156 184.28125 261.273438 182.90625 261.273438 L 178.367188 261.273438 C 176.992188 261.273438 175.878906 260.160156 175.878906 258.78125 C 175.878906 257.40625 176.992188 256.292969 178.367188 256.292969 Z M 178.367188 256.292969 "/>
<path style=" stroke:none;fill-rule:nonzero;fill:rgb(90.196078%,90.196078%,90.196078%);fill-opacity:1;" d="M 230.273438 256.292969 L 234.808594 256.292969 C 236.1875 256.292969 237.300781 257.40625 237.300781 258.78125 C 237.300781 260.160156 236.1875 261.273438 234.808594 261.273438 L 230.273438 261.273438 C 228.894531 261.273438 227.78125 260.160156 227.78125 258.78125 C 227.78125 257.40625 228.894531 256.292969 230.273438 256.292969 Z M 230.273438 256.292969 "/>
<path style=" stroke:none;fill-rule:nonzero;fill:rgb(90.196078%,90.196078%,90.196078%);fill-opacity:1;" d="M 244.976562 256.292969 L 249.515625 256.292969 C 250.890625 256.292969 252.007812 257.40625 252.007812 258.78125 C 252.007812 260.160156 250.890625 261.273438 249.515625 261.273438 L 244.976562 261.273438 C 243.601562 261.273438 242.484375 260.160156 242.484375 258.78125 C 242.484375 257.40625 243.601562 256.292969 244.976562 256.292969 Z M 244.976562 256.292969 "/>
<path style=" stroke:none;fill-rule:nonzero;fill:rgb(90.196078%,90.196078%,90.196078%);fill-opacity:1;" d="M 192.488281 255.875 L 220.691406 255.875 C 222.066406 255.875 223.183594 256.992188 223.183594 258.367188 C 223.183594 259.742188 222.066406 260.859375 220.691406 260.859375 L 192.488281 260.859375 C 191.109375 260.859375 189.996094 259.742188 189.996094 258.367188 C 189.996094 256.992188 191.109375 255.875 192.488281 255.875 Z M 192.488281 255.875 "/>
<path style=" stroke:none;fill-rule:nonzero;fill:rgb(90.196078%,90.196078%,90.196078%);fill-opacity:1;" d="M 261.691406 255.875 L 289.894531 255.875 C 291.273438 255.875 292.386719 256.992188 292.386719 258.367188 C 292.386719 259.742188 291.273438 260.859375 289.894531 260.859375 L 261.691406 260.859375 C 260.316406 260.859375 259.199219 259.742188 259.199219 258.367188 C 259.199219 256.992188 260.316406 255.875 261.691406 255.875 Z M 261.691406 255.875 "/>
<path style=" stroke:none;fill-rule:nonzero;fill:rgb(90.196078%,90.196078%,90.196078%);fill-opacity:1;" d="M 192.210938 267.539062 L 196.746094 267.539062 C 198.125 267.539062 199.238281 268.652344 199.238281 270.027344 C 199.238281 271.40625 198.125 272.519531 196.746094 272.519531 L 192.210938 272.519531 C 190.832031 272.519531 189.71875 271.40625 189.71875 270.027344 C 189.71875 268.652344 190.832031 267.539062 192.210938 267.539062 Z M 192.210938 267.539062 "/>
<path style=" stroke:none;fill-rule:nonzero;fill:rgb(90.196078%,90.196078%,90.196078%);fill-opacity:1;" d="M 244.113281 267.539062 L 248.652344 267.539062 C 250.027344 267.539062 251.140625 268.652344 251.140625 270.027344 C 251.140625 271.40625 250.027344 272.519531 248.652344 272.519531 L 244.113281 272.519531 C 242.738281 272.519531 241.621094 271.40625 241.621094 270.027344 C 241.621094 268.652344 242.738281 267.539062 244.113281 267.539062 Z M 244.113281 267.539062 "/>
<path style=" stroke:none;fill-rule:nonzero;fill:rgb(90.196078%,90.196078%,90.196078%);fill-opacity:1;" d="M 258.820312 267.539062 L 263.355469 267.539062 C 264.734375 267.539062 265.847656 268.652344 265.847656 270.027344 C 265.847656 271.40625 264.734375 272.519531 263.355469 272.519531 L 258.820312 272.519531 C 257.441406 272.519531 256.328125 271.40625 256.328125 270.027344 C 256.328125 268.652344 257.441406 267.539062 258.820312 267.539062 Z M 258.820312 267.539062 "/>
<path style=" stroke:none;fill-rule:nonzero;fill:rgb(90.196078%,90.196078%,90.196078%);fill-opacity:1;" d="M 206.328125 267.121094 L 234.53125 267.121094 C 235.910156 267.121094 237.023438 268.238281 237.023438 269.613281 C 237.023438 270.988281 235.910156 272.105469 234.53125 272.105469 L 206.328125 272.105469 C 204.953125 272.105469 203.835938 270.988281 203.835938 269.613281 C 203.835938 268.238281 204.953125 267.121094 206.328125 267.121094 Z M 206.328125 267.121094 "/>
<path style=" stroke:none;fill-rule:nonzero;fill:rgb(90.196078%,90.196078%,90.196078%);fill-opacity:1;" d="M 202.589844 312.253906 L 207.128906 312.253906 C 208.503906 312.253906 209.621094 313.371094 209.621094 314.746094 C 209.621094 316.121094 208.503906 317.238281 207.128906 317.238281 L 202.589844 317.238281 C 201.214844 317.238281 200.097656 316.121094 200.097656 314.746094 C 200.097656 313.371094 201.214844 312.253906 202.589844 312.253906 Z M 202.589844 312.253906 "/>
<path style=" stroke:none;fill-rule:nonzero;fill:rgb(90.196078%,90.196078%,90.196078%);fill-opacity:1;" d="M 217.296875 312.253906 L 221.835938 312.253906 C 223.210938 312.253906 224.324219 313.371094 224.324219 314.746094 C 224.324219 316.121094 223.210938 317.238281 221.835938 317.238281 L 217.296875 317.238281 C 215.921875 317.238281 214.804688 316.121094 214.804688 314.746094 C 214.804688 313.371094 215.921875 312.253906 217.296875 312.253906 Z M 217.296875 312.253906 "/>
<path style=" stroke:none;fill-rule:nonzero;fill:rgb(90.196078%,90.196078%,90.196078%);fill-opacity:1;" d="M 234.007812 312.671875 L 262.214844 312.671875 C 263.589844 312.671875 264.707031 313.785156 264.707031 315.160156 C 264.707031 316.539062 263.589844 317.652344 262.214844 317.652344 L 234.007812 317.652344 C 232.632812 317.652344 231.515625 316.539062 231.515625 315.160156 C 231.515625 313.785156 232.632812 312.671875 234.007812 312.671875 Z M 234.007812 312.671875 "/>
<path style=" stroke:none;fill-rule:nonzero;fill:rgb(90.196078%,90.196078%,90.196078%);fill-opacity:1;" d="M 150.6875 312.253906 L 155.226562 312.253906 C 156.601562 312.253906 157.714844 313.371094 157.714844 314.746094 C 157.714844 316.121094 156.601562 317.238281 155.226562 317.238281 L 150.6875 317.238281 C 149.3125 317.238281 148.195312 316.121094 148.195312 314.746094 C 148.195312 313.371094 149.3125 312.253906 150.6875 312.253906 Z M 150.6875 312.253906 "/>
<path style=" stroke:none;fill-rule:nonzero;fill:rgb(90.196078%,90.196078%,90.196078%);fill-opacity:1;" d="M 164.804688 312.671875 L 193.011719 312.671875 C 194.386719 312.671875 195.5 313.785156 195.5 315.160156 C 195.5 316.539062 194.386719 317.652344 193.011719 317.652344 L 164.804688 317.652344 C 163.429688 317.652344 162.3125 316.539062 162.3125 315.160156 C 162.3125 313.785156 163.429688 312.671875 164.804688 312.671875 Z M 164.804688 312.671875 "/>
<path style=" stroke:none;fill-rule:nonzero;fill:rgb(90.196078%,90.196078%,90.196078%);fill-opacity:1;" d="M 164.527344 301.007812 L 169.066406 301.007812 C 170.441406 301.007812 171.558594 302.125 171.558594 303.5 C 171.558594 304.875 170.441406 305.992188 169.066406 305.992188 L 164.527344 305.992188 C 163.152344 305.992188 162.035156 304.875 162.035156 303.5 C 162.035156 302.125 163.152344 301.007812 164.527344 301.007812 Z M 164.527344 301.007812 "/>
<path style=" stroke:none;fill-rule:nonzero;fill:rgb(90.196078%,90.196078%,90.196078%);fill-opacity:1;" d="M 216.429688 301.007812 L 220.96875 301.007812 C 222.34375 301.007812 223.460938 302.125 223.460938 303.5 C 223.460938 304.875 222.34375 305.992188 220.96875 305.992188 L 216.429688 305.992188 C 215.054688 305.992188 213.941406 304.875 213.941406 303.5 C 213.941406 302.125 215.054688 301.007812 216.429688 301.007812 Z M 216.429688 301.007812 "/>
<path style=" stroke:none;fill-rule:nonzero;fill:rgb(90.196078%,90.196078%,90.196078%);fill-opacity:1;" d="M 231.136719 301.007812 L 235.675781 301.007812 C 237.050781 301.007812 238.167969 302.125 238.167969 303.5 C 238.167969 304.875 237.050781 305.992188 235.675781 305.992188 L 231.136719 305.992188 C 229.761719 305.992188 228.644531 304.875 228.644531 303.5 C 228.644531 302.125 229.761719 301.007812 231.136719 301.007812 Z M 231.136719 301.007812 "/>
<path style=" stroke:none;fill-rule:nonzero;fill:rgb(90.196078%,90.196078%,90.196078%);fill-opacity:1;" d="M 178.644531 301.425781 L 206.851562 301.425781 C 208.226562 301.425781 209.34375 302.539062 209.34375 303.917969 C 209.34375 305.292969 208.226562 306.40625 206.851562 306.40625 L 178.644531 306.40625 C 177.269531 306.40625 176.152344 305.292969 176.152344 303.917969 C 176.152344 302.539062 177.269531 301.425781 178.644531 301.425781 Z M 178.644531 301.425781 "/>
<path style=" stroke:none;fill-rule:nonzero;fill:rgb(90.196078%,90.196078%,90.196078%);fill-opacity:1;" d="M 178.367188 289.761719 L 182.90625 289.761719 C 184.28125 289.761719 185.398438 290.878906 185.398438 292.253906 C 185.398438 293.632812 184.28125 294.746094 182.90625 294.746094 L 178.367188 294.746094 C 176.992188 294.746094 175.878906 293.632812 175.878906 292.253906 C 175.878906 290.878906 176.992188 289.761719 178.367188 289.761719 Z M 178.367188 289.761719 "/>
<path style=" stroke:none;fill-rule:nonzero;fill:rgb(90.196078%,90.196078%,90.196078%);fill-opacity:1;" d="M 230.273438 289.761719 L 234.808594 289.761719 C 236.1875 289.761719 237.300781 290.878906 237.300781 292.253906 C 237.300781 293.632812 236.1875 294.746094 234.808594 294.746094 L 230.273438 294.746094 C 228.894531 294.746094 227.78125 293.632812 227.78125 292.253906 C 227.78125 290.878906 228.894531 289.761719 230.273438 289.761719 Z M 230.273438 289.761719 "/>
<path style=" stroke:none;fill-rule:nonzero;fill:rgb(90.196078%,90.196078%,90.196078%);fill-opacity:1;" d="M 244.976562 289.761719 L 249.515625 289.761719 C 250.890625 289.761719 252.007812 290.878906 252.007812 292.253906 C 252.007812 293.632812 250.890625 294.746094 249.515625 294.746094 L 244.976562 294.746094 C 243.601562 294.746094 242.484375 293.632812 242.484375 292.253906 C 242.484375 290.878906 243.601562 289.761719 244.976562 289.761719 Z M 244.976562 289.761719 "/>
<path style=" stroke:none;fill-rule:nonzero;fill:rgb(90.196078%,90.196078%,90.196078%);fill-opacity:1;" d="M 192.488281 290.179688 L 220.691406 290.179688 C 222.066406 290.179688 223.183594 291.292969 223.183594 292.671875 C 223.183594 294.046875 222.066406 295.160156 220.691406 295.160156 L 192.488281 295.160156 C 191.109375 295.160156 189.996094 294.046875 189.996094 292.671875 C 189.996094 291.292969 191.109375 290.179688 192.488281 290.179688 Z M 192.488281 290.179688 "/>
<path style=" stroke:none;fill-rule:nonzero;fill:rgb(90.196078%,90.196078%,90.196078%);fill-opacity:1;" d="M 192.210938 278.519531 L 196.746094 278.519531 C 198.125 278.519531 199.238281 279.632812 199.238281 281.007812 C 199.238281 282.386719 198.125 283.5 196.746094 283.5 L 192.210938 283.5 C 190.832031 283.5 189.71875 282.386719 189.71875 281.007812 C 189.71875 279.632812 190.832031 278.519531 192.210938 278.519531 Z M 192.210938 278.519531 "/>
<path style=" stroke:none;fill-rule:nonzero;fill:rgb(90.196078%,90.196078%,90.196078%);fill-opacity:1;" d="M 244.113281 278.519531 L 248.652344 278.519531 C 250.027344 278.519531 251.140625 279.632812 251.140625 281.007812 C 251.140625 282.386719 250.027344 283.5 248.652344 283.5 L 244.113281 283.5 C 242.738281 283.5 241.621094 282.386719 241.621094 281.007812 C 241.621094 279.632812 242.738281 278.519531 244.113281 278.519531 Z M 244.113281 278.519531 "/>
<path style=" stroke:none;fill-rule:nonzero;fill:rgb(90.196078%,90.196078%,90.196078%);fill-opacity:1;" d="M 258.820312 278.519531 L 263.355469 278.519531 C 264.734375 278.519531 265.847656 279.632812 265.847656 281.007812 C 265.847656 282.386719 264.734375 283.5 263.355469 283.5 L 258.820312 283.5 C 257.441406 283.5 256.328125 282.386719 256.328125 281.007812 C 256.328125 279.632812 257.441406 278.519531 258.820312 278.519531 Z M 258.820312 278.519531 "/>
<path style=" stroke:none;fill-rule:nonzero;fill:rgb(90.196078%,90.196078%,90.196078%);fill-opacity:1;" d="M 206.328125 278.933594 L 234.53125 278.933594 C 235.910156 278.933594 237.023438 280.046875 237.023438 281.425781 C 237.023438 282.800781 235.910156 283.914062 234.53125 283.914062 L 206.328125 283.914062 C 204.953125 283.914062 203.835938 282.800781 203.835938 281.425781 C 203.835938 280.046875 204.953125 278.933594 206.328125 278.933594 Z M 206.328125 278.933594 "/>
<path style=" stroke:none;fill-rule:nonzero;fill:rgb(24.705882%,23.921569%,33.72549%);fill-opacity:1;" d="M 359.695312 474.714844 C 359.167969 474.984375 358.632812 475.25 358.105469 475.511719 C 344.4375 482.34375 333.503906 486.226562 318.546875 490.484375 C 317.285156 476.382812 316.0625 451.601562 314.878906 436.238281 C 314.566406 432.25 314.257812 428.902344 313.953125 426.539062 C 313.875 425.285156 313.621094 424.046875 313.191406 422.863281 L 313.242188 426.539062 L 313.375 436.238281 L 314.125 491.695312 C 295.519531 496.617188 276.410156 499.371094 257.171875 499.90625 C 256.167969 499.929688 255.183594 499.949219 254.230469 499.964844 C 253.894531 499.972656 253.5625 499.984375 253.234375 499.984375 C 252.152344 499.992188 251.082031 500 250 500 C 229.726562 500.015625 209.527344 497.566406 189.84375 492.707031 C 190.269531 478.753906 190.691406 454.246094 191.097656 436.238281 C 191.183594 432.714844 191.261719 429.4375 191.347656 426.539062 C 191.515625 420.347656 191.6875 415.882812 191.851562 414.386719 C 191.707031 414.652344 191.59375 414.933594 191.515625 415.226562 C 190.710938 418.953125 190.167969 422.734375 189.878906 426.539062 C 189.574219 429.4375 189.273438 432.714844 188.96875 436.238281 C 187.363281 454.949219 185.683594 480.390625 183.953125 491.175781 C 173.65625 488.363281 163.550781 484.890625 153.703125 480.769531 C 148.511719 478.605469 143.414062 476.273438 138.410156 473.773438 C 139.359375 467.542969 140.355469 460.5625 141.375 453.320312 C 142.171875 447.707031 142.992188 441.9375 143.832031 436.238281 C 145.128906 427.429688 146.460938 418.796875 147.8125 411.195312 C 149.785156 400.085938 151.808594 391.160156 153.816406 387.058594 C 155.71875 383.167969 157.621094 379.324219 159.464844 375.648438 C 160.105469 374.359375 160.742188 373.089844 161.367188 371.851562 C 161.515625 371.558594 161.660156 371.273438 161.808594 370.984375 C 163.132812 368.382812 164.410156 365.890625 165.632812 363.554688 C 166.679688 361.558594 167.671875 359.671875 168.617188 357.933594 C 170.898438 353.710938 172.835938 350.347656 174.273438 348.21875 C 180.277344 339.113281 189.214844 332.332031 199.601562 329.003906 L 199.863281 328.9375 L 200.042969 329.015625 L 217.734375 323.582031 L 220.320312 322.785156 L 222.058594 322.25 L 228.183594 317.585938 L 231.515625 315.050781 L 234.636719 312.671875 L 240.742188 308.027344 L 278.554688 310.355469 L 285.917969 328.078125 L 302.40625 334.109375 L 302.691406 333.980469 L 302.941406 333.875 L 303.199219 333.945312 C 313.585938 337.273438 322.523438 344.054688 328.53125 353.15625 C 329.34375 354.378906 330.328125 355.984375 331.445312 357.933594 C 332.394531 359.585938 333.433594 361.46875 334.558594 363.554688 C 336.160156 366.523438 337.90625 369.871094 339.757812 373.496094 C 340.164062 374.289062 340.578125 375.105469 340.996094 375.925781 C 341.765625 377.449219 342.546875 379.003906 343.339844 380.589844 C 345.183594 384.265625 347.085938 388.105469 348.988281 392.007812 C 350.640625 395.390625 352.308594 402.34375 353.953125 411.195312 C 355.3125 418.546875 356.660156 427.214844 357.96875 436.238281 C 359.679688 447.933594 357.855469 461.9375 359.402344 472.699219 C 359.5 473.382812 359.601562 474.046875 359.695312 474.714844 Z M 359.695312 474.714844 "/>
<path style=" stroke:none;fill-rule:nonzero;fill:rgb(62.745098%,38.039216%,41.568627%);fill-opacity:1;" d="M 294.507812 249.902344 C 294.507812 274.191406 274.820312 293.878906 250.53125 293.878906 C 226.246094 293.878906 206.554688 274.191406 206.554688 249.902344 C 206.554688 225.617188 226.246094 205.925781 250.53125 205.925781 C 274.820312 205.925781 294.507812 225.617188 294.507812 249.902344 Z M 294.507812 249.902344 "/>
<path style=" stroke:none;fill-rule:nonzero;fill:rgb(18.431373%,18.039216%,25.490196%);fill-opacity:1;" d="M 323.054688 191.625 C 322.183594 189.597656 321.027344 187.703125 319.621094 186.003906 C 312.941406 177.847656 300.796875 174.257812 288.332031 183.910156 C 285.929688 183.375 283.429688 183.519531 281.105469 184.324219 C 280.011719 184.722656 278.984375 185.289062 278.0625 186.003906 C 276.175781 187.476562 274.703125 189.414062 273.789062 191.625 C 273.300781 192.796875 272.980469 194.027344 272.835938 195.285156 C 269.757812 193.683594 266.496094 192.457031 263.121094 191.625 C 254.847656 189.566406 246.199219 189.566406 237.925781 191.625 C 235.273438 192.296875 232.71875 193.308594 230.328125 194.636719 C 226.28125 196.972656 223.953125 199.921875 223.539062 203.199219 C 217.699219 203.53125 211.625 206.601562 207.101562 211.636719 C 206.589844 212.195312 206.097656 212.785156 205.640625 213.390625 C 201.835938 218.371094 199.789062 224.46875 199.828125 230.734375 L 199.828125 231.832031 L 200.925781 231.832031 C 203.9375 231.832031 206.917969 232.414062 209.707031 233.546875 C 211.511719 234.273438 213.222656 235.214844 214.800781 236.359375 C 215.832031 237.089844 216.808594 237.898438 217.714844 238.78125 C 219.824219 240.820312 221.609375 243.167969 223.011719 245.742188 C 226.605469 252.253906 227.851562 259.800781 226.539062 267.121094 C 226.238281 268.8125 225.800781 270.480469 225.226562 272.101562 C 224.40625 274.417969 223.332031 276.628906 222.015625 278.703125 C 221.964844 278.78125 221.921875 278.859375 221.867188 278.9375 C 221.289062 279.863281 220.734375 280.804688 220.214844 281.757812 C 219.828125 282.464844 219.464844 283.191406 219.125 283.917969 C 218.140625 285.941406 217.308594 288.035156 216.636719 290.183594 C 215.429688 293.980469 214.722656 297.914062 214.523438 301.894531 C 214.464844 302.949219 214.445312 304.003906 214.480469 305.0625 C 214.53125 307.78125 214.832031 310.492188 215.371094 313.15625 C 215.449219 313.519531 215.527344 313.875 215.605469 314.238281 L 216.238281 317 L 217.734375 323.582031 L 218.773438 328.113281 L 219.730469 332.320312 L 221.152344 330.285156 C 221.636719 329.59375 222.855469 327.464844 224.488281 324.453125 C 225.570312 322.492188 226.824219 320.148438 228.183594 317.585938 C 230.078125 313.996094 232.152344 309.992188 234.1875 305.996094 C 235.007812 304.378906 235.820312 302.769531 236.609375 301.195312 C 238.097656 298.210938 239.5 295.328125 240.699219 292.769531 C 241.808594 290.40625 242.75 288.3125 243.453125 286.636719 C 243.667969 287.734375 243.847656 288.847656 243.988281 289.972656 C 244.144531 291.117188 244.257812 292.273438 244.316406 293.433594 C 244.332031 293.605469 244.34375 293.789062 244.351562 293.960938 L 244.386719 294.671875 L 244.394531 294.878906 L 245.3125 295 C 250.601562 295.566406 255.933594 295.605469 261.226562 295.121094 L 261.238281 295.121094 C 268.253906 294.59375 275.136719 292.925781 281.617188 290.183594 C 285.296875 288.585938 288.734375 286.476562 291.824219 283.917969 C 293.269531 282.722656 294.617188 281.414062 295.855469 280.007812 C 296.167969 279.652344 296.46875 279.300781 296.765625 278.9375 C 298.476562 276.832031 299.941406 274.539062 301.132812 272.101562 C 301.929688 270.492188 302.605469 268.828125 303.15625 267.121094 C 306.480469 257.058594 306.289062 244.507812 302.585938 229.59375 C 303.585938 229.402344 304.542969 229.03125 305.414062 228.503906 C 308.132812 226.867188 310.015625 223.625 310.605469 219.664062 L 311.539062 219.914062 C 314.851562 218.371094 317.800781 216.148438 320.199219 213.390625 C 320.671875 212.828125 321.117188 212.242188 321.53125 211.636719 C 325.761719 205.40625 325.796875 197.933594 323.054688 191.625 Z M 323.054688 191.625 "/>
<use xlink:href="#surface5" mask="url(#mask0)"/>
<path style=" stroke:none;fill-rule:nonzero;fill:rgb(18.431373%,18.039216%,25.490196%);fill-opacity:1;" d="M 374.074219 392.671875 C 371.445312 428.902344 374.167969 444.851562 359.652344 474.722656 C 346.445312 481.1875 332.691406 486.460938 318.546875 490.484375 C 317.074219 490.898438 315.601562 491.304688 314.125 491.695312 C 295.519531 496.617188 276.410156 499.371094 257.171875 499.90625 C 256.167969 499.929688 255.183594 499.949219 254.230469 499.964844 C 253.894531 499.972656 253.5625 499.984375 253.234375 499.984375 C 252.152344 499.992188 251.082031 500 250 500 C 229.726562 500.015625 209.527344 497.566406 189.84375 492.707031 C 187.871094 492.222656 185.910156 491.710938 183.953125 491.175781 C 173.65625 488.363281 163.550781 484.890625 153.703125 480.769531 C 148.511719 478.605469 143.414062 476.273438 138.410156 473.773438 C 137.273438 473.199219 136.140625 472.628906 135.027344 472.042969 C 129.289062 461.953125 126.03125 449.6875 125.960938 434.949219 C 129.929688 409.550781 365.304688 370.769531 374.074219 392.671875 Z M 374.074219 392.671875 "/>
<use xlink:href="#surface8" mask="url(#mask1)"/>
<path style=" stroke:none;fill-rule:nonzero;fill:rgb(18.431373%,18.039216%,25.490196%);fill-opacity:1;" d="M 141.085938 295.980469 C 141.203125 294.390625 140.625 292.832031 139.507812 291.703125 C 138.386719 290.574219 136.832031 289.980469 135.246094 290.082031 C 134.953125 290.09375 134.660156 290.128906 134.375 290.191406 L 99.980469 297.960938 C 98.425781 298.339844 97.101562 299.355469 96.339844 300.761719 C 95.832031 300.78125 95.332031 300.851562 94.84375 300.976562 C 90.34375 302 87.519531 306.476562 88.539062 310.976562 C 89.5625 315.476562 94.039062 318.300781 98.539062 317.28125 C 99.769531 316.992188 100.921875 316.4375 101.90625 315.648438 L 113.5625 348.46875 C 114.757812 350.582031 117.203125 351.65625 119.566406 351.105469 L 141.929688 346.050781 C 144.273438 345.503906 145.996094 343.507812 146.195312 341.105469 Z M 98.023438 314.941406 C 94.808594 315.667969 91.613281 313.65625 90.878906 310.441406 C 90.144531 307.230469 92.148438 304.03125 95.359375 303.289062 C 95.46875 303.261719 95.578125 303.289062 95.6875 303.261719 C 95.679688 304.25 95.929688 305.226562 96.417969 306.085938 L 100.683594 313.53125 C 99.941406 314.234375 99.023438 314.722656 98.023438 314.941406 Z M 98.023438 314.941406 "/>
<path style=" stroke:none;fill-rule:nonzero;fill:rgb(24.705882%,23.921569%,33.72549%);fill-opacity:1;" d="M 135.246094 290.082031 C 135.570312 294.429688 128.125 299.429688 118.15625 301.414062 C 109 303.289062 100.792969 301.984375 98.484375 298.558594 C 98.949219 298.285156 99.453125 298.082031 99.980469 297.960938 L 134.375 290.191406 C 134.660156 290.128906 134.953125 290.09375 135.246094 290.082031 Z M 135.246094 290.082031 "/>
<path style=" stroke:none;fill-rule:nonzero;fill:rgb(62.745098%,38.039216%,41.568627%);fill-opacity:1;" d="M 111.457031 400.4375 L 130.777344 390.777344 L 114.675781 347.308594 L 110.433594 325.386719 C 109.3125 319.589844 105.191406 314.828125 99.617188 312.882812 C 94.042969 310.941406 87.855469 312.109375 83.371094 315.949219 C 76.585938 321.765625 75.632812 331.914062 81.214844 338.890625 L 96.964844 358.578125 Z M 111.457031 400.4375 "/>
<path style=" stroke:none;fill-rule:nonzero;fill:rgb(24.705882%,23.921569%,33.72549%);fill-opacity:1;" d="M 130.777344 382.726562 L 105.015625 395.605469 L 124.566406 456.859375 C 127.421875 465.808594 134.75 472.605469 143.886719 474.78125 C 155.25 477.488281 167.058594 472.519531 173.070312 462.5 L 224.910156 373.648438 C 232.550781 360.914062 228.636719 344.410156 216.089844 336.464844 C 209.527344 332.308594 201.511719 331.140625 194.035156 333.246094 C 186.558594 335.351562 180.332031 340.539062 176.90625 347.507812 L 145.265625 414.925781 Z M 130.777344 382.726562 "/>
<path style=" stroke:none;fill-rule:nonzero;fill:rgb(42.352941%,38.823529%,100%);fill-opacity:1;" d="M 122.808594 327.371094 C 122.761719 327.371094 122.714844 327.363281 122.667969 327.347656 L 117.042969 325.410156 C 116.90625 325.363281 116.800781 325.25 116.765625 325.109375 C 116.730469 324.96875 116.765625 324.816406 116.867188 324.710938 L 121.050781 320.15625 C 121.152344 320.042969 121.3125 319.992188 121.460938 320.023438 C 121.613281 320.058594 121.734375 320.171875 121.78125 320.316406 C 121.828125 320.464844 121.792969 320.628906 121.6875 320.742188 L 117.949219 324.808594 L 122.949219 326.53125 C 123.148438 326.597656 123.269531 326.800781 123.234375 327.011719 C 123.199219 327.21875 123.019531 327.371094 122.808594 327.371094 Z M 122.808594 327.371094 "/>
<path style=" stroke:none;fill-rule:nonzero;fill:rgb(42.352941%,38.823529%,100%);fill-opacity:1;" d="M 130.519531 325.792969 C 130.339844 325.792969 130.183594 325.6875 130.117188 325.523438 C 130.050781 325.359375 130.089844 325.171875 130.21875 325.050781 L 134.019531 321.375 L 128.910156 319.269531 C 128.769531 319.210938 128.667969 319.082031 128.648438 318.925781 C 128.625 318.773438 128.691406 318.621094 128.8125 318.527344 C 128.933594 318.433594 129.097656 318.410156 129.242188 318.472656 L 134.957031 320.828125 C 135.09375 320.882812 135.191406 321.003906 135.21875 321.144531 C 135.246094 321.289062 135.199219 321.4375 135.09375 321.539062 L 130.820312 325.671875 C 130.738281 325.75 130.628906 325.792969 130.519531 325.792969 Z M 130.519531 325.792969 "/>
<path style=" stroke:none;fill-rule:nonzero;fill:rgb(42.352941%,38.823529%,100%);fill-opacity:1;" d="M 123.988281 330.015625 C 123.945312 330.015625 123.902344 330.011719 123.863281 329.996094 C 123.753906 329.964844 123.660156 329.886719 123.605469 329.785156 C 123.554688 329.683594 123.542969 329.566406 123.574219 329.457031 L 127.566406 316.480469 C 127.640625 316.253906 127.878906 316.125 128.109375 316.195312 C 128.335938 316.265625 128.464844 316.507812 128.394531 316.738281 L 124.402344 329.710938 C 124.347656 329.894531 124.179688 330.015625 123.988281 330.015625 Z M 123.988281 330.015625 "/>
</g>
</svg>
