<?xml version="1.0" encoding="UTF-8"?>
<svg xmlns="http://www.w3.org/2000/svg" xmlns:xlink="http://www.w3.org/1999/xlink" width="500px" height="500px" viewBox="0 0 500 500" version="1.1">
<g id="surface1">
<path style=" stroke:none;fill-rule:nonzero;fill:rgb(94.901961%,94.901961%,94.901961%);fill-opacity:1;" d="M 89.796875 482.734375 C 88.417969 482.859375 87.65625 480.371094 88.699219 478.921875 L 88.804688 478.324219 C 88.789062 478.277344 88.777344 478.230469 88.761719 478.179688 C 87.367188 473.351562 82.640625 473.386719 81.257812 478.222656 C 80.03125 482.511719 78.46875 486.808594 78.082031 491.347656 C 77.910156 493.351562 77.988281 495.390625 78.292969 497.355469 C 75.417969 488.238281 73.90625 478.277344 73.90625 468.265625 C 73.90625 465.75 74 463.234375 74.195312 460.722656 C 74.351562 458.671875 74.574219 456.628906 74.859375 454.609375 C 76.398438 443.679688 79.730469 433.273438 84.539062 424.582031 C 86.847656 422.746094 88.777344 419.878906 89.941406 416.445312 C 90.359375 415.203125 90.6875 413.871094 90.839844 412.515625 C 90.578125 412.5625 89.847656 406.75 90.046875 406.394531 C 89.679688 405.585938 89.023438 405.183594 88.625 404.394531 C 86.632812 400.476562 83.890625 401.164062 82.457031 406.488281 C 79.398438 408.726562 79.371094 412.445312 81.246094 416.019531 C 82.441406 418.292969 82.605469 421.371094 83.652344 423.804688 C 83.546875 424.003906 83.433594 424.199219 83.324219 424.398438 C 81.347656 428.078125 79.640625 432.035156 78.199219 436.191406 C 78.605469 431.570312 78.003906 426.007812 76.980469 422.421875 C 75.8125 418.335938 73.625 414.894531 71.699219 411.359375 C 69.382812 407.117188 64.640625 408.96875 64.230469 414.347656 C 64.226562 414.398438 64.222656 414.453125 64.21875 414.503906 C 64.507812 414.738281 64.785156 414.988281 65.0625 415.25 C 66.621094 416.75 66.082031 420.261719 64.230469 420.679688 L 64.191406 420.6875 C 64.292969 422.183594 64.46875 423.667969 64.730469 425.125 C 62.257812 438.996094 67.59375 444.050781 75.210938 444.277344 C 75.378906 444.402344 75.542969 444.527344 75.710938 444.644531 C 74.9375 447.800781 74.324219 451.035156 73.867188 454.316406 C 73.457031 457.210938 73.171875 460.140625 73.011719 463.082031 C 72.8125 466.792969 72.832031 470.523438 73.046875 474.230469 L 73.035156 474.097656 C 72.484375 470.019531 70.960938 466.207031 68.742188 463.566406 C 65.441406 459.628906 60.777344 458.179688 57.214844 455.015625 C 55.5 453.492188 53.304688 455.460938 53.605469 458.34375 L 53.617188 458.484375 C 54.148438 458.796875 54.664062 459.160156 55.167969 459.566406 C 55.453125 459.800781 55.734375 460.050781 56.007812 460.3125 C 57.566406 461.8125 57.027344 465.324219 55.179688 465.738281 L 55.136719 465.75 C 55.105469 465.753906 55.078125 465.761719 55.050781 465.769531 C 55.960938 468.902344 57.226562 471.8125 58.8125 474.324219 C 60.359375 486.433594 66.996094 487.582031 74.09375 484.054688 L 74.097656 484.054688 C 74.875 488.960938 76.007812 493.757812 77.464844 498.324219 L 89.496094 498.324219 C 89.539062 498.132812 89.578125 497.929688 89.617188 497.738281 C 88.503906 497.835938 87.382812 497.742188 86.289062 497.449219 C 87.179688 495.859375 88.074219 494.257812 88.964844 492.667969 C 88.988281 492.636719 89.003906 492.605469 89.019531 492.574219 C 89.472656 491.761719 89.929688 490.953125 90.382812 490.140625 L 90.382812 490.136719 C 90.414062 487.640625 90.207031 485.152344 89.796875 482.734375 Z M 89.796875 482.734375 "/>
<path style=" stroke:none;fill-rule:nonzero;fill:rgb(100%,71.764706%,71.764706%);fill-opacity:1;" d="M 426.660156 474.777344 L 420.078125 475.003906 L 416.410156 432.074219 L 426.125 431.742188 Z M 426.660156 474.777344 "/>
<path style=" stroke:none;fill-rule:nonzero;fill:rgb(18.431373%,18.039216%,25.490196%);fill-opacity:1;" d="M 404.078125 494.710938 C 404.078125 496.324219 404.867188 497.632812 405.839844 497.632812 L 418.90625 497.632812 C 418.90625 497.632812 420.191406 490.132812 425.433594 486.902344 L 425.796875 497.632812 L 432.535156 497.632812 L 431.71875 480.378906 C 431.71875 480.378906 433.523438 471.148438 429.777344 466.429688 C 426.035156 461.710938 429.066406 462.367188 429.066406 462.367188 L 427.59375 451.6875 L 417.40625 453.425781 L 417.332031 470.191406 L 412.390625 486.832031 L 405.140625 492.027344 C 404.496094 492.492188 404.078125 493.546875 404.078125 494.710938 Z M 404.078125 494.710938 "/>
<path style=" stroke:none;fill-rule:nonzero;fill:rgb(100%,71.764706%,71.764706%);fill-opacity:1;" d="M 373 473.195312 L 366.460938 474.320312 L 360.023438 432.085938 L 369.671875 430.425781 Z M 373 473.195312 "/>
<path style=" stroke:none;fill-rule:nonzero;fill:rgb(18.431373%,18.039216%,25.490196%);fill-opacity:1;" d="M 351.808594 496.128906 C 351.914062 497.734375 352.785156 498.929688 353.753906 498.796875 L 366.761719 497.011719 C 366.761719 497.011719 367.554688 489.367188 372.5625 485.433594 L 373.621094 496.066406 L 380.332031 495.148438 L 378.398438 478.082031 C 378.398438 478.082031 379.59375 468.644531 375.558594 464.457031 C 371.527344 460.273438 374.589844 460.511719 374.589844 460.511719 L 372.429688 450.082031 L 362.402344 453.203125 L 363.414062 469.902344 L 359.574219 487.144531 L 352.691406 493.3125 C 352.082031 493.859375 351.734375 494.96875 351.808594 496.128906 Z M 351.808594 496.128906 "/>
<path style=" stroke:none;fill-rule:nonzero;fill:rgb(18.431373%,18.039216%,25.490196%);fill-opacity:1;" d="M 379.722656 77.863281 C 378.957031 59.003906 378.59375 42.433594 382.390625 49.425781 C 382.390625 32.6875 391.742188 19.117188 403.273438 19.117188 C 414.804688 19.117188 424.15625 32.6875 424.15625 49.425781 L 424.15625 72.046875 C 424.152344 74.292969 422.898438 76.113281 421.351562 76.117188 L 382.527344 81.929688 C 380.980469 81.929688 379.726562 80.109375 379.722656 77.863281 Z M 379.722656 77.863281 "/>
<path style=" stroke:none;fill-rule:nonzero;fill:rgb(100%,71.764706%,71.764706%);fill-opacity:1;" d="M 413.429688 53.554688 C 413.429688 65.828125 406.578125 75.777344 398.121094 75.777344 C 389.664062 75.777344 382.8125 65.828125 382.8125 53.554688 C 382.8125 41.28125 389.664062 31.332031 398.121094 31.332031 C 406.578125 31.332031 413.429688 41.28125 413.429688 53.554688 Z M 413.429688 53.554688 "/>
<path style=" stroke:none;fill-rule:nonzero;fill:rgb(18.431373%,18.039216%,25.490196%);fill-opacity:1;" d="M 377.453125 51.234375 C 377.242188 35.34375 384.390625 21.652344 393.96875 27.257812 L 397.085938 27.257812 C 406.207031 27.273438 413.59375 38 413.605469 51.234375 L 408.484375 74.230469 L 407.019531 51.6875 L 404.773438 42.558594 L 404.324219 51.6875 L 400.917969 51.6875 C 397.988281 51.800781 395.070312 51.121094 392.28125 49.804688 C 387.183594 47.398438 382.339844 49.972656 377.453125 51.6875 Z M 377.453125 51.234375 "/>
<path style=" stroke:none;fill-rule:nonzero;fill:rgb(42.352941%,38.823529%,100%);fill-opacity:1;" d="M 407.046875 175.6875 L 368.066406 173.53125 C 368.339844 171.484375 368.195312 168.5 369.007812 168.328125 C 367.871094 164.183594 369.453125 164.144531 369.519531 162.015625 C 369.765625 153.808594 368.449219 145.289062 365.890625 136.515625 C 364.210938 129.742188 364.183594 123.921875 365.808594 119.226562 C 367.207031 115.367188 369.558594 112.417969 372.390625 110.96875 L 380.921875 96.015625 C 383.140625 92.121094 386.417969 83.722656 389.902344 83.753906 L 408.59375 82.785156 C 409.128906 82.320312 415.691406 90.511719 422.082031 94.53125 C 429.011719 98.894531 427.582031 110.808594 427.566406 110.960938 L 427.546875 111.101562 L 427.472656 111.199219 L 412.730469 129.222656 L 408.082031 167.246094 C 408.546875 169.210938 408.429688 170.683594 407.554688 171.53125 C 408.808594 172.875 407.949219 174.28125 407.046875 175.6875 Z M 407.046875 175.6875 "/>
<path style=" stroke:none;fill-rule:nonzero;fill:rgb(18.431373%,18.039216%,25.490196%);fill-opacity:1;" d="M 368.382812 169.554688 L 350.011719 249.414062 L 342.222656 340.984375 L 354.339844 448.613281 L 377.253906 443.109375 L 366.054688 358.550781 L 379.714844 273.6875 L 412.160156 442.421875 L 431.09375 443.109375 L 418.203125 248.386719 L 407.925781 173.871094 Z M 368.382812 169.554688 "/>
<path style=" stroke:none;fill-rule:nonzero;fill:rgb(90.196078%,90.196078%,90.196078%);fill-opacity:1;" d="M 0.832031 499.96875 L 499.015625 499.96875 C 499.476562 499.96875 499.851562 499.429688 499.851562 498.761719 C 499.851562 498.09375 499.476562 497.554688 499.015625 497.554688 L 0.832031 497.554688 C 0.371094 497.554688 0 498.09375 0 498.761719 C 0 499.429688 0.371094 499.96875 0.832031 499.96875 Z M 0.832031 499.96875 "/>
<path style=" stroke:none;fill-rule:nonzero;fill:rgb(24.705882%,23.921569%,33.72549%);fill-opacity:1;" d="M 213.976562 294.652344 L 205.84375 294.652344 L 205.84375 278.972656 L 213.976562 278.972656 Z M 206.511719 293.683594 L 213.308594 293.683594 L 213.308594 279.941406 L 206.511719 279.941406 Z M 206.511719 293.683594 "/>
<path style=" stroke:none;fill-rule:nonzero;fill:rgb(24.705882%,23.921569%,33.72549%);fill-opacity:1;" d="M 239.570312 294.652344 L 231.4375 294.652344 L 231.4375 278.972656 L 239.570312 278.972656 Z M 232.105469 293.683594 L 238.902344 293.683594 L 238.902344 279.941406 L 232.105469 279.941406 Z M 232.105469 293.683594 "/>
<path style=" stroke:none;fill-rule:nonzero;fill:rgb(24.705882%,23.921569%,33.72549%);fill-opacity:1;" d="M 222.707031 80.253906 C 209 80.253906 197.847656 64.066406 197.847656 44.167969 C 197.847656 24.269531 209 8.082031 222.707031 8.082031 C 236.414062 8.082031 247.566406 24.269531 247.566406 44.167969 C 247.566406 64.066406 236.414062 80.253906 222.707031 80.253906 Z M 222.707031 9.050781 C 209.367188 9.050781 198.515625 24.804688 198.515625 44.167969 C 198.515625 63.53125 209.367188 79.285156 222.707031 79.285156 C 236.046875 79.285156 246.898438 63.53125 246.898438 44.167969 C 246.898438 24.804688 236.046875 9.050781 222.707031 9.050781 Z M 222.707031 9.050781 "/>
<path style=" stroke:none;fill-rule:nonzero;fill:rgb(18.431373%,18.039216%,25.490196%);fill-opacity:1;" d="M 240.441406 22.320312 C 238.992188 23.476562 237.394531 24.191406 235.746094 24.417969 C 228.949219 25.769531 222.023438 24.640625 215.601562 21.136719 C 214.546875 25.003906 211.992188 27.667969 209.253906 28.925781 C 206.515625 30.183594 203.613281 30.246094 200.746094 30.308594 C 200.113281 30.414062 199.476562 30.238281 198.917969 29.808594 C 197.640625 28.558594 198.257812 25.6875 199.003906 23.734375 L 202.703125 14.007812 C 203.792969 11.132812 204.917969 8.199219 206.609375 6.027344 C 208.734375 3.300781 211.550781 2.023438 214.324219 1.214844 C 220.886719 -0.679688 227.664062 -0.355469 234.128906 2.171875 C 241.039062 4.800781 249.917969 14.007812 240.441406 22.320312 Z M 240.441406 22.320312 "/>
<path style=" stroke:none;fill-rule:nonzero;fill:rgb(24.705882%,23.921569%,33.72549%);fill-opacity:1;" d="M 239.777344 44.167969 C 239.777344 40.960938 238.820312 38.363281 237.640625 38.363281 C 236.460938 38.363281 235.503906 40.960938 235.503906 44.167969 C 235.503906 47.375 236.460938 49.972656 237.640625 49.972656 C 238.820312 49.972656 239.777344 47.375 239.777344 44.167969 Z M 239.777344 44.167969 "/>
<path style=" stroke:none;fill-rule:nonzero;fill:rgb(24.705882%,23.921569%,33.72549%);fill-opacity:1;" d="M 229.742188 44.167969 C 229.742188 40.960938 228.785156 38.363281 227.605469 38.363281 C 226.425781 38.363281 225.46875 40.960938 225.46875 44.167969 C 225.46875 47.375 226.425781 49.972656 227.605469 49.972656 C 228.785156 49.972656 229.742188 47.375 229.742188 44.167969 Z M 229.742188 44.167969 "/>
<path style=" stroke:none;fill-rule:nonzero;fill:rgb(24.705882%,23.921569%,33.72549%);fill-opacity:1;" d="M 195.792969 169.898438 L 191.992188 149.554688 C 189.59375 123.53125 192.074219 105.128906 199.351562 94.796875 C 206.84375 84.152344 216.890625 86.285156 216.988281 86.304688 L 217.421875 86.402344 L 217.242188 86.984375 C 217.15625 87.261719 208.574219 115 204.363281 130.257812 C 200.207031 145.34375 206.960938 168.355469 207.03125 168.585938 L 207.222656 169.234375 Z M 214.707031 87.082031 C 211.40625 87.082031 204.980469 88.152344 199.808594 95.5 C 192.699219 105.605469 190.289062 123.730469 192.644531 149.367188 L 196.296875 168.898438 L 206.230469 168.324219 C 205.125 164.378906 199.828125 144.097656 203.746094 129.898438 C 207.609375 115.878906 215.164062 91.351562 216.445312 87.191406 C 216.074219 87.140625 215.476562 87.082031 214.707031 87.082031 Z M 214.707031 87.082031 "/>
<path style=" stroke:none;fill-rule:nonzero;fill:rgb(24.705882%,23.921569%,33.72549%);fill-opacity:1;" d="M 249.621094 169.898438 L 238.1875 169.234375 L 238.382812 168.585938 C 238.449219 168.355469 245.207031 145.335938 241.046875 130.257812 C 236.839844 115 228.253906 87.261719 228.167969 86.984375 L 227.988281 86.402344 L 228.421875 86.304688 C 228.523438 86.28125 238.570312 84.152344 246.0625 94.796875 C 253.335938 105.128906 255.816406 123.53125 253.429688 149.492188 Z M 239.179688 168.324219 L 249.117188 168.898438 L 252.777344 149.300781 C 255.125 123.730469 252.714844 105.605469 245.601562 95.5 C 239.234375 86.445312 230.949219 86.921875 228.964844 87.191406 C 230.25 91.351562 237.800781 115.878906 241.667969 129.898438 C 245.582031 144.097656 240.289062 164.378906 239.179688 168.324219 Z M 239.179688 168.324219 "/>
<path style=" stroke:none;fill-rule:nonzero;fill:rgb(18.431373%,18.039216%,25.490196%);fill-opacity:1;" d="M 207.78125 171.871094 C 207.78125 176.574219 205.152344 180.386719 201.910156 180.386719 C 198.671875 180.386719 196.042969 176.574219 196.042969 171.871094 C 196.042969 167.167969 198.671875 163.355469 201.910156 163.355469 C 205.152344 163.355469 207.78125 167.167969 207.78125 171.871094 Z M 207.78125 171.871094 "/>
<path style=" stroke:none;fill-rule:nonzero;fill:rgb(18.431373%,18.039216%,25.490196%);fill-opacity:1;" d="M 249.769531 171.871094 C 249.769531 176.574219 247.140625 180.386719 243.902344 180.386719 C 240.660156 180.386719 238.035156 176.574219 238.035156 171.871094 C 238.035156 167.167969 240.660156 163.355469 243.902344 163.355469 C 247.140625 163.355469 249.769531 167.167969 249.769531 171.871094 Z M 249.769531 171.871094 "/>
<path style=" stroke:none;fill-rule:nonzero;fill:rgb(18.431373%,18.039216%,25.490196%);fill-opacity:1;" d="M 217.6875 300.804688 L 201.578125 300.804688 L 201.578125 297.664062 C 201.578125 292.054688 204.722656 287.492188 208.585938 287.492188 L 210.675781 287.492188 C 214.542969 287.492188 217.6875 292.054688 217.6875 297.664062 Z M 217.6875 300.804688 "/>
<path style=" stroke:none;fill-rule:nonzero;fill:rgb(18.431373%,18.039216%,25.490196%);fill-opacity:1;" d="M 243.8125 300.804688 L 227.707031 300.804688 L 227.707031 297.664062 C 227.707031 292.054688 230.851562 287.492188 234.714844 287.492188 L 236.804688 287.492188 C 240.667969 287.492188 243.8125 292.054688 243.8125 297.664062 Z M 243.8125 300.804688 "/>
<path style=" stroke:none;fill-rule:nonzero;fill:rgb(24.705882%,23.921569%,33.72549%);fill-opacity:1;" d="M 169.480469 334.714844 L 275.933594 334.714844 C 276.03125 334.714844 276.109375 334.171875 276.109375 333.503906 C 276.109375 332.835938 276.03125 332.296875 275.933594 332.296875 L 169.480469 332.296875 C 169.382812 332.296875 169.300781 332.835938 169.300781 333.503906 C 169.300781 334.171875 169.382812 334.714844 169.480469 334.714844 Z M 169.480469 334.714844 "/>
<path style=" stroke:none;fill-rule:nonzero;fill:rgb(100%,71.372549%,71.372549%);fill-opacity:1;" d="M 401.285156 234.171875 C 399.707031 240.070312 396.332031 243.667969 393.746094 242.207031 C 391.160156 240.75 390.34375 234.789062 391.925781 228.890625 C 392.617188 226.3125 393.652344 224.171875 394.8125 222.703125 L 401.71875 197.839844 L 409.6875 202.792969 L 402.035156 226.777344 C 402.207031 229 401.976562 231.59375 401.285156 234.171875 Z M 401.285156 234.171875 "/>
<path style=" stroke:none;fill-rule:nonzero;fill:rgb(42.352941%,38.823529%,100%);fill-opacity:1;" d="M 411.273438 89.417969 C 411.273438 89.417969 428.796875 94.097656 427.933594 105.742188 C 427.070312 117.382812 414.425781 181.21875 414.425781 181.21875 L 406.09375 222.5 L 395.265625 217.199219 L 403.289062 156.621094 Z M 411.273438 89.417969 "/>
<path style=" stroke:none;fill-rule:nonzero;fill:rgb(100%,71.372549%,71.372549%);fill-opacity:1;" d="M 312.550781 125.726562 C 314.0625 126.640625 315.3125 127.972656 316.15625 129.449219 L 330.960938 136.816406 L 328.339844 146.9375 L 313.605469 138.375 C 312.285156 138.550781 310.757812 138.207031 309.242188 137.296875 C 305.785156 135.214844 303.71875 130.933594 304.632812 127.738281 C 305.546875 124.542969 309.089844 123.644531 312.550781 125.726562 Z M 312.550781 125.726562 "/>
<path style=" stroke:none;fill-rule:nonzero;fill:rgb(42.352941%,38.823529%,100%);fill-opacity:1;" d="M 396.402344 96.953125 L 362.636719 163.113281 L 323.054688 147.292969 L 324.773438 132.304688 L 354.914062 140.589844 L 371.730469 103.066406 C 377.21875 87.660156 388.042969 84.558594 396.402344 96.953125 Z M 396.402344 96.953125 "/>
<path style=" stroke:none;fill-rule:nonzero;fill:rgb(90.196078%,90.196078%,90.196078%);fill-opacity:1;" d="M 296.890625 118.054688 L 325.703125 137.515625 C 326.042969 137.75 326.1875 138.335938 326.027344 138.824219 C 325.878906 139.273438 325.523438 139.492188 325.199219 139.335938 L 296.121094 124.890625 Z M 296.890625 118.054688 "/>
<path style=" stroke:none;fill-rule:nonzero;fill:rgb(42.352941%,38.823529%,100%);fill-opacity:1;" d="M 297.148438 115.308594 C 299.269531 117.878906 299.746094 122.128906 298.210938 124.800781 C 296.675781 127.472656 294.992188 129.101562 292.871094 126.53125 C 291.332031 124.667969 290.824219 123.296875 289.816406 122.40625 C 287.859375 120.679688 285.109375 118.859375 286.121094 117.097656 C 286.832031 115.863281 288.78125 114.84375 290.894531 114.34375 C 293.34375 113.777344 296.003906 113.921875 297.148438 115.308594 Z M 297.148438 115.308594 "/>
<path style=" stroke:none;fill-rule:nonzero;fill:rgb(24.705882%,23.921569%,33.72549%);fill-opacity:1;" d="M 290.894531 114.34375 C 291.867188 116.433594 291.816406 119.289062 290.648438 121.320312 C 290.402344 121.75 290.125 122.109375 289.816406 122.40625 C 287.859375 120.679688 285.109375 118.859375 286.121094 117.097656 C 286.832031 115.863281 288.78125 114.84375 290.894531 114.34375 Z M 290.894531 114.34375 "/>
</g>
</svg>
