<?xml version="1.0" encoding="UTF-8"?>
<svg xmlns="http://www.w3.org/2000/svg" xmlns:xlink="http://www.w3.org/1999/xlink" width="500px" height="500px" viewBox="0 0 500 500" version="1.1">
<defs>
<filter id="alpha" filterUnits="objectBoundingBox" x="0%" y="0%" width="100%" height="100%">
  <feColorMatrix type="matrix" in="SourceGraphic" values="0 0 0 0 1 0 0 0 0 1 0 0 0 0 1 0 0 0 1 0"/>
</filter>
<mask id="mask0">
  <g filter="url(#alpha)">
<rect x="0" y="0" width="500" height="500" style="fill:rgb(0%,0%,0%);fill-opacity:0.2;stroke:none;"/>
  </g>
</mask>
<clipPath id="clip1">
  <rect x="0" y="0" width="500" height="500"/>
</clipPath>
<g id="surface5" clip-path="url(#clip1)">
<path style=" stroke:none;fill-rule:nonzero;fill:rgb(0%,0%,0%);fill-opacity:1;" d="M 228.425781 237.394531 L 226.195312 255.253906 L 241.289062 263.242188 Z M 228.425781 237.394531 "/>
</g>
<mask id="mask1">
  <g filter="url(#alpha)">
<rect x="0" y="0" width="500" height="500" style="fill:rgb(0%,0%,0%);fill-opacity:0.2;stroke:none;"/>
  </g>
</mask>
<clipPath id="clip2">
  <rect x="0" y="0" width="500" height="500"/>
</clipPath>
<g id="surface8" clip-path="url(#clip2)">
<path style=" stroke:none;fill-rule:nonzero;fill:rgb(0%,0%,0%);fill-opacity:1;" d="M 218.867188 271.734375 C 226.957031 283.753906 240.359375 287.230469 251.453125 280.1875 L 254.671875 278.144531 Z M 218.867188 271.734375 "/>
</g>
</defs>
<g id="surface1">
<path style=" stroke:none;fill-rule:nonzero;fill:rgb(94.117647%,94.117647%,94.117647%);fill-opacity:1;" d="M 146.511719 417.761719 L 146.457031 406.304688 L 145.671875 236.285156 L 145.640625 229.921875 L 145.207031 136.34375 C 138.703125 131.089844 131.910156 126.445312 124.882812 122.445312 C 97.359375 106.804688 64.628906 100.355469 37.527344 117.164062 C 23.058594 126.488281 11.867188 142.472656 6.183594 161.925781 C 6.023438 162.441406 5.878906 162.9375 5.742188 163.4375 C 1.222656 179.976562 1.253906 197.945312 7.871094 213.453125 C 19.71875 241.332031 46.207031 251.625 69.734375 261.464844 C 93.25 271.300781 119.328125 287.320312 125.191406 318.160156 C 115.136719 302.300781 99.191406 294.640625 83.492188 298.128906 C 67.792969 301.613281 54.78125 315.699219 49.464844 334.972656 C 49.035156 336.511719 48.644531 338.070312 48.300781 339.644531 C 47.480469 343.425781 46.988281 347.308594 46.832031 351.226562 C 45.683594 381.125 63.542969 407.914062 84.734375 420.460938 C 103.898438 431.789062 125.402344 433.949219 146.589844 435.039062 Z M 146.511719 417.761719 "/>
<path style=" stroke:none;fill-rule:nonzero;fill:rgb(100%,100%,100%);fill-opacity:1;" d="M 146.457031 406.304688 L 146.511719 417.761719 C 136.921875 386.222656 117.699219 361.089844 93.304688 348.195312 C 79.039062 340.835938 63.617188 337.90625 48.300781 339.644531 C 48.644531 338.070312 49.035156 336.511719 49.464844 334.972656 C 55.417969 334.429688 61.390625 334.542969 67.328125 335.316406 C 88.511719 338.085938 108.4375 349.523438 124.160156 367.945312 C 133.378906 378.851562 140.9375 391.859375 146.457031 406.304688 Z M 146.457031 406.304688 "/>
<path style=" stroke:none;fill-rule:nonzero;fill:rgb(100%,100%,100%);fill-opacity:1;" d="M 145.640625 229.921875 L 145.671875 236.285156 C 140.703125 230.144531 135.347656 224.542969 129.65625 219.546875 C 111.972656 203.925781 91.996094 192.125 71.71875 183.285156 C 50.941406 174.183594 29.371094 168.378906 7.492188 166.003906 C 6.46875 165.882812 5.699219 164.753906 5.742188 163.4375 C 5.730469 162.878906 5.886719 162.335938 6.183594 161.925781 C 6.5 161.539062 6.941406 161.371094 7.371094 161.46875 C 10.070312 161.753906 12.753906 162.070312 15.453125 162.464844 C 37.851562 165.707031 59.847656 172.511719 80.933594 182.71875 C 101.289062 192.53125 121.417969 205.199219 138.625 222.410156 C 141.046875 224.78125 143.394531 227.277344 145.640625 229.921875 Z M 145.640625 229.921875 "/>
<path style=" stroke:none;fill-rule:nonzero;fill:rgb(94.117647%,94.117647%,94.117647%);fill-opacity:1;" d="M 36.109375 78.894531 C 36.109375 84.203125 32.753906 88.511719 28.613281 88.511719 C 24.476562 88.511719 21.121094 84.203125 21.121094 78.894531 C 21.121094 73.582031 24.476562 69.277344 28.613281 69.277344 C 32.753906 69.277344 36.109375 73.582031 36.109375 78.894531 Z M 36.109375 78.894531 "/>
<path style=" stroke:none;fill-rule:nonzero;fill:rgb(24.705882%,23.921569%,33.72549%);fill-opacity:1;" d="M 335.835938 118.777344 L 333.695312 118.777344 L 333.695312 43.542969 C 333.695312 19.496094 318.5 0 299.757812 0 L 175.535156 0 C 156.792969 0 141.601562 19.496094 141.601562 43.542969 L 141.601562 456.285156 C 141.601562 480.335938 156.792969 499.828125 175.535156 499.828125 L 299.757812 499.828125 C 318.5 499.828125 333.695312 480.335938 333.695312 456.285156 L 333.695312 172.332031 L 335.835938 172.332031 Z M 335.835938 118.777344 "/>
<path style=" stroke:none;fill-rule:nonzero;fill:rgb(100%,100%,100%);fill-opacity:1;" d="M 326.472656 43.847656 L 326.472656 455.988281 C 326.472656 456.589844 326.460938 457.183594 326.429688 457.777344 C 325.691406 475.015625 314.582031 488.507812 301.125 488.5 L 176.308594 488.5 C 162.816406 488.507812 151.691406 474.945312 151.003906 457.65625 C 150.980469 457.109375 150.96875 456.550781 150.96875 455.988281 L 150.96875 43.847656 C 150.964844 25.886719 162.3125 11.328125 176.308594 11.324219 L 191.453125 11.324219 C 189.941406 16.089844 190.371094 21.507812 192.609375 25.777344 C 194.84375 30.046875 198.589844 32.609375 202.597656 32.613281 L 273.765625 32.613281 C 277.777344 32.609375 281.519531 30.046875 283.757812 25.777344 C 285.992188 21.507812 286.425781 16.089844 284.910156 11.324219 L 301.125 11.324219 C 315.125 11.328125 326.472656 25.886719 326.472656 43.847656 Z M 326.472656 43.847656 "/>
<path style=" stroke:none;fill-rule:nonzero;fill:rgb(94.117647%,94.117647%,94.117647%);fill-opacity:1;" d="M 324.167969 354.667969 L 153.269531 354.667969 C 152.019531 354.667969 151.003906 353.367188 151.003906 351.761719 L 151.003906 82.730469 C 151.003906 81.128906 152.019531 79.828125 153.269531 79.828125 L 324.167969 79.828125 C 325.417969 79.828125 326.429688 81.128906 326.433594 82.730469 L 326.433594 351.761719 C 326.429688 353.367188 325.417969 354.667969 324.167969 354.667969 Z M 324.167969 354.667969 "/>
<path style=" stroke:none;fill-rule:nonzero;fill:rgb(100%,100%,100%);fill-opacity:1;" d="M 311.625 98.597656 L 166.160156 98.597656 C 164.910156 98.601562 163.898438 99.902344 163.894531 101.507812 L 163.894531 295.894531 C 163.898438 297.5 164.914062 298.796875 166.160156 298.796875 L 311.625 298.796875 C 312.875 298.796875 313.886719 297.5 313.890625 295.894531 L 313.890625 101.507812 C 313.890625 99.902344 312.875 98.601562 311.625 98.597656 Z M 311.625 98.597656 "/>
<path style=" stroke:none;fill-rule:nonzero;fill:rgb(42.352941%,38.823529%,100%);fill-opacity:1;" d="M 169.507812 62.5 C 169.507812 66.660156 166.878906 70.03125 163.636719 70.03125 C 160.398438 70.03125 157.769531 66.660156 157.769531 62.5 C 157.769531 58.339844 160.398438 54.96875 163.636719 54.96875 C 166.878906 54.96875 169.507812 58.339844 169.507812 62.5 Z M 169.507812 62.5 "/>
<path style=" stroke:none;fill-rule:nonzero;fill:rgb(94.117647%,94.117647%,94.117647%);fill-opacity:1;" d="M 191.550781 308.378906 C 181.53125 287.671875 184.984375 261.214844 186.671875 236.933594 C 189.191406 200.503906 186.917969 163.792969 179.945312 128.332031 C 188.25 140.230469 193.726562 154.925781 195.734375 170.6875 C 197.390625 183.832031 196.574219 197.355469 198.445312 210.449219 C 202.464844 238.527344 218.648438 263.851562 216.140625 292.214844 C 215.589844 298.488281 213.726562 305.230469 209.386719 308.203125 C 204.492188 311.554688 198.511719 308.886719 193.375 306.1875 "/>
<path style=" stroke:none;fill-rule:nonzero;fill:rgb(42.352941%,38.823529%,100%);fill-opacity:1;" d="M 174.640625 316.976562 C 172.355469 314.03125 168.640625 314.019531 166.34375 316.949219 C 164.046875 319.882812 164.039062 324.648438 166.324219 327.59375 L 166.34375 327.621094 L 174.640625 338.265625 L 182.9375 327.621094 C 185.214844 324.679688 185.210938 319.921875 182.925781 316.988281 C 180.636719 314.054688 176.933594 314.050781 174.640625 316.976562 Z M 174.640625 316.976562 "/>
<path style=" stroke:none;fill-rule:nonzero;fill:rgb(42.352941%,38.823529%,100%);fill-opacity:1;" d="M 200.460938 316.976562 C 198.175781 314.03125 194.460938 314.019531 192.164062 316.949219 C 189.867188 319.882812 189.859375 324.648438 192.144531 327.59375 L 192.164062 327.621094 L 200.460938 338.265625 L 208.757812 327.621094 C 211.039062 324.679688 211.035156 319.921875 208.746094 316.988281 C 206.460938 314.054688 202.753906 314.050781 200.460938 316.976562 Z M 200.460938 316.976562 "/>
<path style=" stroke:none;fill-rule:nonzero;fill:rgb(42.352941%,38.823529%,100%);fill-opacity:1;" d="M 226.28125 316.976562 C 223.996094 314.03125 220.285156 314.019531 217.988281 316.949219 C 215.691406 319.882812 215.679688 324.648438 217.964844 327.59375 L 217.984375 327.621094 L 226.28125 338.265625 L 234.578125 327.621094 C 236.859375 324.679688 236.855469 319.921875 234.566406 316.988281 C 232.28125 314.054688 228.574219 314.050781 226.28125 316.976562 Z M 226.28125 316.976562 "/>
<path style=" stroke:none;fill-rule:nonzero;fill:rgb(42.352941%,38.823529%,100%);fill-opacity:1;" d="M 271.894531 68.40625 L 189.136719 68.40625 C 187.519531 68.40625 186.023438 67.300781 185.210938 65.503906 C 184.402344 63.703125 184.402344 61.488281 185.210938 59.6875 C 186.023438 57.890625 187.519531 56.78125 189.136719 56.785156 L 271.894531 56.785156 C 273.511719 56.78125 275.007812 57.890625 275.820312 59.6875 C 276.628906 61.488281 276.628906 63.703125 275.820312 65.503906 C 275.007812 67.300781 273.511719 68.40625 271.894531 68.40625 Z M 271.894531 68.40625 "/>
<path style=" stroke:none;fill-rule:nonzero;fill:rgb(94.117647%,94.117647%,94.117647%);fill-opacity:1;" d="M 324.164062 405.128906 L 153.269531 405.128906 C 152.015625 405.128906 151.003906 406.429688 151.003906 408.035156 L 151.003906 457.65625 C 151.691406 474.945312 162.816406 488.507812 176.308594 488.5 L 301.125 488.5 C 314.582031 488.507812 325.691406 475.015625 326.429688 457.777344 L 326.429688 408.035156 C 326.429688 406.429688 325.417969 405.128906 324.164062 405.128906 Z M 324.164062 405.128906 "/>
<path style=" stroke:none;fill-rule:nonzero;fill:rgb(100%,100%,100%);fill-opacity:1;" d="M 311.625 423.902344 L 166.160156 423.902344 C 164.910156 423.902344 163.898438 425.203125 163.894531 426.808594 L 163.894531 484.335938 C 167.683594 487.074219 171.960938 488.511719 176.308594 488.5 L 301.125 488.5 C 305.609375 488.507812 310.015625 486.984375 313.890625 484.082031 L 313.890625 426.808594 C 313.890625 425.203125 312.875 423.902344 311.625 423.902344 Z M 311.625 423.902344 "/>
<path style=" stroke:none;fill-rule:nonzero;fill:rgb(89.411765%,89.411765%,89.411765%);fill-opacity:1;" d="M 169.507812 387.800781 C 169.507812 391.960938 166.878906 395.332031 163.636719 395.332031 C 160.398438 395.332031 157.769531 391.960938 157.769531 387.800781 C 157.769531 383.640625 160.398438 380.269531 163.636719 380.269531 C 166.878906 380.269531 169.507812 383.640625 169.507812 387.800781 Z M 169.507812 387.800781 "/>
<path style=" stroke:none;fill-rule:nonzero;fill:rgb(89.411765%,89.411765%,89.411765%);fill-opacity:1;" d="M 271.894531 393.707031 L 189.136719 393.707031 C 187.519531 393.710938 186.023438 392.601562 185.210938 390.804688 C 184.402344 389.003906 184.402344 386.789062 185.210938 384.988281 C 186.023438 383.191406 187.519531 382.082031 189.136719 382.085938 L 271.894531 382.085938 C 273.511719 382.082031 275.007812 383.191406 275.820312 384.988281 C 276.628906 386.789062 276.628906 389.003906 275.820312 390.804688 C 275.007812 392.601562 273.511719 393.710938 271.894531 393.707031 Z M 271.894531 393.707031 "/>
<path style=" stroke:none;fill-rule:nonzero;fill:rgb(94.901961%,94.901961%,94.901961%);fill-opacity:1;" d="M 225.117188 488.5 L 182.117188 488.5 C 186.496094 477.449219 194.578125 468.441406 204.101562 467.96875 C 205.535156 467.898438 206.972656 468.035156 208.386719 468.375 C 208.976562 468.507812 209.558594 468.691406 210.140625 468.886719 C 217.585938 471.34375 223.355469 478.898438 225.117188 488.5 Z M 225.117188 488.5 "/>
<path style=" stroke:none;fill-rule:nonzero;fill:rgb(94.901961%,94.901961%,94.901961%);fill-opacity:1;" d="M 293.890625 488.5 L 235.503906 488.5 C 236.402344 485.0625 237.164062 481.570312 237.785156 478.035156 C 240.410156 463.492188 243.082031 447.167969 252.757812 438.902344 C 258.144531 434.292969 264.699219 433.539062 270.914062 435.574219 C 271.101562 435.632812 271.296875 435.699219 271.484375 435.777344 C 278.8125 438.382812 285.105469 444.449219 289.101562 452.757812 C 294.046875 463.402344 295.152344 476.070312 293.890625 488.5 Z M 293.890625 488.5 "/>
<path style=" stroke:none;fill-rule:nonzero;fill:rgb(100%,100%,100%);fill-opacity:1;" d="M 210.746094 479.625 C 210.714844 482.597656 210.511719 485.566406 210.128906 488.5 L 208.449219 488.5 C 209.332031 481.835938 209.308594 475.027344 208.386719 468.375 C 208.976562 468.507812 209.558594 468.691406 210.140625 468.886719 C 210.585938 472.433594 210.785156 476.027344 210.746094 479.625 Z M 210.746094 479.625 "/>
<path style=" stroke:none;fill-rule:nonzero;fill:rgb(100%,100%,100%);fill-opacity:1;" d="M 271.699219 436.46875 C 271.707031 438.09375 271.699219 439.730469 271.664062 441.363281 C 271.40625 454.945312 269.828125 468.4375 266.972656 481.519531 C 266.464844 483.855469 265.921875 486.183594 265.332031 488.5 L 263.609375 488.5 C 264.664062 484.375 265.585938 480.195312 266.382812 476.007812 C 268.851562 463.160156 270.082031 449.96875 270.046875 436.730469 C 270.046875 436.109375 270.429688 435.601562 270.914062 435.574219 C 271.117188 435.542969 271.320312 435.617188 271.484375 435.777344 C 271.636719 435.949219 271.71875 436.207031 271.699219 436.46875 Z M 271.699219 436.46875 "/>
<path style=" stroke:none;fill-rule:nonzero;fill:rgb(94.901961%,94.901961%,94.901961%);fill-opacity:1;" d="M 306.214844 445.832031 C 306.214844 448.328125 304.640625 450.351562 302.695312 450.351562 C 300.75 450.351562 299.171875 448.328125 299.171875 445.832031 C 299.171875 443.335938 300.75 441.3125 302.695312 441.3125 C 304.640625 441.3125 306.214844 443.335938 306.214844 445.832031 Z M 306.214844 445.832031 "/>
<path style=" stroke:none;fill-rule:nonzero;fill:rgb(42.352941%,38.823529%,100%);fill-opacity:1;" d="M 221.816406 116.113281 C 221.816406 118.609375 220.238281 120.628906 218.292969 120.628906 C 216.347656 120.628906 214.773438 118.609375 214.773438 116.113281 C 214.773438 113.617188 216.347656 111.59375 218.292969 111.59375 C 220.238281 111.59375 221.816406 113.617188 221.816406 116.113281 Z M 221.816406 116.113281 "/>
<path style=" stroke:none;fill-rule:nonzero;fill:rgb(89.411765%,89.411765%,89.411765%);fill-opacity:1;" d="M 286.957031 142.46875 C 286.957031 144.964844 285.378906 146.984375 283.433594 146.984375 C 281.488281 146.984375 279.914062 144.964844 279.914062 142.46875 C 279.914062 139.972656 281.488281 137.949219 283.433594 137.949219 C 285.378906 137.949219 286.957031 139.972656 286.957031 142.46875 Z M 286.957031 142.46875 "/>
<path style=" stroke:none;fill-rule:nonzero;fill:rgb(89.411765%,89.411765%,89.411765%);fill-opacity:1;" d="M 285.195312 234.335938 C 285.195312 236.832031 283.617188 238.855469 281.675781 238.855469 C 279.730469 238.855469 278.152344 236.832031 278.152344 234.335938 C 278.152344 231.839844 279.730469 229.816406 281.675781 229.816406 C 283.617188 229.816406 285.195312 231.839844 285.195312 234.335938 Z M 285.195312 234.335938 "/>
<path style=" stroke:none;fill-rule:nonzero;fill:rgb(24.705882%,23.921569%,33.72549%);fill-opacity:1;" d="M 266.089844 281.914062 L 263.707031 272.125 C 263.296875 269.84375 262.777344 267.601562 262.152344 265.40625 C 259.464844 254.984375 253.5625 233.96875 246.605469 212.011719 L 238.425781 201.511719 L 236.160156 199.617188 L 234.019531 197.832031 L 233.097656 198.921875 L 224.3125 209.328125 L 224.25 210.015625 L 218.507812 272.605469 C 218.507812 272.605469 218.492188 272.777344 218.460938 273.117188 C 218.398438 273.847656 218.261719 275.339844 218.085938 277.46875 C 217.75 281.476562 217.210938 288.472656 216.675781 297.289062 L 269.828125 297.289062 Z M 266.089844 281.914062 "/>
<use xlink:href="#surface5" mask="url(#mask0)"/>
<path style=" stroke:none;fill-rule:nonzero;fill:rgb(18.431373%,18.039216%,25.490196%);fill-opacity:1;" d="M 255.449219 157.492188 C 249.835938 149.625 241.03125 146.988281 233.285156 150.855469 C 225.535156 154.71875 220.433594 164.292969 220.433594 174.960938 L 220.433594 194.261719 C 220.433594 196.183594 221.648438 197.738281 223.144531 197.742188 L 258.046875 197.742188 C 259.539062 197.738281 260.75 196.179688 260.75 194.261719 L 260.75 174.960938 C 260.753906 168.492188 258.859375 162.257812 255.449219 157.492188 Z M 255.449219 157.492188 "/>
<path style=" stroke:none;fill-rule:nonzero;fill:rgb(100%,72.156863%,72.156863%);fill-opacity:1;" d="M 259.226562 177.613281 C 259.226562 188.085938 252.609375 196.574219 244.445312 196.574219 C 236.285156 196.574219 229.667969 188.085938 229.667969 177.613281 C 229.667969 167.140625 236.285156 158.648438 244.445312 158.648438 C 252.609375 158.648438 259.226562 167.140625 259.226562 177.613281 Z M 259.226562 177.613281 "/>
<path style=" stroke:none;fill-rule:nonzero;fill:rgb(18.431373%,18.039216%,25.490196%);fill-opacity:1;" d="M 255.449219 157.492188 C 253.582031 156.535156 251.589844 156.042969 249.578125 156.046875 L 246.566406 156.046875 C 241.421875 156.046875 236.597656 159.238281 233.609375 164.609375 C 233.507812 164.773438 233.421875 164.949219 233.332031 165.113281 C 231.5625 168.476562 230.617188 172.445312 230.621094 176.507812 L 230.621094 176.890625 L 236.976562 176.890625 L 239.148438 169.097656 L 239.582031 176.890625 L 242.867188 176.890625 L 243.960938 172.960938 L 244.175781 176.890625 C 251.050781 180.148438 258.179688 179.941406 265.519531 176.890625 L 265.519531 176.507812 C 265.515625 168.121094 261.523438 160.585938 255.449219 157.492188 Z M 255.449219 157.492188 "/>
<path style=" stroke:none;fill-rule:nonzero;fill:rgb(18.431373%,18.039216%,25.490196%);fill-opacity:1;" d="M 246.449219 196.402344 C 246.433594 196.355469 246.417969 196.3125 246.402344 196.273438 C 244.414062 191.40625 241.917969 183.960938 241.777344 176.890625 C 241.695312 172.664062 242.457031 168.570312 244.675781 165.25 L 245.097656 164.609375 L 227.898438 164.609375 L 227.898438 197.75 L 233.097656 198.921875 L 236.160156 199.617188 L 243.527344 201.289062 C 243.683594 201.324219 243.847656 201.339844 244.007812 201.339844 C 244.871094 201.339844 245.683594 200.808594 246.191406 199.910156 C 246.550781 199.285156 246.734375 198.519531 246.707031 197.742188 C 246.695312 197.277344 246.609375 196.820312 246.449219 196.402344 Z M 246.449219 196.402344 "/>
<use xlink:href="#surface8" mask="url(#mask1)"/>
<path style=" stroke:none;fill-rule:nonzero;fill:rgb(62.745098%,38.039216%,41.568627%);fill-opacity:1;" d="M 385.535156 328.835938 C 385.632812 326.199219 386.636719 323.753906 388.273438 322.15625 C 389.910156 320.5625 392.011719 319.976562 394.019531 320.5625 L 403.207031 303.949219 L 412.4375 308.652344 L 399.203125 331.878906 C 398.191406 336.230469 394.804688 338.925781 391.316406 338.148438 C 387.828125 337.371094 385.34375 333.367188 385.535156 328.835938 Z M 385.535156 328.835938 "/>
<path style=" stroke:none;fill-rule:nonzero;fill:rgb(24.705882%,23.921569%,33.72549%);fill-opacity:1;" d="M 395.613281 314.546875 L 411.949219 279.292969 L 405.296875 256.519531 L 414.359375 225.503906 L 414.695312 225.6875 C 414.914062 225.808594 420.0625 228.757812 420.828125 239.320312 L 431.242188 281.324219 L 403.441406 327.601562 Z M 395.613281 314.546875 "/>
<path style=" stroke:none;fill-rule:nonzero;fill:rgb(62.745098%,38.039216%,41.568627%);fill-opacity:1;" d="M 306.894531 184.945312 C 308.9375 185.273438 310.757812 186.746094 311.871094 188.960938 C 312.984375 191.179688 313.277344 193.917969 312.664062 196.4375 L 324.863281 209.476562 L 320.496094 220.917969 L 303.472656 202.195312 C 300.167969 200.566406 298.339844 196.019531 299.210938 191.621094 C 300.085938 187.21875 303.386719 184.351562 306.894531 184.945312 Z M 306.894531 184.945312 "/>
<path style=" stroke:none;fill-rule:nonzero;fill:rgb(24.705882%,23.921569%,33.72549%);fill-opacity:1;" d="M 317.21875 198.945312 L 343.347656 222.566406 L 361.554688 215.8125 L 384.957031 229.808594 L 384.785156 230.222656 C 384.675781 230.492188 381.988281 236.855469 373.722656 237.011719 L 340.277344 247.089844 L 306.46875 207.949219 Z M 317.21875 198.945312 "/>
<path style=" stroke:none;fill-rule:nonzero;fill:rgb(62.745098%,38.039216%,41.568627%);fill-opacity:1;" d="M 365.03125 486.21875 L 355.945312 486.21875 L 351.625 441.261719 L 365.03125 441.261719 Z M 365.03125 486.21875 "/>
<path style=" stroke:none;fill-rule:nonzero;fill:rgb(18.431373%,18.039216%,25.490196%);fill-opacity:1;" d="M 346.710938 482.886719 L 366.976562 482.886719 L 366.976562 497.039062 L 338.425781 497.039062 L 338.425781 493.519531 C 338.425781 487.648438 342.136719 482.886719 346.710938 482.886719 Z M 346.710938 482.886719 "/>
<path style=" stroke:none;fill-rule:nonzero;fill:rgb(62.745098%,38.039216%,41.568627%);fill-opacity:1;" d="M 401.335938 486.21875 L 392.25 486.21875 L 387.929688 441.261719 L 401.335938 441.261719 Z M 401.335938 486.21875 "/>
<path style=" stroke:none;fill-rule:nonzero;fill:rgb(18.431373%,18.039216%,25.490196%);fill-opacity:1;" d="M 383.019531 482.886719 L 403.28125 482.886719 L 403.28125 497.039062 L 374.734375 497.039062 L 374.734375 493.519531 C 374.734375 487.648438 378.441406 482.886719 383.019531 482.886719 Z M 383.019531 482.886719 "/>
<path style=" stroke:none;fill-rule:nonzero;fill:rgb(18.431373%,18.039216%,25.490196%);fill-opacity:1;" d="M 404.566406 322.117188 L 403.824219 388.667969 L 403.082031 476.136719 L 386.78125 474.234375 L 378.632812 353.492188 L 368.261719 474.234375 L 351.429688 474.234375 L 349.738281 352.542969 L 355.664062 325.921875 Z M 404.566406 322.117188 "/>
<path style=" stroke:none;fill-rule:nonzero;fill:rgb(24.705882%,23.921569%,33.72549%);fill-opacity:1;" d="M 354.039062 326.328125 L 351.554688 326.191406 L 363.089844 244.65625 L 358.367188 220.015625 C 357.859375 217.359375 358.980469 214.640625 360.972656 213.679688 L 369.46875 209.589844 L 372.472656 198.996094 L 396.15625 202.273438 L 396.738281 210.550781 C 399.308594 211.605469 420.441406 220.640625 418.984375 230.929688 C 417.546875 241.089844 409.046875 273.046875 408.613281 274.667969 L 407.125 320.5 L 406.941406 320.617188 C 406.722656 320.757812 390.398438 331.058594 372.660156 331.054688 C 366.414062 331.054688 359.992188 329.777344 354.039062 326.328125 Z M 354.039062 326.328125 "/>
<path style=" stroke:none;fill-rule:nonzero;fill:rgb(62.745098%,38.039216%,41.568627%);fill-opacity:1;" d="M 391.566406 152.671875 C 399.832031 158.46875 402.867188 171.765625 398.351562 182.367188 C 393.832031 192.972656 383.472656 196.871094 375.207031 191.074219 C 366.941406 185.277344 363.90625 171.980469 368.421875 161.375 C 372.941406 150.773438 383.300781 146.875 391.566406 152.671875 Z M 391.566406 152.671875 "/>
<path style=" stroke:none;fill-rule:nonzero;fill:rgb(18.431373%,18.039216%,25.490196%);fill-opacity:1;" d="M 397.199219 193.054688 C 393.949219 197.496094 387.914062 195.113281 387.492188 189.042969 C 387.457031 188.574219 387.460938 188.097656 387.496094 187.628906 C 387.714844 184.941406 388.925781 182.5 388.636719 179.660156 C 388.570312 178.953125 388.367188 178.28125 388.042969 177.707031 C 385.453125 173.253906 379.371094 179.695312 376.925781 175.667969 C 375.429688 173.195312 377.191406 169.308594 376.039062 166.546875 C 374.523438 162.902344 370.027344 164.699219 367.207031 162.707031 C 364.070312 160.484375 364.257812 154.308594 366.324219 150.550781 C 368.839844 145.972656 373.257812 143.527344 377.617188 143.175781 C 381.976562 142.820312 386.308594 144.335938 390.378906 146.371094 C 395.003906 148.683594 399.589844 151.878906 402.4375 157.097656 C 405.898438 163.445312 406.234375 171.976562 404.5 179.398438 C 403.449219 183.914062 399.855469 189.425781 397.199219 193.054688 Z M 397.199219 193.054688 "/>
<path style=" stroke:none;fill-rule:nonzero;fill:rgb(24.705882%,23.921569%,33.72549%);fill-opacity:1;" d="M 499.414062 498.492188 L 0.585938 498.492188 C 0.261719 498.492188 0 498.15625 0 497.742188 C 0 497.324219 0.261719 496.988281 0.585938 496.988281 L 499.414062 496.988281 C 499.738281 496.988281 500 497.324219 500 497.742188 C 500 498.15625 499.738281 498.492188 499.414062 498.492188 Z M 499.414062 498.492188 "/>
<path style=" stroke:none;fill-rule:nonzero;fill:rgb(42.352941%,38.823529%,100%);fill-opacity:1;" d="M 273.476562 280.152344 L 264.339844 280.152344 C 263.730469 280.152344 263.222656 279.5625 263.164062 278.785156 L 261.335938 254.726562 L 276.480469 254.726562 L 274.652344 278.785156 C 274.59375 279.5625 274.085938 280.152344 273.476562 280.152344 Z M 273.476562 280.152344 "/>
<path style=" stroke:none;fill-rule:nonzero;fill:rgb(24.705882%,23.921569%,33.72549%);fill-opacity:1;" d="M 276.457031 257.753906 L 261.359375 257.753906 C 260.707031 257.75 260.179688 257.074219 260.179688 256.238281 L 260.179688 252.605469 C 260.179688 251.769531 260.707031 251.09375 261.359375 251.09375 L 276.457031 251.09375 C 277.109375 251.09375 277.636719 251.769531 277.636719 252.605469 L 277.636719 256.238281 C 277.636719 257.074219 277.109375 257.75 276.457031 257.753906 Z M 276.457031 257.753906 "/>
<path style=" stroke:none;fill-rule:nonzero;fill:rgb(100%,72.156863%,72.156863%);fill-opacity:1;" d="M 270.292969 267.371094 C 268.960938 265.445312 267.03125 264.378906 265.023438 264.457031 C 263.015625 264.535156 261.140625 265.75 259.898438 267.773438 L 244.976562 262.398438 L 240.21875 273.234375 L 261.375 280.445312 C 264.226562 282.953125 268.085938 282.328125 270.363281 278.992188 C 272.636719 275.65625 272.609375 270.660156 270.292969 267.371094 Z M 270.292969 267.371094 "/>
<path style=" stroke:none;fill-rule:nonzero;fill:rgb(24.705882%,23.921569%,33.72549%);fill-opacity:1;" d="M 246.03125 261.492188 L 238.949219 255.699219 L 236.929688 254.480469 L 227.804688 248.960938 C 228.074219 247.769531 228.847656 244.21875 229.582031 239.714844 C 231.296875 229.179688 232.757812 213.449219 226.859375 210.691406 C 226.023438 210.289062 225.140625 210.058594 224.25 210.015625 C 223.050781 209.960938 221.867188 210.308594 220.808594 211.023438 C 216.390625 213.984375 214.636719 222.3125 214.570312 222.621094 L 209.105469 241.859375 C 208.601562 242.75 203.410156 251.980469 204.25 258.816406 C 204.460938 260.804688 205.3125 262.582031 206.59375 263.726562 C 210.378906 267.207031 214.34375 270.34375 218.460938 273.117188 C 219.417969 273.75 220.351562 274.335938 221.265625 274.871094 C 226.382812 277.867188 230.898438 279.398438 234.6875 279.398438 C 235.925781 279.410156 237.164062 279.226562 238.367188 278.847656 L 253.09375 278.417969 L 253.1875 277.875 L 253.222656 277.664062 L 255.175781 266.070312 L 255.726562 262.785156 Z M 246.03125 261.492188 "/>
</g>
</svg>
