<?xml version="1.0" encoding="UTF-8"?>
<svg xmlns="http://www.w3.org/2000/svg" xmlns:xlink="http://www.w3.org/1999/xlink" width="500px" height="500px" viewBox="0 0 500 500" version="1.1">
<defs>
<filter id="alpha" filterUnits="objectBoundingBox" x="0%" y="0%" width="100%" height="100%">
  <feColorMatrix type="matrix" in="SourceGraphic" values="0 0 0 0 1 0 0 0 0 1 0 0 0 0 1 0 0 0 1 0"/>
</filter>
<mask id="mask0">
  <g filter="url(#alpha)">
<rect x="0" y="0" width="500" height="500" style="fill:rgb(0%,0%,0%);fill-opacity:0.2;stroke:none;"/>
  </g>
</mask>
<clipPath id="clip1">
  <rect x="0" y="0" width="500" height="500"/>
</clipPath>
<g id="surface5" clip-path="url(#clip1)">
<path style=" stroke:none;fill-rule:nonzero;fill:rgb(0%,0%,0%);fill-opacity:1;" d="M 280.484375 225.503906 C 283.097656 236.378906 284.304688 247.542969 284.070312 258.726562 C 283.847656 269.910156 282.210938 281.019531 279.199219 291.792969 C 277.496094 297.875 275.351562 303.824219 272.78125 309.597656 C 272.316406 310.632812 273.851562 311.539062 274.320312 310.492188 C 278.964844 300.097656 282.246094 289.144531 284.089844 277.910156 C 285.9375 266.671875 286.355469 255.246094 285.324219 243.902344 C 284.742188 237.546875 283.699219 231.238281 282.203125 225.027344 C 281.933594 223.917969 280.214844 224.386719 280.484375 225.503906 Z M 280.484375 225.503906 "/>
</g>
<mask id="mask1">
  <g filter="url(#alpha)">
<rect x="0" y="0" width="500" height="500" style="fill:rgb(0%,0%,0%);fill-opacity:0.2;stroke:none;"/>
  </g>
</mask>
<clipPath id="clip2">
  <rect x="0" y="0" width="500" height="500"/>
</clipPath>
<g id="surface8" clip-path="url(#clip2)">
<path style=" stroke:none;fill-rule:nonzero;fill:rgb(0%,0%,0%);fill-opacity:1;" d="M 446.808594 301.601562 L 431.917969 337.914062 C 429.519531 343.757812 427.195312 349.636719 424.703125 355.4375 C 422.457031 360.664062 419.894531 365.910156 416.113281 370.21875 C 412.300781 374.566406 407.167969 378.09375 401.304688 378.785156 C 400.179688 378.917969 400.164062 380.699219 401.304688 380.5625 C 406.660156 379.933594 411.460938 377.273438 415.335938 373.597656 C 419.527344 369.621094 422.484375 364.554688 424.894531 359.355469 C 427.582031 353.5625 429.871094 347.570312 432.292969 341.660156 L 439.90625 323.097656 L 448.527344 302.074219 C 448.960938 301.015625 447.238281 300.554688 446.808594 301.601562 Z M 446.808594 301.601562 "/>
</g>
</defs>
<g id="surface1">
<path style=" stroke:none;fill-rule:nonzero;fill:rgb(94.901961%,94.901961%,94.901961%);fill-opacity:1;" d="M 500 249.703125 C 500.03125 278.136719 495.191406 306.371094 485.6875 333.171875 C 485.648438 333.296875 485.605469 333.410156 485.558594 333.535156 L 485.558594 333.539062 C 478.441406 353.480469 468.800781 372.433594 456.875 389.933594 C 454.808594 392.984375 452.671875 395.984375 450.457031 398.933594 C 448.023438 402.195312 445.511719 405.390625 442.921875 408.523438 C 440.535156 411.410156 438.082031 414.246094 435.570312 417.023438 C 432.582031 420.332031 429.507812 423.558594 426.34375 426.695312 C 418.894531 434.105469 410.984375 441.039062 402.660156 447.457031 C 401.199219 448.589844 399.722656 449.703125 398.230469 450.792969 C 394.757812 453.355469 391.214844 455.828125 387.601562 458.207031 C 379.65625 463.457031 371.414062 468.238281 362.914062 472.539062 C 361.449219 473.285156 359.96875 474.019531 358.484375 474.734375 C 352.742188 477.503906 346.882812 480.050781 340.910156 482.378906 C 339.203125 483.046875 337.492188 483.695312 335.765625 484.316406 C 335.476562 484.429688 335.183594 484.539062 334.886719 484.636719 C 314.394531 492.023438 293.019531 496.6875 271.3125 498.503906 C 269.804688 498.640625 268.292969 498.757812 266.78125 498.847656 C 265.179688 498.960938 263.574219 499.054688 261.964844 499.121094 C 260.695312 499.1875 259.429688 499.234375 258.152344 499.269531 C 257.890625 499.28125 257.625 499.292969 257.363281 499.292969 C 255.648438 499.347656 253.925781 499.382812 252.195312 499.394531 C 251.464844 499.402344 250.738281 499.40625 250 499.40625 C 249.65625 499.40625 249.3125 499.40625 248.964844 499.402344 C 243.984375 499.382812 239.039062 499.222656 234.132812 498.914062 C 234.03125 498.910156 233.929688 498.898438 233.832031 498.898438 C 232.074219 498.777344 230.320312 498.652344 228.574219 498.5 C 222.359375 497.976562 216.207031 497.226562 210.125 496.246094 C 208.722656 496.027344 207.324219 495.789062 205.933594 495.535156 C 199.882812 494.464844 193.910156 493.179688 188.015625 491.671875 C 186.265625 491.226562 184.523438 490.761719 182.789062 490.277344 C 158.710938 483.578125 135.78125 473.289062 114.773438 459.757812 C 111.164062 457.4375 107.621094 455.027344 104.144531 452.519531 C 103.71875 452.222656 103.296875 451.914062 102.875 451.605469 C 94.429688 445.457031 86.378906 438.789062 78.769531 431.636719 C 75.167969 428.257812 71.667969 424.769531 68.273438 421.175781 C 24.34375 374.875 -0.09375 313.488281 0 249.703125 C 0 111.796875 111.929688 0 250 0 C 388.070312 0 500 111.796875 500 249.703125 Z M 500 249.703125 "/>
<path style=" stroke:none;fill-rule:nonzero;fill:rgb(100%,100%,100%);fill-opacity:1;" d="M 280.5 63.660156 C 285.503906 55.390625 291.4375 46.558594 300.726562 43.859375 C 311.480469 40.734375 322.53125 46.945312 331.90625 53.074219 C 359.9375 71.40625 386.933594 91.273438 412.769531 112.582031 L 412.738281 112.902344 C 392.625 111.515625 372.511719 110.132812 352.398438 108.746094 C 337.867188 107.746094 322.835938 106.605469 309.996094 99.742188 C 305.121094 97.136719 300.371094 93.65625 294.847656 93.410156 C 287.988281 93.109375 282.003906 97.894531 277.304688 102.894531 C 249.496094 132.472656 241.449219 177.703125 210.25 203.691406 C 229.921875 155.230469 253.414062 108.40625 280.5 63.660156 Z M 280.5 63.660156 "/>
<path style=" stroke:none;fill-rule:nonzero;fill:rgb(100%,100%,100%);fill-opacity:1;" d="M 109.5625 314.527344 C 112.640625 310.648438 113.894531 309.738281 116.929688 305.824219 C 141.628906 273.917969 164.84375 240.933594 186.574219 206.871094 C 201.335938 183.738281 215.363281 160.160156 228.660156 136.140625 C 234.992188 124.71875 241.148438 113.207031 247.128906 101.609375 C 251.773438 92.613281 256.3125 83.566406 260.75 74.464844 C 262.015625 71.867188 263.25 69.253906 264.476562 66.636719 C 267.367188 60.480469 270.203125 54.296875 273.246094 48.222656 C 276.71875 41.304688 280.941406 34.046875 287.3125 29.398438 C 290.214844 27.195312 293.683594 25.863281 297.3125 25.554688 C 302.5 25.222656 307.285156 27.359375 311.785156 29.699219 C 344.707031 46.84375 375.523438 68.339844 403.402344 92.800781 C 431.347656 117.316406 456.328125 145.011719 477.832031 175.324219 C 478.492188 176.261719 480.046875 175.367188 479.382812 174.421875 C 476.765625 170.730469 474.101562 167.074219 471.382812 163.460938 C 448.824219 133.472656 422.804688 106.246094 393.871094 82.335938 C 379.542969 70.496094 364.542969 59.496094 348.941406 49.390625 C 341 44.25 332.910156 39.351562 324.671875 34.695312 C 320.519531 32.34375 316.351562 30.027344 312.109375 27.851562 C 307.949219 25.71875 303.535156 23.800781 298.785156 23.726562 C 282.617188 23.476562 274.246094 41.761719 268.496094 54.070312 C 266.691406 57.941406 264.859375 61.800781 263.011719 65.648438 C 256.015625 80.261719 248.753906 94.738281 241.21875 109.085938 C 236.570312 117.941406 231.820312 126.746094 226.96875 135.5 C 211.867188 162.757812 195.8125 189.460938 178.8125 215.617188 C 156.292969 250.257812 133.953125 280.863281 108.296875 313.261719 C 107.589844 314.15625 108.851562 315.433594 109.5625 314.527344 Z M 109.5625 314.527344 "/>
<path style=" stroke:none;fill-rule:nonzero;fill:rgb(100%,100%,100%);fill-opacity:1;" d="M 199.042969 169.109375 L 174.953125 160.308594 L 162.996094 155.941406 C 159.101562 154.515625 155.214844 152.898438 151.1875 151.878906 C 147.628906 150.976562 144.011719 150.828125 140.503906 152.015625 C 137.40625 153.160156 134.570312 154.914062 132.167969 157.175781 C 129.710938 159.433594 127.425781 161.871094 125.332031 164.46875 C 122.726562 167.59375 120.160156 170.75 117.585938 173.898438 C 106.949219 186.890625 96.382812 199.9375 85.890625 213.039062 C 75.394531 226.140625 64.96875 239.300781 54.613281 252.515625 C 44.234375 265.761719 33.921875 279.0625 23.6875 292.421875 C 22.429688 294.058594 21.179688 295.695312 19.925781 297.332031 C 19.234375 298.238281 17.675781 297.347656 18.375 296.429688 C 28.691406 282.9375 39.074219 269.5 49.53125 256.117188 C 60.015625 242.703125 70.570312 229.347656 81.195312 216.050781 C 91.824219 202.75 102.523438 189.507812 113.292969 176.324219 C 115.976562 173.039062 118.664062 169.757812 121.359375 166.480469 C 123.628906 163.71875 125.875 160.921875 128.367188 158.347656 C 132.9375 153.625 138.648438 149.453125 145.488281 149.339844 C 149.507812 149.273438 153.398438 150.546875 157.132812 151.894531 C 161.160156 153.351562 165.179688 154.832031 169.199219 156.304688 L 193.453125 165.164062 L 199.519531 167.378906 C 200.59375 167.773438 200.128906 169.503906 199.042969 169.109375 Z M 199.042969 169.109375 "/>
<path style=" stroke:none;fill-rule:nonzero;fill:rgb(100%,100%,100%);fill-opacity:1;" d="M 133.074219 169.195312 C 135.445312 166.3125 138.007812 163.292969 141.554688 162.125 L 144.867188 162.253906 C 119.660156 206.738281 85.621094 245.609375 44.832031 276.480469 C 74.246094 240.71875 103.660156 204.957031 133.074219 169.195312 Z M 133.074219 169.195312 "/>
<path style=" stroke:none;fill-rule:nonzero;fill:rgb(18.431373%,18.039216%,25.490196%);fill-opacity:1;" d="M 294.085938 123.140625 C 294.089844 135.644531 285.726562 146.613281 273.652344 149.925781 C 261.578125 153.238281 248.777344 148.082031 242.378906 137.332031 C 235.984375 126.578125 237.578125 112.882812 246.265625 103.878906 C 246.3125 103.832031 246.355469 103.789062 246.398438 103.746094 C 246.621094 103.511719 246.84375 103.277344 247.078125 103.054688 C 247.082031 103.054688 247.085938 103.054688 247.085938 103.050781 C 247.089844 103.050781 247.089844 103.046875 247.089844 103.042969 C 247.378906 102.777344 247.667969 102.511719 247.96875 102.257812 C 256.171875 95.070312 267.828125 93.347656 277.769531 97.847656 C 287.707031 102.347656 294.089844 112.238281 294.085938 123.140625 Z M 294.085938 123.140625 "/>
<path style=" stroke:none;fill-rule:nonzero;fill:rgb(61.960784%,38.039216%,41.568627%);fill-opacity:1;" d="M 275.921875 113.097656 C 285.023438 122.191406 285.023438 136.9375 275.921875 146.03125 C 266.816406 155.125 252.054688 155.125 242.949219 146.03125 C 233.84375 136.9375 233.84375 122.191406 242.949219 113.097656 C 252.054688 104.003906 266.816406 104.003906 275.921875 113.097656 Z M 275.921875 113.097656 "/>
<path style=" stroke:none;fill-rule:nonzero;fill:rgb(18.431373%,18.039216%,25.490196%);fill-opacity:1;" d="M 276.09375 107.171875 C 268.722656 100.28125 258.054688 98.21875 248.640625 101.855469 C 248.503906 101.910156 248.367188 101.96875 248.230469 102.035156 C 248.222656 102.035156 248.222656 102.039062 248.21875 102.039062 C 247.773438 102.222656 247.320312 102.414062 246.886719 102.621094 L 246.621094 102.753906 L 246.621094 102.789062 C 246.574219 102.824219 246.519531 102.863281 246.464844 102.898438 C 246.359375 103.003906 246.226562 103.074219 246.082031 103.113281 C 241.597656 103.171875 237.945312 104.691406 235.238281 107.628906 C 231.621094 111.542969 229.921875 117.871094 230.445312 125.449219 L 230.457031 125.683594 L 230.660156 125.8125 C 232.570312 127.003906 234.382812 128.054688 236.128906 128.972656 C 237.160156 129.527344 238.164062 130.03125 239.164062 130.492188 C 239.28125 130.546875 239.398438 130.605469 239.519531 130.660156 C 249.613281 135.3125 258.847656 136.15625 267.71875 133.207031 L 267.886719 133.15625 L 271.65625 126.84375 C 272.453125 131.261719 275.90625 134.71875 280.328125 135.523438 L 281.894531 135.800781 L 284.191406 136.203125 L 284.289062 135.769531 C 286.566406 125.511719 283.273438 114.019531 276.09375 107.171875 Z M 276.09375 107.171875 "/>
<path style=" stroke:none;fill-rule:nonzero;fill:rgb(18.431373%,18.039216%,25.490196%);fill-opacity:1;" d="M 333.363281 156.042969 C 325.429688 151.953125 335.636719 137.109375 333.585938 128.429688 C 331.535156 119.753906 316.769531 116.960938 315.828125 108.09375 C 314.886719 99.226562 312.675781 90.078125 306.816406 83.347656 C 303.074219 79.050781 297.558594 75.875 291.878906 76.414062 C 287.988281 76.78125 284.453125 78.824219 282.195312 82.003906 C 279.933594 85.1875 279.171875 89.191406 280.105469 92.980469 C 278.488281 90.691406 274.304688 91.1875 273.265625 93.792969 C 272.347656 96.105469 274.378906 98.910156 276.773438 99.113281 C 279.90625 102.976562 283.496094 107.078125 288.402344 107.859375 C 289.984375 108.109375 291.761719 107.925781 292.917969 106.816406 C 294.070312 105.710938 294.160156 103.496094 292.789062 102.667969 C 298.957031 105.117188 302.574219 111.777344 303.488281 118.34375 C 304.40625 124.90625 303.140625 131.550781 302.304688 138.128906 C 301.46875 144.703125 301.109375 151.621094 303.691406 157.730469 C 306.742188 164.945312 313.765625 170.117188 321.429688 171.773438 C 329.09375 173.433594 337.253906 171.8125 344.191406 168.160156 C 351.128906 164.507812 356.914062 158.933594 361.640625 152.683594 C 353.5 158.457031 342.238281 160.617188 333.363281 156.042969 Z M 333.363281 156.042969 "/>
<path style=" stroke:none;fill-rule:nonzero;fill:rgb(100%,72.156863%,72.156863%);fill-opacity:1;" d="M 243.226562 253.855469 L 227.121094 363.691406 L 315.027344 357.074219 L 288.714844 249.023438 Z M 243.226562 253.855469 "/>
<path style=" stroke:none;fill-rule:nonzero;fill:rgb(18.431373%,18.039216%,25.490196%);fill-opacity:1;" d="M 335.183594 483.515625 C 335.105469 483.894531 335.007812 484.269531 334.886719 484.636719 C 324.742188 488.300781 314.367188 491.296875 303.832031 493.601562 C 301.609375 486.304688 297.351562 472.492188 293.621094 461.191406 C 290.574219 451.96875 287.886719 444.425781 286.949219 443.480469 C 284.339844 440.890625 286.949219 437.433594 286.949219 437.433594 L 275.8125 402.859375 L 270.753906 387.152344 L 269.019531 420.148438 L 266.503906 467.941406 L 266.429688 469.28125 C 266.429688 469.28125 262.964844 479.65625 264.695312 481.386719 C 266.429688 483.121094 262.964844 490.042969 262.964844 490.042969 L 261.964844 499.121094 C 260.695312 499.1875 259.429688 499.234375 258.152344 499.269531 L 257.71875 499.40625 L 257.363281 499.292969 C 255.648438 499.347656 253.925781 499.382812 252.195312 499.394531 C 251.464844 499.402344 250.738281 499.40625 250 499.40625 C 249.65625 499.40625 249.3125 499.40625 248.964844 499.402344 C 243.984375 499.382812 239.039062 499.222656 234.132812 498.914062 L 231.085938 474.152344 L 227.9375 448.566406 C 227.9375 448.566406 231.402344 441.65625 227.9375 438.195312 C 225.855469 436.113281 226.898438 433.089844 228.070312 431.015625 C 227.34375 427.804688 226.355469 422.871094 225.019531 415.5625 C 224.96875 415.320312 224.929688 415.070312 224.882812 414.820312 C 224.460938 412.503906 224.082031 410.230469 223.746094 408 C 223.152344 404.082031 222.691406 400.3125 222.332031 396.707031 C 221.125 385.027344 220.957031 373.261719 221.835938 361.554688 C 222.167969 357.390625 222.582031 354.339844 222.855469 352.582031 C 222.878906 352.414062 223.136719 351.484375 223.550781 350.011719 C 224.203125 347.65625 225.277344 343.921875 226.484375 339.738281 C 227.125 337.519531 227.804688 335.179688 228.472656 332.847656 C 229.644531 328.808594 230.808594 324.804688 231.746094 321.566406 L 231.746094 321.546875 C 232.570312 318.707031 233.230469 316.464844 233.574219 315.289062 C 233.742188 314.714844 233.832031 314.402344 233.832031 314.402344 C 233.832031 314.402344 234.015625 314.359375 234.363281 314.28125 C 235.453125 314.035156 238.136719 313.433594 241.851562 312.632812 C 245.730469 311.816406 250.722656 310.777344 256.210938 309.722656 C 260.910156 308.820312 265.96875 307.898438 270.996094 307.074219 C 272.804688 306.785156 274.609375 306.5 276.390625 306.234375 C 287.394531 304.597656 297.492188 303.664062 302.28125 304.726562 C 302.613281 304.796875 302.9375 304.886719 303.261719 304.992188 C 303.585938 305.101562 303.898438 305.242188 304.191406 305.414062 C 304.339844 305.503906 305.777344 311.101562 307.613281 318.398438 C 307.628906 318.46875 307.648438 318.546875 307.667969 318.617188 C 308.21875 320.824219 308.804688 323.171875 309.40625 325.574219 C 310.019531 328.023438 310.636719 330.523438 311.242188 332.953125 C 313.039062 340.179688 314.703125 346.863281 315.558594 350.136719 C 315.886719 351.40625 316.097656 352.160156 316.144531 352.242188 C 318.152344 355.582031 319.792969 363.765625 321.121094 374.035156 C 322.308594 383.195312 323.253906 394.019531 323.984375 404.539062 C 324.347656 409.738281 324.65625 414.871094 324.917969 419.6875 C 325.800781 435.890625 326.15625 448.539062 326.15625 448.539062 C 326.15625 448.539062 327.480469 459.085938 330.113281 464.0625 C 330.4375 464.707031 330.851562 465.296875 331.34375 465.824219 C 333.09375 467.574219 333.296875 469.09375 333.0625 470.171875 C 332.960938 470.683594 332.753906 471.164062 332.445312 471.582031 C 332.378906 471.6875 332.300781 471.785156 332.214844 471.875 C 331.753906 474.054688 332.40625 476.316406 333.949219 477.925781 C 335.628906 479.613281 335.492188 482.035156 335.183594 483.515625 Z M 335.183594 483.515625 "/>
<path style=" stroke:none;fill-rule:nonzero;fill:rgb(42.352941%,38.823529%,100%);fill-opacity:1;" d="M 306.390625 218.628906 C 306.289062 217.882812 306.183594 217.128906 306.070312 216.371094 C 306.003906 215.882812 305.925781 215.398438 305.855469 214.917969 C 305.101562 210.066406 308.242188 205.914062 304.175781 202.554688 C 303.222656 201.785156 302.449219 200.816406 301.898438 199.722656 L 300.96875 197.847656 L 299.25 194.371094 L 295.5 186.816406 L 294.851562 185.515625 C 294.667969 185.148438 294.457031 184.792969 294.222656 184.453125 C 293.519531 183.4375 292.605469 182.582031 291.542969 181.953125 L 282.222656 176.398438 C 280.78125 175.546875 279.621094 174.289062 278.882812 172.789062 L 278.652344 172.3125 C 277.625 170.207031 275.785156 165.171875 273.605469 162.984375 L 273.597656 162.976562 C 273.125 162.433594 272.480469 162.070312 271.769531 161.941406 L 262.488281 161.019531 C 259.46875 160.714844 256.511719 162.019531 254.703125 164.453125 L 254.449219 165.609375 L 252.957031 172.390625 L 252.875 172.40625 C 252.433594 172.507812 251.996094 172.609375 251.5625 172.734375 C 241.9375 175.363281 237.921875 208.972656 237.921875 208.972656 C 237.921875 208.972656 231.183594 220.082031 233.832031 226.957031 L 238.558594 238.042969 C 238.59375 238.125 238.621094 238.214844 238.640625 238.304688 C 239.066406 239.511719 239.21875 240.796875 239.078125 242.070312 L 239.085938 242.503906 L 239.097656 243.457031 L 239.132812 245.90625 L 239.246094 254.035156 L 239.386719 264.207031 L 239.511719 272.871094 L 239.554688 275.179688 L 231.769531 309.015625 C 231.511719 311.261719 232.160156 313.515625 233.570312 315.285156 L 233.574219 315.289062 C 233.746094 315.507812 233.929688 315.71875 234.121094 315.917969 L 234.128906 315.925781 C 234.3125 316.113281 234.5 316.289062 234.695312 316.460938 C 236.59375 318.117188 239.128906 318.851562 241.621094 318.46875 L 242.660156 318.308594 L 242.667969 318.308594 L 257.75 316.050781 L 257.761719 316.050781 L 259.507812 315.789062 L 259.519531 315.789062 L 276.402344 313.257812 L 276.414062 313.257812 L 279.304688 312.816406 C 279.535156 312.789062 279.761719 312.757812 279.992188 312.742188 L 295.453125 311.679688 C 295.804688 311.65625 296.160156 311.609375 296.507812 311.542969 L 296.515625 311.542969 C 299.273438 310.996094 301.59375 309.144531 302.730469 306.578125 C 302.964844 306.070312 303.140625 305.539062 303.261719 304.992188 C 303.394531 304.402344 303.46875 303.800781 303.480469 303.195312 L 303.652344 288.652344 L 304.238281 241.65625 C 304.25 240.085938 304.699219 238.550781 305.535156 237.222656 C 307.679688 233.808594 307.433594 226.488281 306.390625 218.628906 Z M 306.390625 218.628906 "/>
<path style=" stroke:none;fill-rule:nonzero;fill:rgb(61.960784%,38.039216%,41.568627%);fill-opacity:1;" d="M 280.472656 344.152344 C 280.03125 341.726562 280.691406 339.230469 282.273438 337.335938 C 283.851562 335.441406 286.191406 334.34375 288.660156 334.335938 L 298.304688 306.335938 L 307.707031 318.523438 L 297.105469 343.246094 C 296.835938 347.480469 293.4375 350.847656 289.195312 351.078125 C 284.949219 351.3125 281.203125 348.335938 280.472656 344.152344 Z M 280.472656 344.152344 "/>
<path style=" stroke:none;fill-rule:nonzero;fill:rgb(42.352941%,38.823529%,100%);fill-opacity:1;" d="M 317.269531 285.242188 L 315.101562 290.699219 L 312.074219 324.453125 C 311.132812 324.691406 310.234375 325.066406 309.40625 325.574219 C 305.710938 327.859375 304.074219 332.382812 305.457031 336.5 L 306.347656 339.167969 L 299.726562 337.136719 L 288.84375 333.796875 L 276.007812 329.859375 L 278.183594 322.816406 C 279.203125 319.535156 278.542969 315.957031 276.414062 313.257812 C 276.152344 312.925781 275.875 312.609375 275.574219 312.3125 L 276.390625 306.234375 L 276.871094 302.621094 L 270.996094 307.074219 L 259.511719 315.789062 L 259.507812 315.789062 L 257.988281 316.945312 C 257.988281 316.945312 257.902344 316.636719 257.75 316.050781 C 257.457031 314.917969 256.914062 312.746094 256.210938 309.722656 C 252.742188 294.648438 250.183594 279.378906 248.558594 263.996094 C 248.199219 260.535156 247.890625 256.988281 247.640625 253.386719 C 247.386719 249.679688 247.195312 245.917969 247.097656 242.136719 C 246.242188 211.335938 250.980469 179.046875 270.785156 162.53125 C 271.742188 162.539062 272.691406 162.691406 273.605469 162.984375 C 281.621094 165.445312 290.414062 177.472656 296.496094 186.078125 C 297.933594 188.113281 299.214844 189.953125 300.304688 191.429688 L 302.933594 195.007812 C 306.523438 199.894531 309.011719 205.5 310.21875 211.441406 C 310.476562 212.699219 310.675781 213.972656 310.820312 215.261719 L 313.695312 241.667969 L 313.695312 248.46875 Z M 317.269531 285.242188 "/>
<path style=" stroke:none;fill-rule:nonzero;fill:rgb(80%,80%,80%);fill-opacity:1;" d="M 14.484375 332.578125 C 19.640625 338.683594 25.222656 344.421875 31.179688 349.75 L 469.175781 350.34375 C 475.132812 345.015625 480.714844 339.277344 485.871094 333.171875 Z M 14.484375 332.578125 "/>
<path style=" stroke:none;fill-rule:nonzero;fill:rgb(100%,71.372549%,71.372549%);fill-opacity:1;" d="M 252.195312 499.394531 C 251.464844 499.402344 250.738281 499.40625 250 499.40625 C 249.65625 499.40625 249.3125 499.40625 248.964844 499.402344 C 243.984375 499.382812 239.039062 499.222656 234.132812 498.914062 L 234.25 499.882812 L 233.832031 498.898438 L 224.417969 477.011719 L 231.085938 474.152344 L 243.320312 468.902344 L 247.03125 481.648438 L 250.582031 493.855469 L 251.640625 497.472656 Z M 252.195312 499.394531 "/>
<path style=" stroke:none;fill-rule:nonzero;fill:rgb(100%,71.372549%,71.372549%);fill-opacity:1;" d="M 208.59375 473.984375 L 205.933594 495.535156 C 199.882812 494.464844 193.910156 493.179688 188.015625 491.671875 L 188.015625 473.992188 Z M 208.59375 473.984375 "/>
<path style=" stroke:none;fill-rule:nonzero;fill:rgb(79.215686%,79.215686%,79.215686%);fill-opacity:1;" d="M 114.773438 434.269531 L 114.773438 459.757812 C 111.164062 457.4375 107.621094 455.027344 104.144531 452.519531 L 104.144531 434.269531 Z M 114.773438 434.269531 "/>
<path style=" stroke:none;fill-rule:nonzero;fill:rgb(24.705882%,23.921569%,33.72549%);fill-opacity:1;" d="M 155.957031 430.023438 L 155.957031 442.757812 C 155.953125 447.640625 151.992188 451.601562 147.101562 451.605469 L 102.875 451.605469 C 94.429688 445.457031 86.378906 438.789062 78.769531 431.636719 C 75.167969 428.257812 71.667969 424.769531 68.273438 421.175781 L 147.101562 421.175781 C 151.992188 421.179688 155.953125 425.140625 155.957031 430.023438 Z M 155.957031 430.023438 "/>
<path style=" stroke:none;fill-rule:nonzero;fill:rgb(18.431373%,18.039216%,25.490196%);fill-opacity:1;" d="M 259.609375 498.808594 L 258.152344 499.269531 L 257.71875 499.40625 L 257.363281 499.292969 C 255.648438 499.347656 253.925781 499.382812 252.195312 499.394531 C 251.464844 499.402344 250.738281 499.40625 250 499.40625 C 249.65625 499.40625 249.3125 499.40625 248.964844 499.402344 C 243.984375 499.382812 239.039062 499.222656 234.132812 498.914062 L 234.25 499.882812 L 233.832031 498.898438 C 232.074219 498.777344 230.320312 498.652344 228.574219 498.5 L 214.757812 475.386719 L 186.316406 427.824219 L 183.023438 422.3125 C 183.023438 422.3125 171.78125 425.632812 155.871094 428.820312 C 143.882812 431.226562 129.246094 433.546875 114.773438 434.304688 C 111.207031 434.496094 107.648438 434.589844 104.144531 434.5625 C 95.089844 434.5 86.390625 433.652344 78.769531 431.636719 C 75.167969 428.257812 71.667969 424.769531 68.273438 421.175781 C 62.484375 415.0625 57.011719 408.664062 51.871094 402 C 51.800781 399.554688 51.925781 397.105469 52.246094 394.679688 C 52.296875 394.277344 52.351562 393.867188 52.417969 393.453125 L 54.039062 365.953125 L 66.082031 364.367188 L 84.40625 361.945312 L 104.257812 359.324219 L 106.441406 376.417969 C 106.441406 376.417969 121.898438 375.632812 141.484375 375.894531 C 172.9375 376.324219 215.03125 379.453125 220.730469 392.894531 C 221.265625 394.15625 221.800781 395.433594 222.332031 396.707031 C 233.402344 423.191406 243.570312 451.40625 250.476562 471.453125 C 251.792969 475.273438 252.988281 478.789062 254.050781 481.945312 C 257.558594 492.367188 259.609375 498.808594 259.609375 498.808594 Z M 259.609375 498.808594 "/>
<path style=" stroke:none;fill-rule:nonzero;fill:rgb(18.431373%,18.039216%,25.490196%);fill-opacity:1;" d="M 225.9375 408.046875 C 225.648438 410.5625 225.339844 413.070312 225.019531 415.5625 C 222.167969 437.632812 218.242188 458.714844 214.757812 475.386719 C 213.050781 483.523438 211.449219 490.605469 210.125 496.246094 C 208.722656 496.027344 207.324219 495.789062 205.933594 495.535156 C 199.882812 494.464844 193.910156 493.179688 188.015625 491.671875 C 186.265625 491.226562 184.523438 490.761719 182.789062 490.277344 L 186.316406 427.824219 L 187.480469 407.164062 L 223.746094 408 Z M 225.9375 408.046875 "/>
<path style=" stroke:none;fill-rule:nonzero;fill:rgb(100%,71.372549%,71.372549%);fill-opacity:1;" d="M 284.25 311.445312 C 287.308594 309.738281 290.972656 309.472656 294.246094 310.722656 C 297.523438 311.96875 300.078125 314.601562 301.222656 317.914062 L 343.328125 317.960938 L 331.261719 336.191406 L 293.128906 333.347656 C 287.304688 334.9375 281.214844 331.925781 278.949219 326.335938 C 276.683594 320.75 278.960938 314.351562 284.25 311.445312 Z M 284.25 311.445312 "/>
<path style=" stroke:none;fill-rule:nonzero;fill:rgb(42.352941%,38.823529%,100%);fill-opacity:1;" d="M 307.203125 336.097656 L 383.035156 343.625 L 383.234375 343.367188 C 383.617188 342.878906 421.574219 294.347656 427.953125 282.796875 C 431.875 275.855469 433.304688 267.78125 432 259.917969 L 431.957031 259.726562 L 431.804688 259.597656 C 425.4375 254.265625 416.214844 254.066406 409.617188 259.113281 C 394.214844 271.027344 381.796875 286.355469 373.339844 303.882812 L 368.542969 313.859375 L 312.894531 316.246094 Z M 307.203125 336.097656 "/>
<path style=" stroke:none;fill-rule:nonzero;fill:rgb(100%,71.372549%,71.372549%);fill-opacity:1;" d="M 277.957031 472.859375 L 266.78125 498.847656 C 265.179688 498.960938 263.574219 499.054688 261.964844 499.121094 C 260.695312 499.1875 259.429688 499.234375 258.152344 499.269531 L 257.71875 499.40625 L 257.363281 499.292969 C 255.648438 499.347656 253.925781 499.382812 252.195312 499.394531 C 251.464844 499.402344 250.738281 499.40625 250 499.40625 C 249.65625 499.40625 249.3125 499.40625 248.964844 499.402344 L 249.710938 496.863281 L 250.582031 493.855469 L 254.050781 481.945312 L 259.054688 464.75 L 266.503906 467.941406 Z M 277.957031 472.859375 "/>
<path style=" stroke:none;fill-rule:nonzero;fill:rgb(100%,71.372549%,71.372549%);fill-opacity:1;" d="M 358.484375 474.734375 C 352.742188 477.503906 346.882812 480.050781 340.910156 482.378906 L 335.066406 472.5625 L 353.902344 464.300781 Z M 358.484375 474.734375 "/>
<path style=" stroke:none;fill-rule:nonzero;fill:rgb(79.215686%,79.215686%,79.215686%);fill-opacity:1;" d="M 398.230469 430.117188 L 398.230469 450.792969 C 394.757812 453.355469 391.214844 455.828125 387.601562 458.207031 L 387.601562 430.117188 Z M 398.230469 430.117188 "/>
<path style=" stroke:none;fill-rule:nonzero;fill:rgb(24.705882%,23.921569%,33.72549%);fill-opacity:1;" d="M 435.570312 417.023438 C 432.582031 420.332031 429.507812 423.558594 426.34375 426.695312 C 418.894531 434.105469 410.984375 441.039062 402.660156 447.457031 L 355.273438 447.457031 C 352.726562 447.457031 350.304688 446.359375 348.628906 444.449219 L 348.621094 444.429688 C 347.632812 443.316406 346.949219 441.96875 346.628906 440.515625 L 346.621094 440.503906 C 346.488281 439.878906 346.417969 439.246094 346.417969 438.605469 L 346.417969 425.871094 C 346.421875 420.988281 350.382812 417.027344 355.273438 417.023438 Z M 435.570312 417.023438 "/>
<path style=" stroke:none;fill-rule:nonzero;fill:rgb(18.431373%,18.039216%,25.490196%);fill-opacity:1;" d="M 455.09375 367.320312 L 449.957031 389.300781 C 450.460938 392.484375 450.628906 395.714844 450.457031 398.933594 C 448.023438 402.195312 445.511719 405.390625 442.921875 408.523438 C 440.535156 411.410156 438.082031 414.246094 435.570312 417.023438 C 432.582031 420.332031 429.507812 423.558594 426.34375 426.695312 C 418.101562 429.28125 408.386719 430.339844 398.230469 430.410156 C 394.726562 430.4375 391.167969 430.34375 387.601562 430.152344 C 373.128906 429.394531 358.492188 427.074219 346.503906 424.667969 C 343.332031 424.039062 340.351562 423.398438 337.605469 422.777344 C 332.410156 421.605469 328.0625 420.515625 324.917969 419.6875 C 321.371094 418.761719 319.351562 418.160156 319.351562 418.160156 L 305.867188 440.71875 L 293.621094 461.191406 L 271.3125 498.503906 C 269.804688 498.640625 268.292969 498.757812 266.78125 498.847656 C 265.179688 498.960938 263.574219 499.054688 261.964844 499.121094 C 260.695312 499.1875 259.429688 499.234375 258.152344 499.269531 L 257.71875 499.40625 L 257.363281 499.292969 L 251.640625 497.472656 L 249.710938 496.863281 L 242.765625 494.65625 C 242.765625 494.65625 244.316406 489.78125 247.03125 481.648438 C 248.027344 478.664062 249.179688 475.238281 250.476562 471.453125 C 255.148438 457.777344 261.628906 439.40625 269.019531 420.148438 C 271.210938 414.429688 273.480469 408.628906 275.8125 402.859375 C 277.726562 398.121094 279.671875 393.398438 281.644531 388.742188 C 285.070312 380.671875 301.628906 376.316406 321.121094 374.035156 C 322.113281 373.921875 323.113281 373.808594 324.113281 373.699219 C 334.050781 372.65625 344.589844 372.117188 354.449219 371.867188 C 359.382812 371.742188 364.144531 371.695312 368.574219 371.691406 C 370.007812 371.691406 371.398438 371.695312 372.75 371.703125 L 372.753906 371.703125 C 376.40625 371.71875 379.769531 371.773438 382.726562 371.832031 C 383.300781 371.84375 383.859375 371.863281 384.40625 371.875 L 384.410156 371.875 C 384.78125 371.878906 385.140625 371.890625 385.5 371.898438 C 391.964844 372.0625 395.933594 372.265625 395.933594 372.265625 L 397.46875 360.214844 L 397.785156 357.78125 L 398.082031 355.46875 L 398.082031 355.460938 L 398.117188 355.171875 L 398.359375 355.167969 L 402.636719 355.082031 L 438.574219 354.382812 L 458.207031 353.996094 Z M 455.09375 367.320312 "/>
<path style=" stroke:none;fill-rule:nonzero;fill:rgb(18.431373%,18.039216%,25.490196%);fill-opacity:1;" d="M 362.914062 472.539062 C 361.449219 473.285156 359.96875 474.019531 358.484375 474.734375 C 352.742188 477.503906 346.882812 480.050781 340.910156 482.378906 C 339.203125 483.046875 337.492188 483.695312 335.765625 484.316406 C 335.574219 484.050781 335.378906 483.785156 335.183594 483.515625 C 326.941406 472.21875 316.464844 457.308594 305.867188 440.71875 C 301.429688 433.777344 296.972656 426.542969 292.640625 419.152344 L 323.984375 404.539062 L 327.5 402.898438 L 337.605469 422.777344 L 346.621094 440.503906 L 348.628906 444.449219 Z M 362.914062 472.539062 "/>
<path style=" stroke:none;fill-rule:nonzero;fill:rgb(100%,71.372549%,71.372549%);fill-opacity:1;" d="M 437.285156 196.574219 C 437.285156 212.503906 424.355469 225.414062 408.410156 225.414062 C 392.460938 225.414062 379.535156 212.503906 379.535156 196.574219 C 379.535156 180.648438 392.460938 167.734375 408.410156 167.734375 C 424.355469 167.734375 437.285156 180.648438 437.285156 196.574219 Z M 437.285156 196.574219 "/>
<path style=" stroke:none;fill-rule:nonzero;fill:rgb(18.431373%,18.039216%,25.490196%);fill-opacity:1;" d="M 407.453125 224.164062 C 414.207031 227.398438 422.515625 226.304688 428.960938 222.496094 C 435.40625 218.691406 440.148438 212.480469 443.464844 205.777344 C 445.890625 200.863281 447.65625 195.238281 446.25 189.945312 C 444.84375 184.652344 439.234375 180.214844 433.980469 181.785156 C 437.582031 178.886719 437.160156 172.917969 434.253906 169.332031 C 431.34375 165.742188 426.753906 164.019531 422.320312 162.71875 C 415.882812 160.832031 409.121094 159.5 402.484375 160.464844 C 395.847656 161.429688 389.3125 165.019531 386.1875 170.949219 C 381.730469 172.09375 377.058594 170.089844 374.820312 166.070312 C 373.332031 169.933594 374.625 174.3125 377.972656 176.753906 L 368.980469 171.882812 C 366.691406 175.054688 368.773438 179.894531 372.25 181.691406 C 375.730469 183.488281 379.9375 183.007812 383.734375 182.046875 C 387.53125 181.089844 383.050781 189.097656 386.964844 189.175781 C 390.882812 189.25 395.117188 191.296875 396.238281 195.046875 C 396.828125 197.011719 396.484375 199.117188 396.65625 201.160156 C 396.832031 203.203125 397.808594 205.46875 399.792969 206 C 401.042969 206.335938 402.414062 205.890625 403.652344 206.261719 C 405.191406 206.726562 406.128906 208.371094 406.265625 209.96875 C 406.402344 211.566406 405.898438 213.144531 405.402344 214.671875 C 403.445312 220.703125 409.730469 217.324219 407.773438 223.355469 Z M 407.453125 224.164062 "/>
<path style=" stroke:none;fill-rule:nonzero;fill:rgb(42.352941%,38.823529%,100%);fill-opacity:1;" d="M 464.109375 309.351562 C 463.871094 285.535156 462.789062 269.300781 460.902344 261.097656 C 455.832031 239.046875 432.40625 235.023438 428.734375 234.527344 C 427.945312 232.425781 426.316406 230.746094 424.238281 229.890625 C 422.164062 229.035156 419.824219 229.078125 417.777344 230.011719 L 401.132812 237.628906 C 394.308594 240.761719 389.089844 246.582031 386.722656 253.699219 L 384.25 261.234375 L 383.011719 311.785156 L 387.109375 333.046875 L 387.113281 333.058594 L 389.875 347.382812 L 387.976562 350.230469 L 377.125 366.484375 L 376.941406 366.765625 L 376.9375 366.773438 L 376.460938 367.480469 C 377.121094 367.839844 377.773438 368.195312 378.414062 368.554688 C 380.078125 369.464844 381.699219 370.363281 383.277344 371.238281 C 383.65625 371.453125 384.03125 371.660156 384.40625 371.875 L 384.414062 371.875 C 384.648438 372.003906 384.886719 372.136719 385.117188 372.265625 C 391.046875 375.574219 396.4375 378.640625 401.300781 381.464844 C 401.976562 381.855469 402.648438 382.246094 403.308594 382.632812 C 425.753906 395.746094 437.132812 403.777344 442.921875 408.523438 C 445.511719 405.390625 448.023438 402.195312 450.457031 398.933594 C 452.667969 395.984375 454.804688 392.984375 456.875 389.933594 C 457.238281 387.550781 457.480469 385.167969 457.71875 382.828125 C 458.003906 380.019531 458.300781 377.105469 458.800781 374.242188 C 459.019531 372.972656 458.175781 371.765625 457.363281 370.605469 C 456.609375 369.519531 455.898438 368.5 456.046875 367.539062 C 456.199219 366.546875 457.292969 365.46875 458.355469 364.417969 C 459.511719 363.269531 460.710938 362.082031 460.886719 360.832031 C 461.359375 357.34375 461.78125 353.84375 462.148438 350.332031 C 462.753906 344.621094 463.21875 338.890625 463.546875 333.144531 C 464.003906 325.207031 464.191406 317.277344 464.109375 309.351562 Z M 464.109375 309.351562 "/>
<path style=" stroke:none;fill-rule:nonzero;fill:rgb(100%,71.372549%,71.372549%);fill-opacity:1;" d="M 354.195312 393.433594 C 355.183594 390.074219 357.613281 387.324219 360.828125 385.929688 C 364.042969 384.53125 367.714844 384.625 370.851562 386.191406 L 400.964844 356.800781 L 405.117188 378.257812 L 375.882812 402.875 C 372.835938 408.082031 366.371094 410.1875 360.839844 407.777344 C 355.304688 405.367188 352.449219 399.207031 354.195312 393.433594 Z M 354.195312 393.433594 "/>
<path style=" stroke:none;fill-rule:nonzero;fill:rgb(42.352941%,38.823529%,100%);fill-opacity:1;" d="M 387.863281 395.003906 L 447.3125 347.386719 L 447.273438 347.0625 C 447.207031 346.445312 440.328125 285.246094 436.789062 272.535156 C 434.730469 264.835938 430.097656 258.070312 423.65625 253.363281 L 423.492188 253.253906 L 423.296875 253.269531 C 415.007812 253.910156 408.277344 260.210938 407.101562 268.429688 C 404.445312 287.707031 406.308594 307.335938 412.546875 325.769531 L 416.109375 336.25 L 378.023438 376.84375 Z M 387.863281 395.003906 "/>
<path style=" stroke:none;fill-rule:nonzero;fill:rgb(62.745098%,38.039216%,41.568627%);fill-opacity:1;" d="M 109.207031 199.164062 C 109.207031 213.375 97.671875 224.898438 83.441406 224.898438 C 69.210938 224.898438 57.675781 213.375 57.675781 199.164062 C 57.675781 184.949219 69.210938 173.429688 83.441406 173.429688 C 97.671875 173.429688 109.207031 184.949219 109.207031 199.164062 Z M 109.207031 199.164062 "/>
<path style=" stroke:none;fill-rule:nonzero;fill:rgb(24.705882%,23.921569%,33.72549%);fill-opacity:1;" d="M 48.824219 395.175781 L 48.683594 394.976562 C 41.179688 384.480469 52.46875 359.261719 54.167969 355.605469 C 50 354.253906 47.367188 350.152344 47.878906 345.804688 L 48.613281 339.574219 L 49.378906 333.460938 L 43.898438 327.984375 L 43.882812 327.851562 L 40.726562 300.285156 L 36.144531 281.976562 C 32.625 267.882812 36.992188 252.992188 47.566406 243.023438 L 58.164062 241.34375 L 71.046875 228.945312 L 91.820312 228.945312 L 98.945312 235.742188 C 112.949219 247.207031 116.273438 242.226562 132.066406 263.808594 L 120.757812 293.5625 L 127.078125 337.449219 L 127.082031 345.390625 L 130.375 349.042969 C 132.777344 351.710938 133.777344 355.359375 133.074219 358.878906 L 132.640625 361.039062 C 136.035156 362.492188 138.515625 365.5 139.289062 369.109375 L 140.445312 374.496094 C 141.433594 375.800781 147.960938 384.496094 147.960938 386.871094 C 147.960938 387.230469 147.699219 387.574219 147.132812 387.957031 C 142.683594 390.964844 118.09375 397.101562 107.207031 392.75 C 95.613281 388.121094 49.527344 395.066406 49.0625 395.136719 Z M 48.824219 395.175781 "/>
<path style=" stroke:none;fill-rule:nonzero;fill:rgb(62.745098%,38.039216%,41.568627%);fill-opacity:1;" d="M 35.734375 290.78125 L 57.160156 286.59375 C 65.082031 298.410156 69.335938 330.726562 69.335938 330.726562 L 93.019531 379.789062 C 97.046875 382.230469 98.714844 387.226562 96.964844 391.59375 C 95.210938 395.964844 90.554688 398.425781 85.953125 397.417969 C 81.351562 396.410156 78.152344 392.226562 78.390625 387.527344 L 47.5 329.398438 Z M 35.734375 290.78125 "/>
<path style=" stroke:none;fill-rule:nonzero;fill:rgb(24.705882%,23.921569%,33.72549%);fill-opacity:1;" d="M 35.617188 295.859375 L 35.007812 264.054688 L 45.089844 250.585938 C 49.144531 245.203125 55.90625 242.589844 62.535156 243.839844 C 71.660156 245.625 77.839844 254.164062 76.675781 263.378906 C 74.964844 276.847656 71.082031 293.699219 62.292969 297.511719 L 62.203125 297.550781 L 71.3125 329.371094 L 37.53125 334.085938 Z M 35.617188 295.859375 "/>
<path style=" stroke:none;fill-rule:nonzero;fill:rgb(62.745098%,38.039216%,41.568627%);fill-opacity:1;" d="M 162.851562 293.050781 C 162.851562 293.050781 137.140625 272.976562 123.195312 270.09375 L 110.855469 288.078125 L 144.230469 308.507812 L 209.214844 327.277344 C 212.363281 330.765625 217.574219 331.480469 221.542969 328.960938 C 225.515625 326.445312 227.085938 321.429688 225.261719 317.101562 C 223.4375 312.769531 218.75 310.386719 214.171875 311.464844 Z M 162.851562 293.050781 "/>
<path style=" stroke:none;fill-rule:nonzero;fill:rgb(24.705882%,23.921569%,33.72549%);fill-opacity:1;" d="M 117.617188 297.082031 L 90.824219 279.886719 L 85.230469 264.023438 C 83.011719 257.664062 84.601562 250.597656 89.332031 245.792969 C 95.894531 239.214844 106.4375 238.839844 113.453125 244.933594 C 123.703125 253.847656 136.914062 256.835938 135.191406 266.25 L 140.128906 266.96875 L 165.359375 286.109375 L 150.480469 316.765625 Z M 117.617188 297.082031 "/>
<path style=" stroke:none;fill-rule:nonzero;fill:rgb(18.431373%,18.039216%,25.490196%);fill-opacity:1;" d="M 54.214844 182.253906 C 57.109375 177.785156 62.539062 174.804688 67.800781 175.640625 C 68.800781 168.804688 73.527344 163.089844 80.058594 160.816406 C 86.59375 158.542969 93.851562 160.09375 98.886719 164.832031 C 100.4375 163.601562 102.6875 163.539062 104.527344 164.269531 C 106.339844 165.09375 107.914062 166.355469 109.109375 167.945312 C 115.265625 175.609375 116.699219 186.03125 112.847656 195.070312 C 113.488281 192.734375 111.148438 190.539062 108.777344 190.015625 C 106.410156 189.492188 103.925781 189.984375 101.527344 189.644531 C 98.449219 189.207031 95.683594 187.425781 92.601562 187.023438 C 90.011719 186.6875 87.40625 187.347656 84.878906 188.015625 C 82.351562 188.679688 79.753906 189.355469 77.160156 189.050781 C 74.566406 188.742188 71.226562 198.5625 71.269531 205.476562 C 71.277344 206.789062 71.007812 208.472656 69.726562 208.75 C 68.144531 209.089844 67.230469 206.914062 65.726562 206.320312 C 64.390625 205.792969 62.785156 206.773438 62.316406 208.132812 C 61.933594 209.542969 62.253906 211.054688 63.183594 212.1875 C 64.105469 213.292969 65.203125 214.246094 66.429688 215.003906 L 65.8125 215.515625 C 64.78125 216.875 62.644531 216.933594 61.160156 216.09375 C 59.675781 215.253906 58.703125 213.757812 57.824219 212.296875 C 55.078125 207.734375 52.667969 202.875 51.699219 197.640625 C 50.730469 192.40625 51.324219 186.726562 54.214844 182.253906 Z M 54.214844 182.253906 "/>
<use xlink:href="#surface5" mask="url(#mask0)"/>
<use xlink:href="#surface8" mask="url(#mask1)"/>
<path style=" stroke:none;fill-rule:nonzero;fill:rgb(18.431373%,18.039216%,25.490196%);fill-opacity:1;" d="M 270.285156 334.558594 C 270.820312 336.121094 272.304688 337.15625 273.957031 337.128906 L 289.6875 336.722656 C 291.355469 336.691406 292.800781 335.566406 293.238281 333.960938 L 295.464844 310.183594 C 296.253906 310.542969 297.117188 310.71875 297.984375 310.703125 C 301.148438 310.621094 303.652344 307.992188 303.574219 304.828125 C 303.496094 301.664062 300.863281 299.164062 297.695312 299.246094 C 297.347656 299.242188 297.003906 299.28125 296.664062 299.351562 C 295.917969 298.546875 294.867188 298.09375 293.769531 298.105469 L 269.570312 298.730469 C 269.371094 298.734375 269.171875 298.761719 268.972656 298.804688 C 267.898438 299.003906 266.964844 299.65625 266.410156 300.597656 C 265.855469 301.535156 265.734375 302.667969 266.078125 303.703125 Z M 295.921875 308.570312 L 297.507812 302.90625 C 297.6875 302.25 297.691406 301.558594 297.519531 300.902344 C 297.59375 300.902344 297.664062 300.867188 297.738281 300.867188 C 300 300.820312 301.875 302.609375 301.925781 304.867188 C 301.980469 307.128906 300.195312 309.003906 297.933594 309.0625 C 297.230469 309.085938 296.535156 308.914062 295.921875 308.570312 Z M 295.921875 308.570312 "/>
<path style=" stroke:none;fill-rule:nonzero;fill:rgb(24.705882%,23.921569%,33.72549%);fill-opacity:1;" d="M 268.972656 298.804688 C 269.488281 301.746094 275.285156 303.816406 282.253906 303.457031 C 288.664062 303.164062 293.90625 300.914062 294.863281 298.25 C 294.507812 298.144531 294.140625 298.097656 293.769531 298.105469 L 269.570312 298.730469 C 269.371094 298.734375 269.171875 298.761719 268.972656 298.804688 Z M 268.972656 298.804688 "/>
<path style=" stroke:none;fill-rule:nonzero;fill:rgb(18.431373%,18.039216%,25.490196%);fill-opacity:1;" d="M 217.886719 302.519531 C 218.230469 301.484375 218.109375 300.351562 217.554688 299.410156 C 217 298.46875 216.066406 297.816406 214.992188 297.617188 C 214.796875 297.574219 214.597656 297.550781 214.394531 297.542969 L 190.199219 296.917969 C 189.101562 296.90625 188.046875 297.359375 187.304688 298.164062 C 186.964844 298.09375 186.617188 298.058594 186.273438 298.058594 C 183.105469 297.980469 180.472656 300.480469 180.394531 303.644531 C 180.3125 306.808594 182.816406 309.4375 185.984375 309.515625 C 186.851562 309.53125 187.710938 309.355469 188.5 309 L 190.726562 332.777344 C 191.167969 334.382812 192.613281 335.503906 194.277344 335.539062 L 210.011719 335.941406 C 211.664062 335.972656 213.144531 334.933594 213.683594 333.375 Z M 186.035156 307.875 C 183.773438 307.816406 181.984375 305.941406 182.039062 303.683594 C 182.09375 301.421875 183.964844 299.632812 186.226562 299.679688 C 186.304688 299.679688 186.371094 299.71875 186.449219 299.71875 C 186.277344 300.375 186.28125 301.0625 186.460938 301.71875 L 188.042969 307.386719 C 187.429688 307.726562 186.738281 307.898438 186.035156 307.875 Z M 186.035156 307.875 "/>
<path style=" stroke:none;fill-rule:nonzero;fill:rgb(24.705882%,23.921569%,33.72549%);fill-opacity:1;" d="M 214.992188 297.617188 C 214.476562 300.5625 208.679688 302.628906 201.710938 302.269531 C 195.300781 301.976562 190.0625 299.726562 189.101562 297.0625 C 189.457031 296.960938 189.828125 296.910156 190.199219 296.917969 L 214.394531 297.542969 C 214.597656 297.550781 214.796875 297.574219 214.992188 297.617188 Z M 214.992188 297.617188 "/>
<path style=" stroke:none;fill-rule:nonzero;fill:rgb(61.960784%,38.039216%,41.568627%);fill-opacity:1;" d="M 192.058594 245.96875 C 194.515625 244.175781 197.636719 243.5625 200.585938 244.292969 C 203.535156 245.023438 206.011719 247.019531 207.347656 249.75 L 243.578125 245.371094 L 235.113281 262.320312 L 202.003906 263.878906 C 197.164062 265.859375 191.605469 263.90625 189.066406 259.335938 C 186.53125 254.765625 187.816406 249.023438 192.058594 245.96875 Z M 192.058594 245.96875 "/>
<path style=" stroke:none;fill-rule:nonzero;fill:rgb(42.352941%,38.823529%,100%);fill-opacity:1;" d="M 310.21875 211.441406 C 309.152344 213.535156 307.851562 215.972656 306.390625 218.628906 C 301.257812 227.996094 294.210938 240.082031 288.78125 249.28125 C 284.144531 257.128906 280.683594 262.882812 280.585938 263.042969 L 280.4375 263.28125 L 248.558594 263.996094 L 241.714844 264.152344 L 239.386719 264.207031 L 214.40625 264.769531 L 214.644531 263.285156 L 216.976562 248.589844 L 217.214844 247.085938 L 239.097656 243.457031 L 247.097656 242.136719 L 264.839844 239.191406 L 267.921875 230.105469 C 273.351562 214.136719 282.421875 199.644531 294.417969 187.777344 C 294.769531 187.4375 295.125 187.117188 295.5 186.816406 C 295.824219 186.554688 296.15625 186.304688 296.496094 186.078125 C 297.933594 188.113281 299.214844 189.953125 300.304688 191.429688 L 302.933594 195.007812 C 306.523438 199.894531 309.011719 205.5 310.21875 211.441406 Z M 310.21875 211.441406 "/>
<path style=" stroke:none;fill-rule:nonzero;fill:rgb(80%,80%,80%);fill-opacity:1;" d="M 177.648438 265.757812 C 178.183594 267.320312 179.667969 268.355469 181.320312 268.328125 L 197.050781 267.921875 C 198.71875 267.890625 200.164062 266.765625 200.601562 265.160156 L 202.828125 241.382812 C 203.617188 241.742188 204.480469 241.917969 205.347656 241.898438 C 208.511719 241.820312 211.015625 239.191406 210.9375 236.027344 C 210.859375 232.863281 208.226562 230.363281 205.058594 230.441406 C 204.710938 230.441406 204.367188 230.476562 204.027344 230.550781 C 203.28125 229.746094 202.230469 229.292969 201.132812 229.304688 L 176.933594 229.925781 C 176.734375 229.933594 176.535156 229.960938 176.335938 230 C 175.261719 230.199219 174.328125 230.855469 173.773438 231.792969 C 173.21875 232.734375 173.097656 233.867188 173.441406 234.902344 Z M 203.285156 239.769531 L 204.871094 234.101562 C 205.050781 233.449219 205.054688 232.757812 204.882812 232.101562 C 204.957031 232.101562 205.027344 232.066406 205.105469 232.066406 C 207.363281 232.019531 209.238281 233.808594 209.289062 236.066406 C 209.34375 238.324219 207.558594 240.199219 205.296875 240.261719 C 204.59375 240.28125 203.898438 240.113281 203.285156 239.769531 Z M 203.285156 239.769531 "/>
<path style=" stroke:none;fill-rule:nonzero;fill:rgb(24.705882%,23.921569%,33.72549%);fill-opacity:1;" d="M 176.335938 230 C 176.851562 232.945312 182.648438 235.015625 189.617188 234.65625 C 196.027344 234.359375 201.269531 232.113281 202.226562 229.449219 C 201.871094 229.34375 201.503906 229.292969 201.132812 229.304688 L 176.933594 229.925781 C 176.734375 229.933594 176.535156 229.960938 176.335938 230 Z M 176.335938 230 "/>
</g>
</svg>
