<?xml version="1.0" encoding="UTF-8"?>
<svg xmlns="http://www.w3.org/2000/svg" xmlns:xlink="http://www.w3.org/1999/xlink" width="500px" height="500px" viewBox="0 0 500 500" version="1.1">
<g id="surface1">
<path style=" stroke:none;fill-rule:nonzero;fill:rgb(90.196078%,90.196078%,90.196078%);fill-opacity:1;" d="M 0.214844 0.441406 L 500.132812 0.441406 L 500.132812 499.636719 L 0.214844 499.636719 Z M 0.214844 0.441406 "/>
<path style=" stroke:none;fill-rule:nonzero;fill:rgb(100%,100%,100%);fill-opacity:1;" d="M 14.507812 63.054688 L 485.835938 63.054688 L 485.835938 470.105469 L 14.507812 470.105469 Z M 14.507812 63.054688 "/>
<path style=" stroke:none;fill-rule:nonzero;fill:rgb(42.352941%,38.823529%,100%);fill-opacity:1;" d="M 0 0 L 499.917969 0 L 499.917969 33.113281 L 0 33.113281 Z M 0 0 "/>
<path style=" stroke:none;fill-rule:nonzero;fill:rgb(100%,100%,100%);fill-opacity:1;" d="M 19.71875 16.929688 C 19.71875 20.320312 17.957031 23.066406 15.78125 23.066406 C 13.609375 23.066406 11.847656 20.320312 11.847656 16.929688 C 11.847656 13.539062 13.609375 10.792969 15.78125 10.792969 C 17.957031 10.792969 19.71875 13.539062 19.71875 16.929688 Z M 19.71875 16.929688 "/>
<path style=" stroke:none;fill-rule:nonzero;fill:rgb(100%,100%,100%);fill-opacity:1;" d="M 34.660156 16.929688 C 34.660156 20.320312 32.898438 23.066406 30.722656 23.066406 C 28.550781 23.066406 26.789062 20.320312 26.789062 16.929688 C 26.789062 13.539062 28.550781 10.792969 30.722656 10.792969 C 32.898438 10.792969 34.660156 13.539062 34.660156 16.929688 Z M 34.660156 16.929688 "/>
<path style=" stroke:none;fill-rule:nonzero;fill:rgb(100%,100%,100%);fill-opacity:1;" d="M 49.601562 16.929688 C 49.601562 20.320312 47.839844 23.066406 45.664062 23.066406 C 43.492188 23.066406 41.730469 20.320312 41.730469 16.929688 C 41.730469 13.539062 43.492188 10.792969 45.664062 10.792969 C 47.839844 10.792969 49.601562 13.539062 49.601562 16.929688 Z M 49.601562 16.929688 "/>
<path style=" stroke:none;fill-rule:nonzero;fill:rgb(90.196078%,90.196078%,90.196078%);fill-opacity:1;" d="M 72.5 96.535156 L 164.683594 96.535156 L 164.683594 252.46875 L 72.5 252.46875 Z M 72.5 96.535156 "/>
<path style=" stroke:none;fill-rule:nonzero;fill:rgb(90.196078%,90.196078%,90.196078%);fill-opacity:1;" d="M 204.078125 96.535156 L 296.265625 96.535156 L 296.265625 252.46875 L 204.078125 252.46875 Z M 204.078125 96.535156 "/>
<path style=" stroke:none;fill-rule:nonzero;fill:rgb(90.196078%,90.196078%,90.196078%);fill-opacity:1;" d="M 335.65625 96.535156 L 427.84375 96.535156 L 427.84375 252.46875 L 335.65625 252.46875 Z M 335.65625 96.535156 "/>
<path style=" stroke:none;fill-rule:nonzero;fill:rgb(90.196078%,90.196078%,90.196078%);fill-opacity:1;" d="M 72.5 280.695312 L 164.683594 280.695312 L 164.683594 436.628906 L 72.5 436.628906 Z M 72.5 280.695312 "/>
<path style=" stroke:none;fill-rule:nonzero;fill:rgb(90.196078%,90.196078%,90.196078%);fill-opacity:1;" d="M 204.078125 280.695312 L 296.265625 280.695312 L 296.265625 436.628906 L 204.078125 436.628906 Z M 204.078125 280.695312 "/>
<path style=" stroke:none;fill-rule:nonzero;fill:rgb(90.196078%,90.196078%,90.196078%);fill-opacity:1;" d="M 335.65625 280.695312 L 427.84375 280.695312 L 427.84375 436.628906 L 335.65625 436.628906 Z M 335.65625 280.695312 "/>
<path style=" stroke:none;fill-rule:nonzero;fill:rgb(100%,72.54902%,72.54902%);fill-opacity:1;" d="M 123.890625 166.527344 C 123.890625 179.945312 116.914062 190.824219 108.308594 190.824219 C 99.703125 190.824219 92.726562 179.945312 92.726562 166.527344 C 92.726562 153.109375 99.703125 142.230469 108.308594 142.230469 C 116.914062 142.230469 123.890625 153.109375 123.890625 166.527344 Z M 123.890625 166.527344 "/>
<path style=" stroke:none;fill-rule:nonzero;fill:rgb(100%,72.54902%,72.54902%);fill-opacity:1;" d="M 102.21875 185.128906 C 102.21875 185.128906 104.167969 199.554688 104.167969 201.074219 C 104.167969 202.589844 113.421875 209.425781 113.421875 209.425781 L 121.699219 207.148438 L 124.621094 193.480469 C 124.621094 193.480469 119.75 182.089844 119.75 177.535156 Z M 102.21875 185.128906 "/>
<path style=" stroke:none;fill-rule:nonzero;fill:rgb(18.431373%,18.039216%,25.490196%);fill-opacity:1;" d="M 94.792969 146.953125 C 94.792969 146.953125 99.742188 130.238281 109.222656 134.09375 C 118.707031 137.953125 124.066406 143.738281 124.480469 149.523438 C 124.890625 155.308594 124.273438 163.988281 124.273438 163.988281 C 124.273438 163.988281 123.242188 152.09375 116.644531 154.664062 C 110.050781 157.238281 99.742188 155.308594 99.742188 155.308594 L 98.09375 178.449219 C 98.09375 178.449219 96.238281 174.273438 94.175781 176.84375 C 92.113281 179.414062 88.199219 152.09375 94.792969 146.953125 Z M 94.792969 146.953125 "/>
<path style=" stroke:none;fill-rule:nonzero;fill:rgb(42.352941%,38.823529%,100%);fill-opacity:1;" d="M 157.734375 246.628906 L 153.839844 219.292969 C 151.886719 210.179688 147.023438 202.59375 147.023438 202.59375 L 123.007812 189.425781 L 123.003906 189.425781 C 122.90625 196.214844 120.027344 202.140625 115.859375 204.121094 C 108.554688 207.90625 103.523438 195.140625 103.523438 195.140625 L 83.222656 219.292969 C 83.222656 219.292969 76.894531 227.648438 77.382812 243.59375 L 76.710938 252.46875 L 159.605469 252.46875 Z M 157.734375 246.628906 "/>
<path style=" stroke:none;fill-rule:nonzero;fill:rgb(18.431373%,18.039216%,25.490196%);fill-opacity:1;" d="M 260.683594 167.921875 C 260.683594 148.589844 251.214844 132.917969 239.535156 132.917969 C 227.851562 132.917969 218.382812 148.589844 218.382812 167.921875 C 218.382812 187.257812 227.851562 202.929688 239.535156 202.929688 C 251.214844 202.929688 260.683594 187.257812 260.683594 167.921875 Z M 260.683594 167.921875 "/>
<path style=" stroke:none;fill-rule:nonzero;fill:rgb(18.431373%,18.039216%,25.490196%);fill-opacity:1;" d="M 269.429688 203.550781 C 269.429688 213.132812 264.445312 220.898438 258.300781 220.898438 C 252.15625 220.898438 247.175781 213.132812 247.175781 203.550781 C 247.175781 193.96875 252.15625 186.203125 258.300781 186.203125 C 264.445312 186.203125 269.429688 193.96875 269.429688 203.550781 Z M 269.429688 203.550781 "/>
<path style=" stroke:none;fill-rule:nonzero;fill:rgb(62.352941%,38.039216%,41.568627%);fill-opacity:1;" d="M 250.550781 180.316406 L 256.511719 204.480469 L 241.414062 214.394531 L 240.085938 209.707031 L 235.449219 193.328125 Z M 250.550781 180.316406 "/>
<path style=" stroke:none;fill-rule:nonzero;fill:rgb(62.352941%,38.039216%,41.568627%);fill-opacity:1;" d="M 251.941406 175.359375 C 251.941406 186.820312 245.984375 196.113281 238.628906 196.113281 C 231.277344 196.113281 225.316406 186.820312 225.316406 175.359375 C 225.316406 163.894531 231.277344 154.601562 238.628906 154.601562 C 245.984375 154.601562 251.941406 163.894531 251.941406 175.359375 Z M 251.941406 175.359375 "/>
<path style=" stroke:none;fill-rule:nonzero;fill:rgb(18.431373%,18.039216%,25.490196%);fill-opacity:1;" d="M 227.75 173.082031 C 236.117188 164.375 238.617188 162.296875 248.207031 165.660156 L 248.785156 143.84375 L 224 151.949219 Z M 227.75 173.082031 "/>
<path style=" stroke:none;fill-rule:nonzero;fill:rgb(34.117647%,35.294118%,53.72549%);fill-opacity:1;" d="M 281.546875 222.441406 L 281.179688 222.507812 C 281.167969 222.484375 281.160156 222.464844 281.148438 222.449219 C 279.691406 220.179688 272.738281 216.046875 267.554688 213.183594 L 267.550781 213.183594 C 264.257812 211.363281 261.679688 210.054688 261.679688 210.054688 L 255.414062 200.007812 C 253.835938 202.773438 250.5 204.910156 247.328125 206.417969 C 244.902344 207.5625 242.433594 208.480469 239.9375 209.167969 L 239.929688 209.167969 L 238.632812 215.625 C 238.632812 215.625 223.925781 232.984375 222.738281 234.835938 L 222.734375 234.835938 L 222.734375 234.855469 C 222.636719 235.066406 222.597656 235.324219 222.621094 235.578125 L 222.621094 235.625 C 221.878906 241.167969 221.5 246.808594 221.484375 252.46875 L 285.523438 252.46875 L 285.523438 246.609375 C 285.523438 238.554688 281.546875 222.441406 281.546875 222.441406 Z M 281.546875 222.441406 "/>
<path style=" stroke:none;fill-rule:nonzero;fill:rgb(18.431373%,18.039216%,25.490196%);fill-opacity:1;" d="M 399.304688 252.46875 L 367.640625 252.46875 L 365.898438 225.644531 L 365.792969 224.015625 L 365.578125 220.78125 L 364.703125 207.257812 L 363.609375 221.78125 L 361.292969 252.46875 L 355.542969 252.46875 L 355.757812 242.917969 L 355.96875 233.230469 L 356.0625 229.328125 L 357.242188 176.238281 C 357.152344 167.824219 358.859375 159.601562 362.097656 152.871094 C 365.738281 145.472656 371.410156 141.195312 377.390625 141.332031 C 383.488281 141.300781 389.246094 145.726562 392.945312 153.289062 C 396.292969 160.089844 398.082031 168.441406 398.03125 177.011719 L 398.578125 209.148438 Z M 399.304688 252.46875 "/>
<path style=" stroke:none;fill-rule:nonzero;fill:rgb(98.431373%,74.509804%,74.509804%);fill-opacity:1;" d="M 391.316406 173.519531 C 391.316406 185.515625 385.082031 195.234375 377.390625 195.234375 C 369.699219 195.234375 363.460938 185.515625 363.460938 173.519531 C 363.460938 161.527344 369.699219 151.804688 377.390625 151.804688 C 385.082031 151.804688 391.316406 161.527344 391.316406 173.519531 Z M 391.316406 173.519531 "/>
<path style=" stroke:none;fill-rule:nonzero;fill:rgb(98.431373%,74.509804%,74.509804%);fill-opacity:1;" d="M 370.425781 189.03125 C 370.425781 189.03125 374.40625 209.972656 370.425781 216.175781 C 366.445312 222.382812 365.453125 224.707031 365.453125 224.707031 L 376.894531 248.75 L 396.789062 210.746094 C 396.789062 210.746094 382.863281 204.542969 386.34375 187.480469 Z M 370.425781 189.03125 "/>
<path style=" stroke:none;fill-rule:nonzero;fill:rgb(98.431373%,74.509804%,74.509804%);fill-opacity:1;" d="M 413.394531 252.46875 L 401.644531 252.46875 L 401.449219 249.328125 L 401.269531 246.429688 L 406.679688 245.371094 L 413.203125 244.101562 L 413.277344 247.355469 Z M 413.394531 252.46875 "/>
<path style=" stroke:none;fill-rule:nonzero;fill:rgb(42.352941%,38.823529%,100%);fill-opacity:1;" d="M 414.199219 247.199219 C 414.199219 247.199219 412.210938 227.808594 410.71875 220.054688 C 409.226562 212.296875 407.734375 212.296875 407.734375 212.296875 C 405.976562 209.558594 401.753906 209.070312 398.578125 209.148438 C 396.351562 209.1875 394.636719 209.492188 394.636719 209.492188 L 376.894531 238.671875 L 367.960938 220.148438 L 367.960938 220.140625 C 367.15625 220.238281 366.359375 220.453125 365.578125 220.78125 C 364.910156 221.046875 364.25 221.378906 363.609375 221.78125 C 360.839844 223.625 358.289062 226.175781 356.0625 229.328125 L 356.054688 229.328125 C 354.769531 231.132812 354.011719 232.460938 354.011719 232.460938 C 352.042969 238.835938 350.5625 245.554688 349.59375 252.46875 L 406.449219 252.46875 L 406.574219 248.480469 L 406.574219 248.472656 Z M 414.199219 247.199219 "/>
<path style=" stroke:none;fill-rule:nonzero;fill:rgb(18.431373%,18.039216%,25.490196%);fill-opacity:1;" d="M 365.699219 170.03125 C 374.695312 162.46875 378.390625 162.789062 389.578125 170.03125 L 392.5625 158.695312 C 392.558594 154.25 390.25 150.648438 387.398438 150.640625 L 367.382812 150.640625 C 364.53125 150.648438 362.222656 154.25 362.21875 158.695312 Z M 365.699219 170.03125 "/>
<path style=" stroke:none;fill-rule:nonzero;fill:rgb(18.431373%,18.039216%,25.490196%);fill-opacity:1;" d="M 117.375 318.4375 C 116.632812 318.339844 115.890625 318.601562 115.246094 319.175781 C 114.632812 319.992188 114.144531 321 113.804688 322.140625 C 112.25 326.402344 110.140625 330.117188 107.617188 333.042969 C 105.777344 335.144531 103.4375 337.765625 103.75 341.636719 C 103.917969 342.917969 104.222656 344.144531 104.648438 345.265625 C 106.34375 350.609375 110.976562 354.734375 110.519531 360.828125 C 112.207031 356.429688 109.953125 354.253906 111.636719 349.851562 C 112.441406 347.757812 113.835938 345.390625 115.046875 346.707031 C 115.453125 347.148438 115.71875 347.9375 116.144531 348.324219 C 117.152344 349.246094 118.222656 347.484375 119.117188 346.234375 C 122.195312 341.925781 126.574219 343.054688 130.402344 344.398438 C 132.210938 345.03125 134.199219 345.863281 135.265625 348.554688 C 136.671875 352.101562 133.929688 355.925781 133.238281 359.933594 C 133.125 360.625 133.234375 361.363281 133.535156 361.902344 C 133.832031 362.445312 134.285156 362.722656 134.742188 362.648438 C 135.890625 362.472656 137.253906 362.328125 137.320312 361.539062 C 138.765625 361.621094 140.539062 361.367188 141.15625 359.019531 C 141.347656 358.089844 141.449219 357.121094 141.453125 356.148438 C 141.683594 352.203125 142.753906 348.605469 143.46875 344.851562 C 144.179688 341.097656 144.488281 336.699219 143.289062 333.371094 C 142.859375 332.265625 142.328125 331.261719 141.714844 330.390625 C 134.902344 320.117188 125.949219 318.421875 117.375 318.4375 Z M 117.375 318.4375 "/>
<path style=" stroke:none;fill-rule:nonzero;fill:rgb(62.352941%,38.039216%,41.568627%);fill-opacity:1;" d="M 112.003906 368.527344 C 112.003906 368.527344 113.484375 387.773438 108.050781 389.3125 C 102.621094 390.851562 112.988281 417.027344 112.988281 417.027344 L 137.675781 421.644531 L 131.75 390.851562 C 131.75 390.851562 127.800781 388.542969 130.269531 373.148438 C 132.738281 357.75 112.003906 368.527344 112.003906 368.527344 Z M 112.003906 368.527344 "/>
<path style=" stroke:none;fill-rule:nonzero;fill:rgb(62.352941%,38.039216%,41.568627%);fill-opacity:1;" d="M 137.921875 358.136719 C 137.921875 370.890625 131.292969 381.230469 123.109375 381.230469 C 114.929688 381.230469 108.300781 370.890625 108.300781 358.136719 C 108.300781 345.382812 114.929688 335.042969 123.109375 335.042969 C 131.292969 335.042969 137.921875 345.382812 137.921875 358.136719 Z M 137.921875 358.136719 "/>
<path style=" stroke:none;fill-rule:nonzero;fill:rgb(42.352941%,38.823529%,100%);fill-opacity:1;" d="M 97.617188 436.628906 C 100.234375 420.570312 103.851562 398.9375 103.851562 398.9375 C 103.851562 398.9375 105.261719 399.386719 107.476562 399.890625 C 110.710938 400.644531 113.972656 401.105469 117.242188 401.277344 C 121.429688 401.457031 125.835938 401.027344 129.246094 399.1875 C 130.53125 398.542969 131.730469 397.542969 132.789062 396.238281 C 133.234375 395.679688 133.632812 395.035156 133.976562 394.320312 C 139.898438 382 142.367188 428.957031 142.367188 428.957031 L 142.824219 436.628906 Z M 97.617188 436.628906 "/>
<path style=" stroke:none;fill-rule:nonzero;fill:rgb(100%,72.156863%,72.156863%);fill-opacity:1;" d="M 144.941406 486.246094 C 144.746094 486.246094 144.550781 486.257812 144.355469 486.277344 L 144.636719 485.457031 C 144.734375 485.710938 144.832031 485.980469 144.941406 486.246094 Z M 144.941406 486.246094 "/>
<path style=" stroke:none;fill-rule:nonzero;fill:rgb(18.431373%,18.039216%,25.490196%);fill-opacity:1;" d="M 118.09375 324.480469 C 117.5 324.410156 116.898438 324.589844 116.363281 325.003906 C 115.878906 325.554688 115.476562 326.269531 115.191406 327.097656 C 113.875 330.183594 112.15625 332.808594 110.152344 334.804688 C 108.652344 336.289062 106.75 338.140625 107.007812 340.878906 C 107.144531 341.796875 107.394531 342.664062 107.734375 343.441406 C 109.121094 347.253906 109.675781 351.667969 109.308594 356.015625 L 113.425781 346.683594 C 114.078125 345.203125 115.214844 343.53125 116.203125 344.460938 C 116.53125 344.773438 116.75 345.332031 117.09375 345.605469 C 117.914062 346.253906 118.789062 345.007812 119.515625 344.125 C 122.019531 341.082031 125.582031 341.878906 128.703125 342.828125 C 130.171875 343.273438 131.789062 343.863281 132.660156 345.769531 C 134.105469 348.933594 132.597656 353.507812 133.441406 357.164062 C 133.917969 356.640625 134.238281 355.839844 134.332031 354.945312 C 135.507812 355 136.953125 354.820312 137.457031 353.160156 C 137.609375 352.511719 137.691406 351.824219 137.699219 351.132812 C 137.882812 348.34375 138.757812 345.800781 139.335938 343.148438 C 139.914062 340.496094 140.167969 337.386719 139.191406 335.035156 C 138.832031 334.238281 138.402344 333.527344 137.910156 332.929688 C 132.367188 325.664062 125.078125 324.46875 118.09375 324.480469 Z M 118.09375 324.480469 "/>
<path style=" stroke:none;fill-rule:nonzero;fill:rgb(18.431373%,18.039216%,25.490196%);fill-opacity:1;" d="M 116.691406 399.703125 C 113.3125 393.679688 111.308594 384.902344 111.214844 384.511719 L 111.214844 384.5 C 111.214844 384.5 105.828125 379.691406 104.347656 384.308594 C 102.867188 388.929688 89.042969 400.472656 87.5625 400.472656 C 87.550781 400.484375 87.539062 400.488281 87.523438 400.492188 C 86.9375 400.796875 79.582031 404.96875 77.691406 420.492188 C 77.175781 425.835938 76.902344 431.226562 76.871094 436.628906 L 117.132812 436.628906 C 117.550781 429.824219 117.859375 423.460938 117.984375 417.964844 C 118.160156 410.300781 117.988281 404.347656 117.242188 401.277344 C 117.125 400.703125 116.9375 400.167969 116.691406 399.703125 Z M 116.691406 399.703125 "/>
<path style=" stroke:none;fill-rule:nonzero;fill:rgb(18.431373%,18.039216%,25.490196%);fill-opacity:1;" d="M 151.3125 404.035156 C 151.289062 403.851562 151.269531 403.699219 151.25 403.554688 C 151.1875 403.148438 151.074219 402.757812 150.921875 402.410156 C 150.917969 402.402344 150.914062 402.394531 150.914062 402.382812 C 148.0625 395.492188 129.722656 386.007812 129.722656 386.007812 L 129.035156 389.703125 C 129.035156 389.703125 129.121094 393.347656 129.246094 399.1875 C 129.367188 404.652344 129.511719 412.039062 129.65625 420.148438 C 129.753906 425.445312 129.839844 431.054688 129.917969 436.628906 L 157.351562 436.628906 C 155.816406 425.5625 153.796875 414.671875 151.3125 404.035156 Z M 151.3125 404.035156 "/>
<path style=" stroke:none;fill-rule:nonzero;fill:rgb(34.117647%,35.294118%,53.72549%);fill-opacity:1;" d="M 408.007812 436.628906 L 410.105469 420.636719 L 412.058594 419.347656 L 412.070312 419.359375 C 412.25 419.460938 414.371094 420.867188 414.371094 426.179688 C 414.371094 427.25 414.269531 431.09375 414.097656 436.628906 Z M 408.007812 436.628906 "/>
<path style=" stroke:none;fill-rule:nonzero;fill:rgb(100%,72.156863%,72.156863%);fill-opacity:1;" d="M 403.007812 354.191406 C 403.007812 368.871094 395.375 380.769531 385.960938 380.769531 C 376.542969 380.769531 368.910156 368.871094 368.910156 354.191406 C 368.910156 339.511719 376.542969 327.609375 385.960938 327.609375 C 395.375 327.609375 403.007812 339.511719 403.007812 354.191406 Z M 403.007812 354.191406 "/>
<path style=" stroke:none;fill-rule:nonzero;fill:rgb(100%,72.156863%,72.156863%);fill-opacity:1;" d="M 396.613281 369.695312 L 395.195312 415.101562 L 373.171875 395.167969 L 376.015625 369.695312 Z M 396.613281 369.695312 "/>
<path style=" stroke:none;fill-rule:nonzero;fill:rgb(42.352941%,38.823529%,100%);fill-opacity:1;" d="M 403.007812 417.316406 L 401.5625 436.628906 L 390.003906 436.628906 L 377.457031 399.042969 L 373.917969 388.460938 L 372.222656 386.734375 L 374.1875 386.039062 L 375.738281 387.785156 L 393.0625 407.355469 L 395.839844 394.347656 L 395.914062 394.015625 L 396.613281 390.742188 Z M 403.007812 417.316406 "/>
<path style=" stroke:none;fill-rule:nonzero;fill:rgb(18.431373%,18.039216%,25.490196%);fill-opacity:1;" d="M 375.660156 328.164062 C 375.660156 328.164062 377.789062 311.550781 389.867188 314.875 L 388.445312 315.980469 C 388.445312 315.980469 399.8125 313.765625 398.390625 323.734375 C 398.390625 323.734375 407.625 332.59375 405.492188 342.5625 C 404.238281 348.339844 403.289062 354.265625 402.652344 360.28125 L 400.519531 356.957031 C 400.519531 356.957031 398.390625 334.808594 385.605469 337.023438 C 376.015625 338.683594 372.109375 345.746094 371.109375 350.832031 C 370.648438 353.226562 370.0625 355.554688 369.355469 357.792969 L 368.558594 358.066406 C 368.558594 358.066406 364.296875 333.699219 375.660156 328.164062 Z M 375.660156 328.164062 "/>
<path style=" stroke:none;fill-rule:nonzero;fill:rgb(18.431373%,18.039216%,25.490196%);fill-opacity:1;" d="M 412.070312 419.359375 L 412.058594 419.347656 L 403.007812 406.238281 L 403.007812 397.382812 L 396.019531 388.792969 L 395.914062 394.015625 L 395.191406 429.5 L 383.570312 404.578125 L 375.738281 387.785156 L 374.328125 384.777344 L 374.671875 381.960938 L 370.332031 389.625 L 354.628906 407.992188 L 353.285156 409.566406 C 351.738281 411.976562 350.316406 414.566406 349.023438 417.316406 C 348.601562 418.296875 346.679688 426.125 344.175781 436.628906 L 414.097656 436.628906 C 414.269531 431.09375 414.371094 427.25 414.371094 426.179688 C 414.371094 420.867188 412.25 419.460938 412.070312 419.359375 Z M 412.070312 419.359375 "/>
<path style=" stroke:none;fill-rule:nonzero;fill:rgb(18.431373%,18.039216%,25.490196%);fill-opacity:1;" d="M 248.769531 324.992188 C 237.214844 324.992188 227.851562 341.199219 227.851562 361.1875 L 227.851562 386.582031 L 232.863281 386.582031 L 235.761719 377.171875 L 235.035156 386.582031 L 267.234375 386.582031 L 269.871094 378.027344 L 269.214844 386.582031 L 272.839844 386.582031 L 272.839844 366.640625 C 272.839844 343.640625 262.0625 324.992188 248.769531 324.992188 Z M 248.769531 324.992188 "/>
<path style=" stroke:none;fill-rule:nonzero;fill:rgb(81.568627%,80.392157%,88.235294%);fill-opacity:1;" d="M 231.886719 436.628906 L 218.285156 436.628906 L 218.15625 419.328125 C 218.148438 419.148438 218.148438 418.976562 218.148438 418.792969 L 220.871094 414.015625 L 220.921875 413.929688 L 231.320312 424.195312 Z M 231.886719 436.628906 "/>
<path style=" stroke:none;fill-rule:nonzero;fill:rgb(98.431373%,74.509804%,74.509804%);fill-opacity:1;" d="M 261.808594 359.816406 C 261.808594 372.636719 255.140625 383.03125 246.917969 383.03125 C 238.695312 383.03125 232.027344 372.636719 232.027344 359.816406 C 232.027344 346.992188 238.695312 336.601562 246.917969 336.601562 C 255.140625 336.601562 261.808594 346.992188 261.808594 359.816406 Z M 261.808594 359.816406 "/>
<path style=" stroke:none;fill-rule:nonzero;fill:rgb(98.431373%,74.509804%,74.509804%);fill-opacity:1;" d="M 238.378906 373.746094 C 238.378906 373.746094 242.75 409.035156 240.761719 412.75 C 238.777344 416.464844 261.808594 405.941406 261.808594 405.941406 C 261.808594 405.941406 254.265625 381.792969 258.234375 368.175781 Z M 238.378906 373.746094 "/>
<path style=" stroke:none;fill-rule:nonzero;fill:rgb(42.352941%,38.823529%,100%);fill-opacity:1;" d="M 278.777344 397.613281 L 278.773438 397.613281 C 278.421875 396.453125 277.816406 395.535156 277.066406 395.015625 C 274.144531 393.097656 271.632812 391.628906 269.5625 390.511719 C 265.902344 388.554688 261.914062 388.746094 258.339844 391.054688 C 257.988281 391.277344 257.648438 391.515625 257.308594 391.78125 C 257.308594 391.78125 242.75 396.105469 241.019531 395.558594 C 240.890625 395.523438 240.757812 395.492188 240.628906 395.472656 C 240.367188 395.414062 240.101562 395.378906 239.839844 395.371094 C 236.449219 395.125 233.089844 396.421875 230.167969 399.109375 C 225.390625 403.433594 218.300781 411.09375 218.15625 418.554688 L 218.019531 418.792969 L 218.15625 436.628906 L 282.058594 436.628906 C 282.1875 419.539062 282.261719 406.695312 282.261719 405.828125 C 282.261719 403.125 278.777344 397.613281 278.777344 397.613281 Z M 278.777344 397.613281 "/>
<path style=" stroke:none;fill-rule:nonzero;fill:rgb(18.431373%,18.039216%,25.490196%);fill-opacity:1;" d="M 254.714844 334.964844 C 252.675781 330.691406 249.476562 328.144531 246.058594 328.078125 L 245.648438 328.078125 C 237.730469 328.078125 231.3125 339.246094 231.3125 353.027344 L 233.964844 353.027344 L 234.394531 347.941406 L 235.023438 353.027344 L 250.757812 353.027344 L 252.074219 348.726562 L 251.746094 353.027344 L 254.839844 353.027344 C 256.285156 364.210938 254.210938 375.398438 248.613281 386.582031 L 253.886719 386.582031 L 256.523438 377.976562 L 255.867188 386.582031 L 265.917969 386.582031 L 267.894531 366.792969 C 267.894531 351.972656 262.371094 339.40625 254.714844 334.964844 Z M 254.714844 334.964844 "/>
<path style=" stroke:none;fill-rule:nonzero;fill:rgb(18.431373%,18.039216%,25.490196%);fill-opacity:1;" d="M 265.4375 324.832031 C 265.4375 331.578125 261.933594 337.046875 257.605469 337.046875 C 253.277344 337.046875 249.769531 331.578125 249.769531 324.832031 C 249.769531 318.085938 253.277344 312.617188 257.605469 312.617188 C 261.933594 312.617188 265.4375 318.085938 265.4375 324.832031 Z M 265.4375 324.832031 "/>
</g>
</svg>
