<?xml version="1.0" encoding="UTF-8"?>
<svg xmlns="http://www.w3.org/2000/svg" xmlns:xlink="http://www.w3.org/1999/xlink" width="500px" height="500px" viewBox="0 0 500 500" version="1.1">
<defs>
<filter id="alpha" filterUnits="objectBoundingBox" x="0%" y="0%" width="100%" height="100%">
  <feColorMatrix type="matrix" in="SourceGraphic" values="0 0 0 0 1 0 0 0 0 1 0 0 0 0 1 0 0 0 1 0"/>
</filter>
<mask id="mask0">
  <g filter="url(#alpha)">
<rect x="0" y="0" width="500" height="500" style="fill:rgb(0%,0%,0%);fill-opacity:0.4;stroke:none;"/>
  </g>
</mask>
<clipPath id="clip1">
  <rect x="0" y="0" width="500" height="500"/>
</clipPath>
<g id="surface5" clip-path="url(#clip1)">
<path style=" stroke:none;fill-rule:nonzero;fill:rgb(100%,100%,100%);fill-opacity:1;" d="M 485.488281 188.53125 C 485.488281 181.558594 481.820312 175.910156 477.292969 175.910156 C 472.769531 175.910156 469.101562 181.558594 469.101562 188.53125 C 469.101562 195.5 472.769531 201.152344 477.292969 201.152344 C 481.820312 201.152344 485.488281 195.5 485.488281 188.53125 Z M 485.488281 188.53125 "/>
</g>
<mask id="mask1">
  <g filter="url(#alpha)">
<rect x="0" y="0" width="500" height="500" style="fill:rgb(0%,0%,0%);fill-opacity:0.4;stroke:none;"/>
  </g>
</mask>
<clipPath id="clip2">
  <rect x="0" y="0" width="500" height="500"/>
</clipPath>
<g id="surface8" clip-path="url(#clip2)">
<path style=" stroke:none;fill-rule:nonzero;fill:rgb(100%,100%,100%);fill-opacity:1;" d="M 30.898438 180.71875 C 30.898438 173.746094 27.230469 168.097656 22.707031 168.097656 C 18.179688 168.097656 14.511719 173.746094 14.511719 180.71875 C 14.511719 187.6875 18.179688 193.339844 22.707031 193.339844 C 27.230469 193.339844 30.898438 187.6875 30.898438 180.71875 Z M 30.898438 180.71875 "/>
</g>
<mask id="mask2">
  <g filter="url(#alpha)">
<rect x="0" y="0" width="500" height="500" style="fill:rgb(0%,0%,0%);fill-opacity:0.101961;stroke:none;"/>
  </g>
</mask>
<clipPath id="clip3">
  <rect x="0" y="0" width="500" height="500"/>
</clipPath>
<g id="surface11" clip-path="url(#clip3)">
<path style=" stroke:none;fill-rule:nonzero;fill:rgb(0%,0%,0%);fill-opacity:1;" d="M 471.910156 421.101562 C 471.910156 449.480469 367.945312 499.828125 239.699219 499.828125 C 111.453125 499.828125 19.664062 397.796875 19.664062 369.417969 C 19.664062 341.042969 111.453125 397.0625 239.699219 397.0625 C 367.945312 397.0625 471.910156 392.726562 471.910156 421.101562 Z M 471.910156 421.101562 "/>
</g>
<mask id="mask3">
  <g filter="url(#alpha)">
<rect x="0" y="0" width="500" height="500" style="fill:rgb(0%,0%,0%);fill-opacity:0.101961;stroke:none;"/>
  </g>
</mask>
<clipPath id="clip4">
  <rect x="0" y="0" width="500" height="500"/>
</clipPath>
<g id="surface14" clip-path="url(#clip4)">
<path style=" stroke:none;fill-rule:nonzero;fill:rgb(0%,0%,0%);fill-opacity:1;" d="M 189.359375 395.207031 C 193.054688 390.984375 199.507812 386.585938 199.507812 386.585938 L 204.207031 348.042969 L 272.214844 348.125 L 276.917969 386.121094 C 282.402344 390.019531 285.796875 393.007812 287.785156 395.300781 C 290.804688 394.414062 294.105469 391.128906 276.917969 378.910156 L 272.214844 338.511719 L 204.207031 340.832031 L 199.507812 379.375 C 199.507812 379.375 180.050781 392.640625 189.359375 395.207031 Z M 189.359375 395.207031 "/>
</g>
<mask id="mask4">
  <g filter="url(#alpha)">
<rect x="0" y="0" width="500" height="500" style="fill:rgb(0%,0%,0%);fill-opacity:0.101961;stroke:none;"/>
  </g>
</mask>
<clipPath id="clip5">
  <rect x="0" y="0" width="500" height="500"/>
</clipPath>
<g id="surface17" clip-path="url(#clip5)">
<path style=" stroke:none;fill-rule:nonzero;fill:rgb(0%,0%,0%);fill-opacity:1;" d="M 392.6875 416.152344 C 379.40625 422.6875 367.566406 423.175781 355.414062 412.339844 C 349.285156 406.878906 343.71875 405.53125 339.542969 405.632812 C 344.105469 402.535156 359.230469 394.886719 386.054688 405.957031 C 388.03125 406.75 389.796875 408.238281 391.152344 410.246094 C 392.242188 411.878906 393.09375 413.949219 392.6875 416.152344 Z M 392.6875 416.152344 "/>
</g>
<mask id="mask5">
  <g filter="url(#alpha)">
<rect x="0" y="0" width="500" height="500" style="fill:rgb(0%,0%,0%);fill-opacity:0.101961;stroke:none;"/>
  </g>
</mask>
<clipPath id="clip6">
  <rect x="0" y="0" width="500" height="500"/>
</clipPath>
<g id="surface20" clip-path="url(#clip6)">
<path style=" stroke:none;fill-rule:nonzero;fill:rgb(0%,0%,0%);fill-opacity:1;" d="M 317.792969 420.699219 L 317.792969 425.34375 L 123.179688 425.34375 L 123.179688 421.628906 L 123.449219 420.699219 Z M 317.792969 420.699219 "/>
</g>
<mask id="mask6">
  <g filter="url(#alpha)">
<rect x="0" y="0" width="500" height="500" style="fill:rgb(0%,0%,0%);fill-opacity:0.4;stroke:none;"/>
  </g>
</mask>
<clipPath id="clip7">
  <rect x="0" y="0" width="500" height="500"/>
</clipPath>
<g id="surface23" clip-path="url(#clip7)">
<path style=" stroke:none;fill-rule:nonzero;fill:rgb(100%,100%,100%);fill-opacity:1;" d="M 430.710938 88.769531 C 430.710938 81.800781 427.042969 76.152344 422.519531 76.152344 C 417.992188 76.152344 414.324219 81.800781 414.324219 88.769531 C 414.324219 95.742188 417.992188 101.390625 422.519531 101.390625 C 427.042969 101.390625 430.710938 95.742188 430.710938 88.769531 Z M 430.710938 88.769531 "/>
</g>
<mask id="mask7">
  <g filter="url(#alpha)">
<rect x="0" y="0" width="500" height="500" style="fill:rgb(0%,0%,0%);fill-opacity:0.101961;stroke:none;"/>
  </g>
</mask>
<clipPath id="clip8">
  <rect x="0" y="0" width="500" height="500"/>
</clipPath>
<g id="surface26" clip-path="url(#clip8)">
<path style=" stroke:none;fill-rule:nonzero;fill:rgb(0%,0%,0%);fill-opacity:1;" d="M 282.585938 176.476562 L 282.585938 225.417969 L 279.96875 232.195312 L 279.96875 232.199219 L 277.285156 239.144531 L 277.285156 239.148438 L 271.875 253.160156 L 272.480469 201.148438 L 272.601562 190.65625 L 277.75 183.351562 L 277.75 183.347656 L 279.992188 180.164062 Z M 282.585938 176.476562 "/>
</g>
<mask id="mask8">
  <g filter="url(#alpha)">
<rect x="0" y="0" width="500" height="500" style="fill:rgb(0%,0%,0%);fill-opacity:0.101961;stroke:none;"/>
  </g>
</mask>
<clipPath id="clip9">
  <rect x="0" y="0" width="500" height="500"/>
</clipPath>
<g id="surface29" clip-path="url(#clip9)">
<path style=" stroke:none;fill-rule:nonzero;fill:rgb(0%,0%,0%);fill-opacity:1;" d="M 272.601562 183.238281 L 272.601562 201.15625 L 204.75 196.675781 L 204.75 178.757812 L 204.921875 178.523438 Z M 272.601562 183.238281 "/>
</g>
<mask id="mask9">
  <g filter="url(#alpha)">
<rect x="0" y="0" width="500" height="500" style="fill:rgb(0%,0%,0%);fill-opacity:0.14902;stroke:none;"/>
  </g>
</mask>
<clipPath id="clip10">
  <rect x="0" y="0" width="500" height="500"/>
</clipPath>
<g id="surface32" clip-path="url(#clip10)">
<path style=" stroke:none;fill-rule:nonzero;fill:rgb(0%,0%,0%);fill-opacity:1;" d="M 284.042969 159.597656 L 284.042969 177.765625 L 272.601562 201.15625 L 272.601562 183.238281 Z M 284.042969 159.597656 "/>
</g>
</defs>
<g id="surface1">
<path style=" stroke:none;fill-rule:nonzero;fill:rgb(94.901961%,94.901961%,94.901961%);fill-opacity:1;" d="M 392.363281 185.929688 C 371.332031 79.785156 298.675781 3.167969 213.386719 0.09375 C 168.300781 -1.53125 120.855469 17.664062 86.308594 84.835938 C 24.558594 204.914062 90.105469 287.890625 135.800781 327.320312 C 157.878906 346.40625 177.769531 369.359375 194.902344 395.507812 C 225.769531 442.527344 285.148438 500.953125 355.871094 409.40625 C 407.125 343.054688 406.367188 256.632812 392.363281 185.929688 Z M 392.363281 185.929688 "/>
<path style=" stroke:none;fill-rule:nonzero;fill:rgb(100%,39.607843%,51.764706%);fill-opacity:1;" d="M 500 209.5625 C 500 237.113281 482.601562 281.078125 461.140625 281.078125 C 439.683594 281.078125 422.285156 237.113281 422.285156 209.5625 C 422.285156 182.015625 439.683594 159.683594 461.140625 159.683594 C 482.601562 159.683594 500 182.015625 500 209.5625 Z M 500 209.5625 "/>
<path style="fill:none;stroke-width:2;stroke-linecap:butt;stroke-linejoin:miter;stroke:rgb(18.431373%,18.039216%,25.490196%);stroke-opacity:1;stroke-miterlimit:4;" d="M 1054.075219 504.80787 C 1043.645531 508.40237 1041.142406 522.62437 1044.730219 533.05687 C 1048.318031 543.48937 1055.919188 552.14087 1059.740625 562.48887 C 1061.484469 567.70837 1062.744375 573.07737 1063.486969 578.53087 C 1065.664688 591.51137 1067.859094 604.71937 1066.173656 617.77137 C 1064.58 630.16037 1059.565406 641.83437 1053.96675 652.99487 C 1043.119875 674.60737 1029.93675 694.95887 1014.642656 713.68537 " transform="matrix(0.468165,0,0,0.600962,-30.898876,-20.518552)"/>
<path style=" stroke:none;fill-rule:nonzero;fill:rgb(100%,39.607843%,51.764706%);fill-opacity:1;" d="M 464.886719 285.886719 C 462.390625 283.828125 459.894531 283.828125 457.398438 285.886719 L 457.398438 276.269531 L 464.886719 276.269531 Z M 464.886719 285.886719 "/>
<path style="fill:none;stroke-width:2;stroke-linecap:butt;stroke-linejoin:miter;stroke:rgb(18.431373%,18.039216%,25.490196%);stroke-opacity:1;stroke-miterlimit:4;" d="M 1043.044781 501.51887 C 1048.084406 504.07337 1054.050187 504.04737 1059.073125 501.45387 " transform="matrix(0.468165,0,0,0.600962,-30.898876,-20.518552)"/>
<use xlink:href="#surface5" mask="url(#mask0)"/>
<path style=" stroke:none;fill-rule:nonzero;fill:rgb(100%,39.607843%,51.764706%);fill-opacity:1;" d="M 0 201.75 C 0 229.300781 17.398438 273.265625 38.859375 273.265625 C 60.316406 273.265625 77.714844 229.300781 77.714844 201.75 C 77.714844 174.203125 60.316406 151.871094 38.859375 151.871094 C 17.398438 151.871094 0 174.203125 0 201.75 Z M 0 201.75 "/>
<path style="fill:none;stroke-width:2;stroke-linecap:butt;stroke-linejoin:miter;stroke:rgb(18.431373%,18.039216%,25.490196%);stroke-opacity:1;stroke-miterlimit:4;" d="M 145.924781 491.80787 C 156.354469 495.40237 158.857594 509.62437 155.269781 520.05687 C 151.681969 530.48937 144.080813 539.14087 140.259375 549.48887 C 138.515531 554.70837 137.255625 560.07737 136.513031 565.53087 C 134.335312 578.51137 132.140906 591.71937 133.826344 604.77137 C 135.42 617.16037 140.434594 628.83437 146.03325 639.99487 C 156.880125 661.60737 170.06325 681.95887 185.357344 700.68537 " transform="matrix(0.468165,0,0,0.600962,-30.898876,-20.518552)"/>
<path style=" stroke:none;fill-rule:nonzero;fill:rgb(100%,39.607843%,51.764706%);fill-opacity:1;" d="M 35.113281 278.074219 C 37.609375 276.015625 40.105469 276.015625 42.601562 278.074219 L 42.601562 268.457031 L 35.113281 268.457031 Z M 35.113281 278.074219 "/>
<path style="fill:none;stroke-width:2;stroke-linecap:butt;stroke-linejoin:miter;stroke:rgb(18.431373%,18.039216%,25.490196%);stroke-opacity:1;stroke-miterlimit:4;" d="M 156.955219 488.51887 C 151.915594 491.07337 145.949813 491.04737 140.926875 488.45387 " transform="matrix(0.468165,0,0,0.600962,-30.898876,-20.518552)"/>
<use xlink:href="#surface8" mask="url(#mask1)"/>
<path style=" stroke:none;fill-rule:nonzero;fill:rgb(24.705882%,23.921569%,33.72549%);fill-opacity:1;" d="M 471.910156 421.101562 C 471.910156 449.480469 367.945312 499.828125 239.699219 499.828125 C 111.453125 499.828125 19.664062 397.796875 19.664062 369.417969 C 19.664062 341.042969 111.453125 397.0625 239.699219 397.0625 C 367.945312 397.0625 471.910156 392.726562 471.910156 421.101562 Z M 471.910156 421.101562 "/>
<use xlink:href="#surface11" mask="url(#mask2)"/>
<path style=" stroke:none;fill-rule:nonzero;fill:rgb(24.705882%,23.921569%,33.72549%);fill-opacity:1;" d="M 471.910156 420.800781 C 471.910156 449.179688 367.945312 472.183594 239.699219 472.183594 C 111.453125 472.183594 19.664062 397.796875 19.664062 369.417969 C 19.664062 341.042969 111.453125 369.417969 239.699219 369.417969 C 367.945312 369.417969 471.910156 392.425781 471.910156 420.800781 Z M 471.910156 420.800781 "/>
<path style=" stroke:none;fill-rule:nonzero;fill:rgb(18.431373%,18.039216%,25.490196%);fill-opacity:1;" d="M 204.207031 340.832031 L 199.507812 379.375 C 199.507812 379.375 176.355469 395.160156 192.632812 395.625 C 208.910156 396.089844 285.597656 395.625 285.597656 395.625 C 285.597656 395.625 300.429688 395.625 276.917969 378.910156 L 272.214844 338.511719 Z M 204.207031 340.832031 "/>
<use xlink:href="#surface14" mask="url(#mask3)"/>
<path style=" stroke:none;fill-rule:nonzero;fill:rgb(18.431373%,18.039216%,25.490196%);fill-opacity:1;" d="M 95.429688 72.210938 L 380.273438 72.210938 C 386.222656 72.210938 391.046875 78.402344 391.046875 86.039062 L 391.046875 332.34375 C 391.046875 339.980469 386.222656 346.171875 380.273438 346.171875 L 95.429688 346.171875 C 89.476562 346.171875 84.65625 339.980469 84.65625 332.34375 L 84.65625 86.039062 C 84.65625 78.402344 89.476562 72.210938 95.429688 72.210938 Z M 95.429688 72.210938 "/>
<path style=" stroke:none;fill-rule:nonzero;fill:rgb(24.705882%,23.921569%,33.72549%);fill-opacity:1;" d="M 94.964844 86.835938 L 380.734375 86.835938 L 380.734375 292.078125 L 94.964844 292.078125 Z M 94.964844 86.835938 "/>
<path style=" stroke:none;fill-rule:nonzero;fill:rgb(94.901961%,94.901961%,94.901961%);fill-opacity:1;" d="M 239.660156 80.335938 C 239.660156 81.617188 238.847656 82.65625 237.851562 82.65625 C 236.851562 82.65625 236.042969 81.617188 236.042969 80.335938 C 236.042969 79.054688 236.851562 78.015625 237.851562 78.015625 C 238.847656 78.015625 239.660156 79.054688 239.660156 80.335938 Z M 239.660156 80.335938 "/>
<path style=" stroke:none;fill-rule:nonzero;fill:rgb(18.431373%,18.039216%,25.490196%);fill-opacity:1;" d="M 391.046875 308.328125 L 391.046875 332.34375 C 391.046875 339.980469 386.222656 346.171875 380.273438 346.171875 L 95.429688 346.171875 C 89.476562 346.171875 84.65625 339.980469 84.65625 332.34375 L 84.65625 308.328125 Z M 391.046875 308.328125 "/>
<path style=" stroke:none;fill-rule:nonzero;fill:rgb(18.431373%,18.039216%,25.490196%);fill-opacity:1;" d="M 317.792969 420.699219 L 317.792969 425.34375 L 123.179688 425.34375 L 123.179688 421.628906 L 123.449219 420.699219 L 128.246094 403.984375 L 313.816406 403.984375 Z M 317.792969 420.699219 "/>
<path style=" stroke:none;fill-rule:nonzero;fill:rgb(18.431373%,18.039216%,25.490196%);fill-opacity:1;" d="M 392.6875 416.152344 C 392.332031 418.097656 390.996094 420.152344 387.96875 422.09375 C 377.117188 429.058594 355.050781 420.234375 355.050781 420.234375 C 355.050781 420.234375 338.050781 416.519531 338.050781 406.769531 C 338.527344 406.351562 339.027344 405.96875 339.542969 405.632812 C 344.105469 402.535156 359.230469 394.886719 386.054688 405.957031 C 388.03125 406.75 389.796875 408.238281 391.152344 410.246094 C 392.242188 411.878906 393.09375 413.949219 392.6875 416.152344 Z M 392.6875 416.152344 "/>
<use xlink:href="#surface17" mask="url(#mask4)"/>
<path style=" stroke:none;fill-rule:nonzero;fill:rgb(94.901961%,94.901961%,94.901961%);fill-opacity:1;" d="M 380.734375 410.484375 C 380.734375 409.457031 378.628906 408.625 376.035156 408.625 C 373.4375 408.625 371.332031 409.457031 371.332031 410.484375 C 371.332031 411.511719 373.4375 412.339844 376.035156 412.339844 C 378.628906 412.339844 380.734375 411.511719 380.734375 410.484375 Z M 380.734375 410.484375 "/>
<path style=" stroke:none;fill-rule:nonzero;fill:rgb(94.901961%,94.901961%,94.901961%);fill-opacity:1;" d="M 244.722656 327.367188 C 244.722656 332.238281 241.644531 336.1875 237.851562 336.1875 C 234.054688 336.1875 230.976562 332.238281 230.976562 327.367188 C 230.976562 322.496094 234.054688 318.542969 237.851562 318.542969 C 241.644531 318.542969 244.722656 322.496094 244.722656 327.367188 Z M 244.722656 327.367188 "/>
<use xlink:href="#surface20" mask="url(#mask5)"/>
<path style="fill:none;stroke-width:2;stroke-linecap:butt;stroke-linejoin:miter;stroke:rgb(18.431373%,18.039216%,25.490196%);stroke-opacity:1;stroke-miterlimit:4;" d="M 937.070813 338.81087 C 926.641125 342.39887 924.146344 356.62087 927.734156 367.05337 C 931.321969 377.48587 938.923125 386.13737 942.744563 396.48537 C 944.488406 401.70487 945.739969 407.07387 946.482563 412.52737 C 948.668625 425.50787 950.854688 438.71587 949.177594 451.77437 C 947.575594 464.15687 942.561 475.83737 936.962344 486.99787 C 926.123813 508.61037 912.932344 528.96187 897.63825 547.68837 " transform="matrix(0.468165,0,0,0.600962,-30.898876,-20.518552)"/>
<path style=" stroke:none;fill-rule:nonzero;fill:rgb(42.352941%,38.823529%,100%);fill-opacity:1;" d="M 445.226562 109.804688 C 445.226562 137.351562 427.828125 181.320312 406.367188 181.320312 C 384.90625 181.320312 367.507812 137.351562 367.507812 109.804688 C 367.507812 82.257812 384.90625 59.925781 406.367188 59.925781 C 427.828125 59.925781 445.226562 82.257812 445.226562 109.804688 Z M 445.226562 109.804688 "/>
<path style=" stroke:none;fill-rule:nonzero;fill:rgb(42.352941%,38.823529%,100%);fill-opacity:1;" d="M 410.113281 186.125 C 407.617188 184.070312 405.117188 184.070312 402.621094 186.125 L 402.621094 176.511719 L 410.113281 176.511719 Z M 410.113281 186.125 "/>
<path style="fill:none;stroke-width:2;stroke-linecap:butt;stroke-linejoin:miter;stroke:rgb(18.431373%,18.039216%,25.490196%);stroke-opacity:1;stroke-miterlimit:4;" d="M 926.040375 335.51537 C 931.088344 338.06987 937.045781 338.05037 942.068719 335.45037 " transform="matrix(0.468165,0,0,0.600962,-30.898876,-20.518552)"/>
<use xlink:href="#surface23" mask="url(#mask6)"/>
<path style=" stroke:none;fill-rule:nonzero;fill:rgb(42.352941%,38.823529%,100%);fill-opacity:1;" d="M 282.585938 173.410156 L 282.585938 225.417969 L 271.875 253.160156 L 271.875 253.164062 L 271.535156 254.039062 L 243.179688 251.632812 L 232.28125 250.707031 L 206.980469 248.5625 L 206.980469 186.347656 L 232.28125 187.265625 L 243.59375 187.675781 L 272.214844 188.714844 Z M 282.585938 173.410156 "/>
<use xlink:href="#surface26" mask="url(#mask7)"/>
<path style=" stroke:none;fill-rule:nonzero;fill:rgb(42.352941%,38.823529%,100%);fill-opacity:1;" d="M 284.042969 159.597656 L 284.042969 177.765625 L 282.585938 180.738281 L 279.988281 186.050781 L 277.6875 190.757812 L 272.601562 201.15625 L 272.480469 201.148438 L 204.75 196.675781 L 204.75 178.757812 L 204.921875 178.523438 L 213.007812 167.285156 L 215.933594 163.21875 L 221.230469 155.863281 Z M 284.042969 159.597656 "/>
<use xlink:href="#surface29" mask="url(#mask8)"/>
<use xlink:href="#surface32" mask="url(#mask9)"/>
<path style=" stroke:none;fill-rule:nonzero;fill:rgb(18.431373%,18.039216%,25.490196%);fill-opacity:1;" d="M 279.996094 167.957031 L 279.992188 180.164062 L 279.988281 186.050781 L 279.96875 232.195312 L 279.96875 232.199219 L 277.285156 239.144531 L 277.6875 190.757812 L 277.75 183.351562 L 277.75 183.347656 L 277.839844 172.414062 L 213.007812 167.285156 L 215.933594 163.21875 Z M 279.996094 167.957031 "/>
<path style=" stroke:none;fill-rule:nonzero;fill:rgb(18.431373%,18.039216%,25.490196%);fill-opacity:1;" d="M 248.175781 168.554688 L 243.632812 181.21875 L 243.59375 187.675781 L 243.179688 251.632812 L 232.28125 250.707031 L 232.28125 180.375 L 238.09375 168.554688 Z M 248.175781 168.554688 "/>
<path style=" stroke:none;fill-rule:nonzero;fill:rgb(18.431373%,18.039216%,25.490196%);fill-opacity:1;" d="M 233.214844 169.40625 C 230.589844 170.527344 227.769531 170.65625 225.089844 169.773438 C 224.570312 169.644531 224.082031 169.351562 223.667969 168.925781 C 223.222656 168.292969 222.917969 167.519531 222.785156 166.683594 C 222.3125 164.957031 222.046875 163.148438 222.007812 161.316406 C 222.039062 159.492188 222.582031 157.585938 223.746094 156.527344 C 223.980469 156.34375 224.203125 156.128906 224.40625 155.890625 C 224.648438 155.5 224.820312 155.042969 224.914062 154.558594 C 225.710938 151.515625 227.25 148.304688 229.71875 147.820312 C 232 147.371094 234.074219 149.414062 235.828125 151.332031 L 239.679688 155.539062 C 240.554688 152.519531 242.789062 150.5 245.296875 150.457031 C 247.808594 150.414062 250.078125 152.355469 251.019531 155.34375 C 253.351562 151.964844 256.296875 149.375 259.589844 147.792969 C 260.320312 147.441406 261.179688 147.15625 261.84375 147.679688 C 262.253906 148.066406 262.566406 148.605469 262.742188 149.222656 C 263.789062 152.167969 264.359375 155.359375 264.410156 158.601562 C 264.964844 158.355469 265.578125 158.628906 265.898438 159.257812 C 266.195312 159.882812 266.363281 160.59375 266.390625 161.324219 C 266.492188 162.457031 266.546875 163.59375 266.542969 164.730469 C 266.542969 165.929688 266.457031 167.226562 265.847656 168.136719 C 265.0625 169.316406 263.699219 169.4375 262.492188 169.476562 C 263.074219 170.136719 262.789062 171.472656 262.148438 172.035156 C 261.503906 172.59375 260.671875 172.605469 259.894531 172.59375 C 256.894531 172.558594 253.707031 172.449219 251.214844 170.3125 C 250.230469 169.46875 249.402344 168.34375 248.417969 167.507812 C 245.996094 165.453125 242.957031 165.351562 240.15625 165.523438 C 237.628906 165.675781 235.625 168.375 233.214844 169.40625 Z M 233.214844 169.40625 "/>
<path style=" stroke:none;fill-rule:nonzero;fill:rgb(18.431373%,18.039216%,25.490196%);fill-opacity:1;" d="M 232.667969 168.554688 C 232.667969 168.554688 207.660156 173.035156 204.167969 192.445312 L 209.402344 191.449219 L 213.085938 199.910156 C 213.085938 199.910156 216.964844 181 228.402344 176.519531 C 239.839844 172.039062 243.910156 171.292969 243.910156 171.292969 C 243.910156 171.292969 251.859375 173.78125 259.03125 203.394531 L 263.105469 196.179688 L 270.277344 198.167969 C 270.277344 198.167969 265.042969 175.027344 250.890625 168.554688 Z M 232.667969 168.554688 "/>
</g>
</svg>
