<?xml version="1.0" encoding="UTF-8"?>
<svg xmlns="http://www.w3.org/2000/svg" xmlns:xlink="http://www.w3.org/1999/xlink" width="500px" height="500px" viewBox="0 0 500 500" version="1.1">
<g id="surface1">
<path style=" stroke:none;fill-rule:nonzero;fill:rgb(94.117647%,94.117647%,94.117647%);fill-opacity:1;" d="M 491.761719 434.046875 C 489.660156 412.144531 479.179688 390.5625 463.058594 383.4375 C 469.417969 405.980469 469.414062 430.714844 463.054688 453.257812 C 460.578125 461.9375 457.121094 471.261719 459.453125 480.011719 C 460.902344 485.457031 464.449219 489.621094 468.414062 492.226562 C 472.382812 494.832031 476.78125 496.074219 481.128906 497.289062 L 481.984375 498.207031 C 488.882812 478.027344 493.863281 455.953125 491.761719 434.046875 Z M 491.761719 434.046875 "/>
<path style=" stroke:none;fill-rule:nonzero;fill:rgb(100%,100%,100%);fill-opacity:1;" d="M 462.898438 383.851562 C 472.289062 397.480469 478.125 414.597656 479.578125 432.769531 C 479.941406 436.675781 479.832031 440.628906 479.246094 444.488281 C 478.585938 448.226562 477.160156 451.664062 475.125 454.449219 C 473.269531 457.089844 471.132812 459.515625 469.804688 462.699219 C 468.464844 466.023438 468.285156 469.925781 469.308594 473.433594 C 470.480469 477.792969 472.792969 481.347656 475.148438 484.71875 C 477.765625 488.464844 480.527344 492.304688 481.636719 497.269531 C 481.773438 497.871094 482.484375 497.566406 482.351562 496.964844 C 480.417969 488.324219 473.941406 483.417969 470.855469 475.632812 C 469.414062 472.003906 468.808594 467.789062 470.160156 463.953125 C 471.339844 460.601562 473.542969 458.097656 475.441406 455.441406 C 477.457031 452.765625 478.9375 449.488281 479.75 445.898438 C 480.484375 442.089844 480.714844 438.148438 480.425781 434.238281 C 479.886719 425.425781 478.285156 416.777344 475.671875 408.613281 C 472.730469 399.269531 468.578125 390.648438 463.394531 383.121094 C 463.074219 382.65625 462.578125 383.386719 462.898438 383.851562 Z M 462.898438 383.851562 "/>
<path style=" stroke:none;fill-rule:nonzero;fill:rgb(100%,100%,100%);fill-opacity:1;" d="M 479.375 426.882812 C 484.167969 425.375 487.410156 419.59375 487.035156 413.222656 C 487 412.597656 486.25 412.644531 486.285156 413.269531 C 486.644531 419.203125 483.609375 424.589844 479.140625 425.957031 C 478.667969 426.105469 478.90625 427.027344 479.375 426.882812 Z M 479.375 426.882812 "/>
<path style=" stroke:none;fill-rule:nonzero;fill:rgb(100%,100%,100%);fill-opacity:1;" d="M 476.203125 453.265625 C 472.015625 450.027344 468.921875 444.855469 467.542969 438.792969 C 467.40625 438.191406 466.691406 438.496094 466.828125 439.097656 C 468.273438 445.40625 471.5 450.773438 475.867188 454.136719 C 476.285156 454.457031 476.617188 453.585938 476.203125 453.265625 Z M 476.203125 453.265625 "/>
<path style=" stroke:none;fill-rule:nonzero;fill:rgb(100%,100%,100%);fill-opacity:1;" d="M 472.035156 400.191406 C 470.304688 401.257812 468.273438 401.125 466.636719 399.835938 C 466.222656 399.511719 465.886719 400.382812 466.296875 400.707031 C 468.113281 402.117188 470.351562 402.269531 472.269531 401.117188 C 472.460938 401.023438 472.566406 400.753906 472.507812 400.5 C 472.445312 400.246094 472.230469 400.109375 472.035156 400.191406 Z M 472.035156 400.191406 "/>
<path style=" stroke:none;fill-rule:nonzero;fill:rgb(94.117647%,94.117647%,94.117647%);fill-opacity:1;" d="M 413.910156 422.558594 C 414.164062 422.773438 414.417969 422.984375 414.671875 423.207031 C 418.066406 426.101562 421.277344 429.34375 424.265625 432.910156 C 424.5 433.183594 424.734375 433.460938 424.964844 433.742188 C 432.097656 442.429688 437.921875 452.761719 442.144531 464.207031 C 443.820312 468.765625 445.226562 473.480469 446.351562 478.3125 C 447.902344 484.988281 449.175781 492.386719 452.25 497.84375 C 452.566406 498.421875 452.910156 498.96875 453.277344 499.488281 L 481.054688 499.488281 C 481.117188 499.445312 481.179688 499.414062 481.242188 499.371094 L 482.351562 499.4375 C 482.308594 499.183594 482.257812 498.921875 482.210938 498.667969 C 482.1875 498.519531 482.15625 498.371094 482.128906 498.222656 C 482.113281 498.125 482.09375 498.027344 482.078125 497.9375 C 482.074219 497.902344 482.066406 497.871094 482.0625 497.84375 C 482.046875 497.753906 482.027344 497.671875 482.015625 497.589844 C 481.738281 496.121094 481.449219 494.652344 481.15625 493.183594 C 481.15625 493.175781 481.15625 493.175781 481.148438 493.164062 C 478.871094 481.976562 475.855469 470.933594 471.644531 460.835938 C 471.515625 460.53125 471.390625 460.21875 471.25 459.914062 C 469.332031 455.375 467.128906 451.050781 464.664062 446.976562 C 463.3125 444.75 461.871094 442.617188 460.347656 440.578125 C 456.410156 435.328125 451.859375 430.910156 446.863281 427.492188 C 436.902344 420.679688 425.367188 418.066406 414.722656 422.230469 C 414.449219 422.335938 414.183594 422.445312 413.910156 422.558594 Z M 413.910156 422.558594 "/>
<path style=" stroke:none;fill-rule:nonzero;fill:rgb(100%,100%,100%);fill-opacity:1;" d="M 413.972656 423.015625 C 427.804688 426.574219 440.417969 435.6875 450.023438 449.0625 C 452.132812 451.894531 453.882812 455.140625 455.207031 458.679688 C 456.414062 462.179688 456.875 466.035156 456.546875 469.84375 C 456.289062 473.402344 455.710938 477.007812 456.128906 480.585938 C 456.605469 484.28125 458.277344 487.539062 460.722656 489.539062 C 463.683594 492.105469 467.183594 493.140625 470.632812 493.996094 C 474.460938 494.949219 478.449219 495.859375 481.644531 498.957031 C 482.03125 499.332031 482.457031 498.53125 482.070312 498.15625 C 476.511719 492.765625 469.0625 493.898438 462.980469 490.09375 C 460.140625 488.316406 457.699219 485.421875 456.996094 481.308594 C 456.382812 477.710938 456.976562 473.992188 457.257812 470.390625 C 457.625 466.683594 457.28125 462.910156 456.265625 459.410156 C 455.082031 455.796875 453.429688 452.472656 451.386719 449.574219 C 446.859375 442.957031 441.5625 437.304688 435.679688 432.820312 C 428.992188 427.65625 421.667969 424.011719 414.03125 422.046875 C 413.558594 421.921875 413.503906 422.894531 413.972656 423.015625 Z M 413.972656 423.015625 "/>
<path style=" stroke:none;fill-rule:nonzero;fill:rgb(100%,100%,100%);fill-opacity:1;" d="M 447.128906 444.523438 C 450.253906 439.582031 450.15625 432.433594 446.894531 427.636719 C 446.574219 427.167969 446 427.792969 446.320312 428.261719 C 449.363281 432.722656 449.441406 439.386719 446.507812 443.96875 C 446.203125 444.449219 446.820312 445 447.128906 444.523438 Z M 447.128906 444.523438 "/>
<path style=" stroke:none;fill-rule:nonzero;fill:rgb(100%,100%,100%);fill-opacity:1;" d="M 456.859375 468.0625 C 452.003906 468.742188 447.132812 467.027344 443.210938 463.261719 C 442.824219 462.886719 442.398438 463.6875 442.785156 464.058594 C 446.871094 467.96875 451.941406 469.742188 456.992188 469.019531 C 457.472656 468.949219 457.335938 467.992188 456.859375 468.0625 Z M 456.859375 468.0625 "/>
<path style=" stroke:none;fill-rule:nonzero;fill:rgb(100%,100%,100%);fill-opacity:1;" d="M 428.863281 428.933594 C 427.976562 431.136719 426.292969 432.613281 424.386719 432.863281 C 423.90625 432.925781 424.042969 433.882812 424.519531 433.820312 C 426.625 433.53125 428.484375 431.910156 429.480469 429.488281 C 429.589844 429.265625 429.550781 428.96875 429.386719 428.8125 C 429.214844 428.660156 428.980469 428.714844 428.863281 428.933594 Z M 428.863281 428.933594 "/>
<path style=" stroke:none;fill-rule:nonzero;fill:rgb(61.960784%,38.039216%,41.568627%);fill-opacity:1;" d="M 278.011719 26.765625 C 276.65625 28.957031 276.121094 31.8125 276.546875 34.566406 C 276.972656 37.316406 278.316406 39.683594 280.21875 41.027344 L 275.9375 74.277344 L 288.296875 67.171875 L 290.46875 36.6875 C 292.03125 32.300781 290.820312 27.089844 287.640625 24.558594 C 284.464844 22.027344 280.328125 22.976562 278.011719 26.765625 Z M 278.011719 26.765625 "/>
<path style=" stroke:none;fill-rule:nonzero;fill:rgb(61.960784%,38.039216%,41.568627%);fill-opacity:1;" d="M 389.191406 486.769531 L 379.089844 486.765625 L 374.28125 436.269531 L 389.195312 436.269531 Z M 389.191406 486.769531 "/>
<path style=" stroke:none;fill-rule:nonzero;fill:rgb(18.431373%,18.039216%,25.490196%);fill-opacity:1;" d="M 391.769531 499.457031 L 359.1875 499.457031 L 359.1875 498.921875 C 359.1875 489.847656 364.867188 482.492188 371.871094 482.492188 L 391.769531 482.492188 Z M 391.769531 499.457031 "/>
<path style=" stroke:none;fill-rule:nonzero;fill:rgb(61.960784%,38.039216%,41.568627%);fill-opacity:1;" d="M 321.386719 486.769531 L 311.28125 486.765625 L 306.472656 436.269531 L 321.386719 436.269531 Z M 321.386719 486.769531 "/>
<path style=" stroke:none;fill-rule:nonzero;fill:rgb(18.431373%,18.039216%,25.490196%);fill-opacity:1;" d="M 323.964844 499.457031 L 291.378906 499.457031 L 291.378906 498.921875 C 291.378906 489.847656 297.058594 482.492188 304.0625 482.492188 L 323.964844 482.492188 Z M 323.964844 499.457031 "/>
<path style=" stroke:none;fill-rule:nonzero;fill:rgb(18.431373%,18.039216%,25.490196%);fill-opacity:1;" d="M 317.171875 251.128906 L 313.394531 257.566406 C 313.394531 257.566406 313.054688 260.570312 307.324219 285.058594 L 304.183594 469.109375 L 323.195312 469.109375 L 348.605469 321.847656 L 374.980469 472.0625 L 391.460938 473.324219 L 390.683594 302.585938 C 390.683594 302.585938 392.765625 267.460938 385.386719 260.9375 C 378.011719 254.414062 317.171875 251.128906 317.171875 251.128906 Z M 317.171875 251.128906 "/>
<path style=" stroke:none;fill-rule:nonzero;fill:rgb(61.960784%,38.039216%,41.568627%);fill-opacity:1;" d="M 362.617188 70.617188 C 362.617188 84.890625 353.6875 96.464844 342.667969 96.464844 C 331.652344 96.464844 322.71875 84.890625 322.71875 70.617188 C 322.71875 56.34375 331.652344 44.773438 342.667969 44.773438 C 353.6875 44.773438 362.617188 56.34375 362.617188 70.617188 Z M 362.617188 70.617188 "/>
<path style=" stroke:none;fill-rule:nonzero;fill:rgb(18.431373%,18.039216%,25.490196%);fill-opacity:1;" d="M 362.738281 74.664062 L 362.410156 73.8125 C 361.898438 72.492188 357.679688 61.515625 357.152344 58.695312 L 351.84375 59.503906 L 338.019531 59.507812 L 339.9375 55.773438 L 334.859375 56.632812 C 333.003906 56.921875 331.230469 57.789062 329.683594 59.160156 C 328.738281 59.972656 327.9375 61.042969 327.335938 62.292969 C 325.523438 66.320312 322.75 72.902344 322.722656 72.96875 L 322.460938 73.597656 L 320.15625 68.578125 C 320.125 68.382812 317.269531 49.09375 326.824219 42.554688 C 327.316406 41.257812 331.515625 31.058594 341.4375 31.746094 C 342.527344 30.136719 344.066406 29.148438 345.714844 28.992188 C 347.980469 28.839844 350.332031 30.382812 352.695312 33.597656 C 355.832031 37.863281 360.132812 43.710938 362.730469 50.203125 L 363.449219 51.527344 C 364.464844 53.421875 364.96875 55.703125 364.882812 58.011719 C 365.433594 61.695312 365.238281 65.5 364.3125 69.058594 Z M 362.738281 74.664062 "/>
<path style=" stroke:none;fill-rule:nonzero;fill:rgb(89.411765%,89.411765%,89.411765%);fill-opacity:1;" d="M 357.871094 101.328125 L 368.910156 109.230469 L 390.59375 117.097656 L 384.121094 190.617188 L 385.296875 263.035156 C 385.296875 263.035156 348.59375 295.609375 313.394531 257.566406 L 313.394531 166.414062 L 315.480469 117.097656 C 315.480469 117.097656 323.902344 114 328.140625 119.34375 L 336.183594 105.808594 Z M 357.871094 101.328125 "/>
<path style=" stroke:none;fill-rule:nonzero;fill:rgb(89.411765%,89.411765%,89.411765%);fill-opacity:1;" d="M 320.34375 123.871094 L 315.476562 117.097656 L 288.675781 113.164062 L 291.191406 59.832031 L 276.578125 46.328125 L 265.84375 121.410156 L 315.4375 166.414062 Z M 320.34375 123.871094 "/>
<path style=" stroke:none;fill-rule:nonzero;fill:rgb(61.960784%,38.039216%,41.568627%);fill-opacity:1;" d="M 374.671875 286.964844 C 374.269531 284.207031 374.828125 281.359375 376.199219 279.1875 C 377.570312 277.015625 379.617188 275.742188 381.78125 275.710938 L 390.035156 243.738281 L 398.378906 257.523438 L 389.261719 285.769531 C 389.058594 290.59375 386.101562 294.457031 382.378906 294.761719 C 378.65625 295.070312 375.34375 291.71875 374.671875 286.964844 Z M 374.671875 286.964844 "/>
<path style=" stroke:none;fill-rule:nonzero;fill:rgb(89.411765%,89.411765%,89.411765%);fill-opacity:1;" d="M 382.445312 125.515625 L 390.59375 117.097656 C 390.59375 117.097656 398.921875 123.050781 401.457031 133.722656 C 403.992188 144.398438 408.429688 205.152344 408.429688 205.152344 L 396.386719 283.148438 L 382.921875 271.050781 L 389.417969 209.257812 L 378.011719 164.101562 Z M 382.445312 125.515625 "/>
<path style=" stroke:none;fill-rule:nonzero;fill:rgb(90.196078%,90.196078%,90.196078%);fill-opacity:1;" d="M 74.867188 0 L 280.320312 0 L 280.320312 64.679688 L 74.867188 64.679688 Z M 74.867188 0 "/>
<path style=" stroke:none;fill-rule:nonzero;fill:rgb(100%,100%,100%);fill-opacity:1;" d="M 80.257812 57.699219 L 274.929688 57.699219 L 274.929688 6.984375 L 80.257812 6.984375 Z M 80.257812 57.699219 "/>
<path style=" stroke:none;fill-rule:nonzero;fill:rgb(42.352941%,38.823529%,100%);fill-opacity:1;" d="M 132.25 32.339844 C 132.25 43.011719 125.574219 51.660156 117.335938 51.660156 C 109.101562 51.660156 102.425781 43.011719 102.425781 32.339844 C 102.425781 21.671875 109.101562 13.019531 117.335938 13.019531 C 125.574219 13.019531 132.25 21.671875 132.25 32.339844 Z M 132.25 32.339844 "/>
<path style=" stroke:none;fill-rule:nonzero;fill:rgb(42.352941%,38.823529%,100%);fill-opacity:1;" d="M 153 24.78125 L 252.765625 24.78125 L 252.765625 28.980469 L 153 28.980469 Z M 153 24.78125 "/>
<path style=" stroke:none;fill-rule:nonzero;fill:rgb(42.352941%,38.823529%,100%);fill-opacity:1;" d="M 153 35.699219 L 252.765625 35.699219 L 252.765625 39.902344 L 153 39.902344 Z M 153 35.699219 "/>
<path style=" stroke:none;fill-rule:nonzero;fill:rgb(90.196078%,90.196078%,90.196078%);fill-opacity:1;" d="M 0 98.308594 L 173.835938 114.738281 L 173.835938 173.871094 L 0 169.6875 Z M 0 98.308594 "/>
<path style=" stroke:none;fill-rule:nonzero;fill:rgb(100%,100%,100%);fill-opacity:1;" d="M 5.476562 162.15625 L 170.042969 167.371094 L 170.042969 120.792969 L 5.476562 106.492188 Z M 5.476562 162.15625 "/>
<path style=" stroke:none;fill-rule:nonzero;fill:rgb(90.196078%,90.196078%,90.196078%);fill-opacity:1;" d="M 41.59375 116.019531 C 43.496094 116.179688 45.34375 116.871094 47.015625 118.054688 C 48.691406 119.238281 50.179688 120.828125 51.398438 122.734375 C 52.664062 124.707031 53.65625 126.949219 54.332031 129.363281 C 55.042969 131.902344 55.402344 134.582031 55.402344 137.28125 C 55.410156 139.941406 55.046875 142.578125 54.332031 145.070312 C 53.667969 147.386719 52.671875 149.519531 51.398438 151.355469 C 50.175781 153.121094 48.683594 154.539062 47.015625 155.519531 C 45.3125 156.507812 43.460938 156.984375 41.59375 156.910156 C 39.6875 156.832031 37.8125 156.207031 36.113281 155.082031 C 34.386719 153.941406 32.851562 152.375 31.589844 150.476562 C 30.261719 148.488281 29.222656 146.210938 28.515625 143.75 C 27.765625 141.152344 27.382812 138.398438 27.382812 135.621094 C 27.375 132.890625 27.757812 130.175781 28.515625 127.625 C 29.214844 125.265625 30.257812 123.109375 31.589844 121.265625 C 32.859375 119.511719 34.398438 118.121094 36.113281 117.195312 C 37.847656 116.265625 39.722656 115.863281 41.59375 116.019531 Z M 41.59375 116.019531 "/>
<path style=" stroke:none;fill-rule:nonzero;fill:rgb(90.196078%,90.196078%,90.196078%);fill-opacity:1;" d="M 73.972656 130.652344 L 154.066406 136.058594 L 154.066406 139.988281 L 73.972656 134.945312 Z M 73.972656 130.652344 "/>
<path style=" stroke:none;fill-rule:nonzero;fill:rgb(90.196078%,90.196078%,90.196078%);fill-opacity:1;" d="M 73.972656 141.820312 L 154.066406 146.277344 L 154.066406 150.207031 L 73.972656 146.117188 Z M 73.972656 141.820312 "/>
<path style=" stroke:none;fill-rule:nonzero;fill:rgb(90.196078%,90.196078%,90.196078%);fill-opacity:1;" d="M 0 218.4375 L 173.835938 214.253906 L 173.835938 273.386719 L 0 289.816406 Z M 0 218.4375 "/>
<path style=" stroke:none;fill-rule:nonzero;fill:rgb(100%,100%,100%);fill-opacity:1;" d="M 5.476562 281.632812 L 170.042969 267.332031 L 170.042969 220.757812 L 5.476562 225.972656 Z M 5.476562 281.632812 "/>
<path style=" stroke:none;fill-rule:nonzero;fill:rgb(90.196078%,90.196078%,90.196078%);fill-opacity:1;" d="M 27.394531 251.558594 C 27.480469 248.785156 27.949219 246.054688 28.78125 243.496094 C 29.558594 241.085938 30.667969 238.878906 32.054688 236.976562 C 33.371094 235.160156 34.953125 233.699219 36.707031 232.671875 C 38.441406 231.660156 40.324219 231.160156 42.226562 231.210938 C 44.09375 231.257812 45.925781 231.855469 47.585938 232.957031 C 49.21875 234.050781 50.664062 235.566406 51.828125 237.410156 C 53.039062 239.332031 53.964844 241.527344 54.554688 243.886719 C 55.191406 246.425781 55.472656 249.089844 55.386719 251.753906 C 55.304688 254.453125 54.863281 257.109375 54.074219 259.609375 C 53.332031 261.980469 52.273438 264.160156 50.945312 266.054688 C 49.671875 267.882812 48.136719 269.378906 46.429688 270.457031 C 44.722656 271.53125 42.851562 272.101562 40.957031 272.132812 C 39.078125 272.164062 37.21875 271.636719 35.523438 270.589844 C 33.839844 269.542969 32.347656 268.054688 31.140625 266.214844 C 29.867188 264.28125 28.894531 262.050781 28.273438 259.640625 C 27.601562 257.039062 27.300781 254.300781 27.394531 251.558594 Z M 27.394531 251.558594 "/>
<path style=" stroke:none;fill-rule:nonzero;fill:rgb(90.196078%,90.196078%,90.196078%);fill-opacity:1;" d="M 73.972656 242.007812 L 154.066406 237.917969 L 154.066406 241.847656 L 73.972656 246.304688 Z M 73.972656 242.007812 "/>
<path style=" stroke:none;fill-rule:nonzero;fill:rgb(90.196078%,90.196078%,90.196078%);fill-opacity:1;" d="M 73.972656 253.175781 L 154.066406 248.136719 L 154.066406 252.066406 L 73.972656 257.476562 Z M 73.972656 253.175781 "/>
<path style=" stroke:none;fill-rule:nonzero;fill:rgb(79.215686%,79.215686%,79.215686%);fill-opacity:1;" d="M 499.609375 500.308594 L 258.164062 500.308594 C 257.8125 500.308594 257.53125 499.941406 257.53125 499.488281 C 257.53125 499.035156 257.8125 498.667969 258.164062 498.667969 L 499.609375 498.667969 C 499.957031 498.667969 500.242188 499.035156 500.242188 499.488281 C 500.242188 499.941406 499.957031 500.308594 499.609375 500.308594 Z M 499.609375 500.308594 "/>
</g>
</svg>
