<?xml version="1.0" encoding="UTF-8"?>
<svg xmlns="http://www.w3.org/2000/svg" xmlns:xlink="http://www.w3.org/1999/xlink" width="500px" height="500px" viewBox="0 0 500 500" version="1.1">
<g id="surface1">
<path style=" stroke:none;fill-rule:nonzero;fill:rgb(88.627451%,88.627451%,88.627451%);fill-opacity:1;" d="M 120.328125 491.003906 L 108.011719 453.355469 L 120.332031 495.105469 L 120.339844 499.394531 C 121.21875 499.375 122.089844 499.3125 122.949219 499.203125 L 121.945312 444.089844 L 121.957031 443.664062 L 121.933594 443.582031 L 121.839844 438.375 L 134.71875 397.109375 L 121.824219 434.476562 L 121.789062 435.578125 L 121.027344 393.941406 L 132.101562 351.246094 L 120.941406 386.625 L 120.421875 300.320312 L 120.421875 300.03125 L 120.417969 300.316406 L 120.167969 368.359375 L 109.585938 341.132812 L 120.175781 374.222656 L 120.226562 411.488281 L 110.410156 375.496094 L 120.230469 416.96875 L 120.257812 437.691406 L 106 387.574219 L 120.269531 444.921875 Z M 120.328125 491.003906 "/>
<path style=" stroke:none;fill-rule:nonzero;fill:rgb(88.627451%,88.627451%,88.627451%);fill-opacity:1;" d="M 226.019531 491.003906 L 213.703125 453.355469 L 226.027344 495.105469 L 226.03125 499.394531 C 226.910156 499.375 227.78125 499.3125 228.640625 499.203125 L 227.636719 444.089844 L 227.652344 443.664062 L 227.628906 443.582031 L 227.53125 438.375 L 240.410156 397.109375 L 227.519531 434.476562 L 227.480469 435.578125 L 226.722656 393.941406 L 237.792969 351.246094 L 226.636719 386.625 L 226.117188 300.320312 L 226.113281 300.03125 L 226.113281 300.316406 L 225.859375 368.359375 L 215.28125 341.132812 L 225.867188 374.222656 L 225.917969 411.488281 L 216.101562 375.496094 L 225.921875 416.96875 L 225.949219 437.691406 L 211.691406 387.574219 L 225.960938 444.921875 Z M 226.019531 491.003906 "/>
<path style=" stroke:none;fill-rule:nonzero;fill:rgb(88.627451%,88.627451%,88.627451%);fill-opacity:1;" d="M 14.535156 493.425781 L 5.640625 466.238281 L 14.539062 496.386719 L 14.542969 499.484375 C 15.175781 499.472656 15.804688 499.425781 16.425781 499.34375 L 15.699219 459.550781 L 15.710938 459.242188 L 15.695312 459.183594 L 15.625 455.421875 L 24.925781 425.625 L 15.617188 452.605469 L 15.585938 453.402344 L 15.039062 423.335938 L 23.035156 392.507812 L 14.976562 418.054688 L 14.601562 355.734375 L 14.601562 355.527344 L 14.597656 355.730469 L 14.417969 404.863281 L 6.777344 385.207031 L 14.425781 409.097656 L 14.460938 436.007812 L 7.371094 410.015625 L 14.464844 439.964844 L 14.484375 454.929688 L 4.1875 418.742188 L 14.492188 460.148438 Z M 14.535156 493.425781 "/>
<path style=" stroke:none;fill-rule:nonzero;fill:rgb(88.627451%,88.627451%,88.627451%);fill-opacity:1;" d="M 483.078125 491.003906 L 470.761719 453.355469 L 483.082031 495.105469 L 483.089844 499.394531 C 483.96875 499.375 484.839844 499.3125 485.699219 499.203125 L 484.695312 444.089844 L 484.707031 443.664062 L 484.683594 443.582031 L 484.589844 438.375 L 497.46875 397.109375 L 484.574219 434.476562 L 484.539062 435.578125 L 483.777344 393.941406 L 494.851562 351.246094 L 483.691406 386.625 L 483.171875 300.320312 L 483.171875 300.03125 L 483.167969 300.316406 L 482.917969 368.359375 L 472.335938 341.132812 L 482.925781 374.222656 L 482.972656 411.488281 L 473.160156 375.496094 L 482.980469 416.96875 L 483.007812 437.691406 L 468.75 387.574219 L 483.019531 444.921875 Z M 483.078125 491.003906 "/>
<path style=" stroke:none;fill-rule:nonzero;fill:rgb(42.352941%,38.823529%,100%);fill-opacity:1;" d="M 215.492188 434.160156 L 149.050781 434.160156 L 149.050781 428.738281 L 215.492188 428.738281 Z M 215.492188 434.160156 "/>
<path style=" stroke:none;fill-rule:nonzero;fill:rgb(42.352941%,38.823529%,100%);fill-opacity:1;" d="M 212.113281 428.738281 L 145.671875 428.738281 L 145.671875 423.3125 L 212.113281 423.3125 Z M 212.113281 428.738281 "/>
<path style=" stroke:none;fill-rule:nonzero;fill:rgb(42.352941%,38.823529%,100%);fill-opacity:1;" d="M 216.054688 423.3125 L 149.613281 423.3125 L 149.613281 417.890625 L 216.054688 417.890625 Z M 216.054688 423.3125 "/>
<path style=" stroke:none;fill-rule:nonzero;fill:rgb(42.352941%,38.823529%,100%);fill-opacity:1;" d="M 222.8125 417.890625 L 156.371094 417.890625 L 156.371094 412.46875 L 222.8125 412.46875 Z M 222.8125 417.890625 "/>
<path style=" stroke:none;fill-rule:nonzero;fill:rgb(24.705882%,23.921569%,33.72549%);fill-opacity:1;" d="M 102.144531 420.050781 L 99.839844 420.050781 L 99.839844 388.503906 L 102.144531 388.503906 Z M 102.144531 420.050781 "/>
<path style=" stroke:none;fill-rule:nonzero;fill:rgb(24.705882%,23.921569%,33.72549%);fill-opacity:1;" d="M 100.699219 392.21875 L 99.832031 388.101562 L 185.199219 321.363281 L 186.066406 325.480469 Z M 100.699219 392.21875 "/>
<path style=" stroke:none;fill-rule:nonzero;fill:rgb(24.705882%,23.921569%,33.72549%);fill-opacity:1;" d="M 77.230469 467.15625 L 57.160156 467.15625 L 57.160156 452.046875 L 77.230469 452.046875 Z M 77.230469 467.15625 "/>
<path style=" stroke:none;fill-rule:nonzero;fill:rgb(24.705882%,23.921569%,33.72549%);fill-opacity:1;" d="M 157.972656 482.261719 L 59.007812 482.261719 L 59.007812 465.378906 L 157.972656 465.378906 Z M 157.972656 482.261719 "/>
<path style=" stroke:none;fill-rule:nonzero;fill:rgb(88.627451%,88.627451%,88.627451%);fill-opacity:1;" d="M 75.269531 473.820312 L 99.03125 473.820312 L 99.03125 416.277344 L 81.269531 416.277344 L 75.269531 445.296875 Z M 75.269531 473.820312 "/>
<path style=" stroke:none;fill-rule:nonzero;fill:rgb(100%,100%,100%);fill-opacity:1;" d="M 95.339844 439.382812 L 85.191406 439.382812 L 85.191406 419.832031 L 95.339844 419.832031 Z M 95.339844 439.382812 "/>
<path style=" stroke:none;fill-rule:nonzero;fill:rgb(100%,100%,100%);fill-opacity:1;" d="M 77.578125 439.605469 L 84.035156 439.605469 L 84.035156 420.054688 L 81.269531 420.054688 Z M 77.578125 439.605469 "/>
<path style=" stroke:none;fill-rule:nonzero;fill:rgb(24.705882%,23.921569%,33.72549%);fill-opacity:1;" d="M 94.878906 458.933594 L 92.570312 458.933594 L 92.570312 450.492188 L 94.878906 450.492188 Z M 94.878906 458.933594 "/>
<path style=" stroke:none;fill-rule:nonzero;fill:rgb(24.705882%,23.921569%,33.72549%);fill-opacity:1;" d="M 82.074219 440.9375 L 81.960938 440.9375 C 80.75 440.9375 79.769531 439.046875 79.769531 436.714844 C 79.769531 434.382812 80.75 432.496094 81.960938 432.496094 L 82.074219 432.496094 Z M 82.074219 440.9375 "/>
<path style=" stroke:none;fill-rule:nonzero;fill:rgb(24.705882%,23.921569%,33.72549%);fill-opacity:1;" d="M 167.890625 473.820312 L 167.773438 473.820312 C 166.566406 473.820312 165.582031 471.929688 165.582031 469.597656 C 165.582031 467.265625 166.566406 465.378906 167.773438 465.378906 L 167.890625 465.378906 Z M 167.890625 473.820312 "/>
<path style=" stroke:none;fill-rule:nonzero;fill:rgb(88.627451%,88.627451%,88.627451%);fill-opacity:1;" d="M 66.042969 465.3125 C 62.566406 465.398438 59.300781 468.53125 57.171875 473.820312 L 52.664062 473.820312 L 57.046875 450.300781 L 77.460938 442.546875 L 76.886719 473.820312 L 74.914062 473.820312 C 72.785156 468.53125 69.519531 465.398438 66.042969 465.3125 Z M 66.042969 465.3125 "/>
<path style=" stroke:none;fill-rule:nonzero;fill:rgb(24.705882%,23.921569%,33.72549%);fill-opacity:1;" d="M 75.847656 479.375 C 75.847656 490.050781 71.355469 498.703125 65.8125 498.703125 C 60.269531 498.703125 55.777344 490.050781 55.777344 479.375 C 55.777344 468.699219 60.269531 460.042969 65.8125 460.042969 C 71.355469 460.042969 75.847656 468.699219 75.847656 479.375 Z M 75.847656 479.375 "/>
<path style=" stroke:none;fill-rule:nonzero;fill:rgb(88.627451%,88.627451%,88.627451%);fill-opacity:1;" d="M 71.09375 479.375 C 71.09375 484.992188 68.730469 489.546875 65.8125 489.546875 C 62.894531 489.546875 60.53125 484.992188 60.53125 479.375 C 60.53125 473.753906 62.894531 469.199219 65.8125 469.199219 C 68.730469 469.199219 71.09375 473.753906 71.09375 479.375 Z M 71.09375 479.375 "/>
<path style=" stroke:none;fill-rule:nonzero;fill:rgb(24.705882%,23.921569%,33.72549%);fill-opacity:1;" d="M 165.238281 481.597656 C 165.238281 490.921875 161.3125 498.480469 156.472656 498.480469 C 151.628906 498.480469 147.707031 490.921875 147.707031 481.597656 C 147.707031 472.269531 151.628906 464.710938 156.472656 464.710938 C 161.3125 464.710938 165.238281 472.269531 165.238281 481.597656 Z M 165.238281 481.597656 "/>
<path style=" stroke:none;fill-rule:nonzero;fill:rgb(88.627451%,88.627451%,88.627451%);fill-opacity:1;" d="M 161.085938 481.597656 C 161.085938 486.503906 159.019531 490.484375 156.472656 490.484375 C 153.921875 490.484375 151.859375 486.503906 151.859375 481.597656 C 151.859375 476.6875 153.921875 472.710938 156.472656 472.710938 C 159.019531 472.710938 161.085938 476.6875 161.085938 481.597656 Z M 161.085938 481.597656 "/>
<path style=" stroke:none;fill-rule:nonzero;fill:rgb(24.705882%,23.921569%,33.72549%);fill-opacity:1;" d="M 103.183594 475.597656 L 98.339844 475.597656 L 98.339844 408.277344 L 103.183594 408.277344 Z M 103.183594 475.597656 "/>
<path style=" stroke:none;fill-rule:nonzero;fill:rgb(24.705882%,23.921569%,33.72549%);fill-opacity:1;" d="M 168.007812 467.375 L 98.339844 467.375 L 98.339844 463.378906 L 168.007812 463.378906 Z M 168.007812 467.375 "/>
<path style=" stroke:none;fill-rule:nonzero;fill:rgb(24.705882%,23.921569%,33.72549%);fill-opacity:1;" d="M 83 442.269531 L 80.691406 442.269531 L 80.691406 440.492188 L 83 440.492188 Z M 83 442.269531 "/>
<path style=" stroke:none;fill-rule:nonzero;fill:rgb(24.705882%,23.921569%,33.72549%);fill-opacity:1;" d="M 182.65625 434.125 C 182.609375 434.03125 182.589844 433.90625 182.597656 433.78125 L 185.777344 375.828125 C 185.789062 375.601562 185.886719 375.433594 186.003906 375.429688 L 186.007812 375.429688 C 186.125 375.429688 186.222656 375.601562 186.234375 375.824219 L 189.675781 433.65625 C 189.683594 433.78125 189.664062 433.90625 189.621094 434 C 189.578125 434.097656 189.515625 434.152344 189.449219 434.152344 L 182.828125 434.273438 L 182.824219 434.273438 C 182.761719 434.273438 182.699219 434.21875 182.65625 434.125 Z M 186.015625 379.933594 L 183.082031 433.378906 L 189.1875 433.269531 Z M 186.015625 379.933594 "/>
<path style=" stroke:none;fill-rule:nonzero;fill:rgb(24.705882%,23.921569%,33.72549%);fill-opacity:1;" d="M 57.089844 450.644531 L 57.195312 450.722656 C 58.328125 451.546875 58.898438 453.984375 58.472656 456.164062 C 58.042969 458.347656 56.777344 459.445312 55.644531 458.621094 L 55.539062 458.542969 Z M 57.089844 450.644531 "/>
<path style=" stroke:none;fill-rule:nonzero;fill:rgb(24.705882%,23.921569%,33.72549%);fill-opacity:1;" d="M 187.269531 386.28125 L 184.960938 386.28125 L 184.960938 321.40625 L 187.269531 321.40625 Z M 187.269531 386.28125 "/>
<path style=" stroke:none;fill-rule:nonzero;fill:rgb(24.705882%,23.921569%,33.72549%);fill-opacity:1;" d="M 104.222656 389.390625 C 104.222656 392.828125 102.777344 395.613281 100.992188 395.613281 C 99.207031 395.613281 97.761719 392.828125 97.761719 389.390625 C 97.761719 385.957031 99.207031 383.171875 100.992188 383.171875 C 102.777344 383.171875 104.222656 385.957031 104.222656 389.390625 Z M 104.222656 389.390625 "/>
<path style=" stroke:none;fill-rule:nonzero;fill:rgb(42.352941%,38.823529%,100%);fill-opacity:1;" d="M 172.136719 463.445312 L 105.695312 463.445312 L 105.695312 458.019531 L 172.136719 458.019531 Z M 172.136719 463.445312 "/>
<path style=" stroke:none;fill-rule:nonzero;fill:rgb(42.352941%,38.823529%,100%);fill-opacity:1;" d="M 176.078125 458.019531 L 109.636719 458.019531 L 109.636719 452.597656 L 176.078125 452.597656 Z M 176.078125 458.019531 "/>
<path style=" stroke:none;fill-rule:nonzero;fill:rgb(42.352941%,38.823529%,100%);fill-opacity:1;" d="M 173.261719 453.683594 L 106.820312 453.683594 L 106.820312 448.257812 L 173.261719 448.257812 Z M 173.261719 453.683594 "/>
<path style=" stroke:none;fill-rule:nonzero;fill:rgb(42.352941%,38.823529%,100%);fill-opacity:1;" d="M 177.203125 448.257812 L 110.761719 448.257812 L 110.761719 442.835938 L 177.203125 442.835938 Z M 177.203125 448.257812 "/>
<path style=" stroke:none;fill-rule:nonzero;fill:rgb(88.627451%,88.627451%,88.627451%);fill-opacity:1;" d="M 215.28125 132.582031 C 217.398438 132.578125 219.445312 134.046875 221.042969 136.71875 C 222.308594 136.054688 223.632812 135.945312 224.921875 136.390625 C 227.113281 130.269531 231.117188 127.601562 234.800781 129.8125 C 238.488281 132.023438 241 138.59375 241 146.03125 L 206.65625 146.03125 C 207.523438 138.191406 211.117188 132.585938 215.28125 132.582031 Z M 215.28125 132.582031 "/>
<path style=" stroke:none;fill-rule:nonzero;fill:rgb(88.627451%,88.627451%,88.627451%);fill-opacity:1;" d="M 163.609375 186.105469 C 165.613281 186.101562 167.546875 187.492188 169.058594 190.015625 C 170.253906 189.390625 171.507812 189.28125 172.726562 189.707031 C 174.796875 183.917969 178.582031 181.398438 182.066406 183.488281 C 185.550781 185.574219 187.925781 191.789062 187.925781 198.820312 L 155.457031 198.820312 C 156.277344 191.40625 159.675781 186.109375 163.609375 186.105469 Z M 163.609375 186.105469 "/>
<path style=" stroke:none;fill-rule:nonzero;fill:rgb(88.627451%,88.627451%,88.627451%);fill-opacity:1;" d="M 111.949219 97.828125 C 114.035156 97.824219 116.046875 99.269531 117.621094 101.898438 C 118.863281 101.242188 120.167969 101.132812 121.433594 101.574219 C 123.589844 95.550781 127.527344 92.929688 131.152344 95.101562 C 134.78125 97.277344 137.25 103.742188 137.25 111.054688 L 103.464844 111.054688 C 104.320312 103.34375 107.855469 97.828125 111.949219 97.828125 Z M 111.949219 97.828125 "/>
<path style=" stroke:none;fill-rule:nonzero;fill:rgb(88.627451%,88.627451%,88.627451%);fill-opacity:1;" d="M 335.023438 265.929688 L 335.023438 401.402344 L 362.371094 401.402344 L 362.371094 264.046875 L 356.023438 264.484375 L 356.023438 236.761719 L 351.417969 236.761719 L 350.660156 175.371094 C 352.515625 173.039062 353.824219 167.5 353.824219 161.03125 C 353.828125 159.171875 353.714844 157.324219 353.492188 155.515625 C 355.300781 151.746094 355.558594 146.101562 354.121094 141.777344 C 355.710938 144.453125 357.925781 145.277344 359.917969 143.925781 C 361.914062 142.578125 363.375 139.269531 363.746094 135.265625 C 364.117188 131.261719 363.34375 127.179688 361.714844 124.585938 C 364.503906 122.605469 366.078125 116.921875 365.386719 111.355469 C 364.691406 105.792969 361.949219 102.109375 358.996094 102.78125 C 356.046875 103.453125 353.824219 108.269531 353.824219 113.992188 C 353.824219 114.15625 353.828125 114.320312 353.832031 114.484375 C 352.203125 113.527344 350.4375 113.976562 348.996094 115.722656 C 347.554688 117.46875 346.578125 120.335938 346.320312 123.574219 C 344.324219 121.285156 341.8125 121.488281 339.921875 124.085938 C 338.027344 126.6875 337.113281 131.195312 337.585938 135.578125 C 338.058594 139.960938 339.832031 143.390625 342.105469 144.320312 C 342.105469 144.402344 342.105469 144.484375 342.105469 144.566406 C 342.648438 147.730469 343.339844 150.792969 344.171875 153.714844 C 343.765625 156.074219 343.5625 158.546875 343.570312 161.03125 C 343.570312 167.5 344.875 173.039062 346.734375 175.371094 L 345.976562 236.761719 L 341.371094 236.761719 L 341.371094 265.492188 Z M 352.101562 136.570312 L 352.117188 136.570312 C 352.199219 136.570312 352.285156 136.566406 352.367188 136.558594 C 352.421875 136.890625 352.480469 137.21875 352.550781 137.539062 C 352.410156 137.199219 352.257812 136.875 352.101562 136.570312 Z M 352.101562 136.570312 "/>
<path style=" stroke:none;fill-rule:nonzero;fill:rgb(24.705882%,23.921569%,33.72549%);fill-opacity:1;" d="M 402.992188 497.832031 L 319.960938 497.832031 L 319.960938 312.808594 L 402.992188 312.808594 Z M 402.992188 497.832031 "/>
<path style=" stroke:none;fill-rule:nonzero;fill:rgb(88.627451%,88.627451%,88.627451%);fill-opacity:1;" d="M 372.667969 497.832031 L 350.285156 497.832031 L 350.285156 460.199219 L 372.667969 460.199219 Z M 372.667969 497.832031 "/>
<path style=" stroke:none;fill-rule:nonzero;fill:rgb(88.627451%,88.627451%,88.627451%);fill-opacity:1;" d="M 292.292969 69.367188 C 292.289062 69.503906 292.285156 69.636719 292.285156 69.773438 C 292.285156 74.859375 293.351562 79.726562 295.25 83.265625 C 295.394531 83.867188 295.558594 84.453125 295.738281 85.023438 C 295.058594 88.953125 294.71875 93.070312 294.730469 97.214844 C 294.730469 111.503906 298.554688 123.085938 303.277344 123.085938 C 307.996094 123.085938 311.824219 111.503906 311.824219 97.214844 C 311.828125 94.117188 311.640625 91.035156 311.265625 88.023438 C 314.28125 81.742188 314.710938 72.328125 312.316406 65.125 C 314.96875 69.585938 318.660156 70.957031 321.980469 68.707031 C 325.300781 66.460938 327.738281 60.945312 328.355469 54.269531 C 328.976562 47.597656 327.683594 40.796875 324.972656 36.472656 C 329.617188 33.167969 332.246094 23.695312 331.089844 14.425781 C 329.933594 5.152344 325.359375 -0.992188 320.445312 0.128906 C 315.527344 1.25 311.824219 9.277344 311.824219 18.816406 C 311.824219 19.089844 311.828125 19.363281 311.832031 19.636719 C 309.121094 18.039062 306.179688 18.792969 303.777344 21.703125 C 301.375 24.609375 299.746094 29.386719 299.316406 34.789062 C 295.988281 30.972656 291.804688 31.308594 288.648438 35.640625 C 285.496094 39.976562 283.96875 47.488281 284.757812 54.792969 C 285.546875 62.097656 288.503906 67.816406 292.292969 69.367188 Z M 308.972656 56.445312 C 309.113281 56.445312 309.253906 56.4375 309.394531 56.425781 C 309.480469 56.984375 309.582031 57.527344 309.695312 58.058594 C 309.460938 57.496094 309.214844 56.957031 308.949219 56.445312 Z M 308.972656 56.445312 "/>
<path style=" stroke:none;fill-rule:nonzero;fill:rgb(42.352941%,38.823529%,100%);fill-opacity:1;" d="M 298.390625 251.660156 L 308.160156 251.660156 L 307.8125 223.4375 L 307.8125 223.425781 L 306.53125 119.945312 C 304.53125 122.300781 302.015625 122.300781 300.019531 119.945312 L 298.738281 223.425781 L 298.738281 223.4375 Z M 298.390625 251.660156 "/>
<path style=" stroke:none;fill-rule:nonzero;fill:rgb(42.352941%,38.823529%,100%);fill-opacity:1;" d="M 280.484375 272.039062 L 280.484375 497.832031 L 326.066406 497.832031 L 326.066406 268.90625 L 315.484375 269.632812 L 315.484375 223.4375 L 291.066406 223.4375 L 291.066406 271.3125 Z M 280.484375 272.039062 "/>
<path style=" stroke:none;fill-rule:nonzero;fill:rgb(88.627451%,88.627451%,88.627451%);fill-opacity:1;" d="M 408.695312 69.367188 C 408.691406 69.503906 408.6875 69.636719 408.6875 69.773438 C 408.6875 74.859375 409.753906 79.726562 411.652344 83.265625 C 411.796875 83.867188 411.960938 84.453125 412.140625 85.023438 C 411.460938 88.953125 411.121094 93.070312 411.132812 97.214844 C 411.132812 111.503906 414.957031 123.085938 419.679688 123.085938 C 424.398438 123.085938 428.226562 111.503906 428.226562 97.214844 C 428.230469 94.117188 428.042969 91.035156 427.667969 88.023438 C 430.683594 81.742188 431.113281 72.328125 428.71875 65.125 C 431.371094 69.585938 435.0625 70.957031 438.382812 68.707031 C 441.703125 66.460938 444.140625 60.945312 444.757812 54.269531 C 445.378906 47.597656 444.085938 40.796875 441.375 36.472656 C 446.019531 33.167969 448.648438 23.695312 447.492188 14.425781 C 446.335938 5.152344 441.761719 -0.992188 436.847656 0.128906 C 431.929688 1.25 428.226562 9.277344 428.226562 18.816406 C 428.226562 19.089844 428.230469 19.363281 428.234375 19.636719 C 425.523438 18.039062 422.582031 18.792969 420.179688 21.703125 C 417.777344 24.609375 416.148438 29.386719 415.71875 34.789062 C 412.390625 30.972656 408.207031 31.308594 405.050781 35.640625 C 401.898438 39.976562 400.371094 47.488281 401.160156 54.792969 C 401.949219 62.097656 404.90625 67.816406 408.695312 69.367188 Z M 425.375 56.445312 C 425.515625 56.445312 425.65625 56.4375 425.796875 56.425781 C 425.882812 56.984375 425.984375 57.527344 426.097656 58.058594 C 425.867188 57.496094 425.617188 56.957031 425.351562 56.445312 Z M 425.375 56.445312 "/>
<path style=" stroke:none;fill-rule:nonzero;fill:rgb(42.352941%,38.823529%,100%);fill-opacity:1;" d="M 414.792969 251.660156 L 424.5625 251.660156 L 422.933594 119.949219 C 420.828125 121.40625 418.527344 121.40625 416.421875 119.949219 Z M 414.792969 251.660156 "/>
<path style=" stroke:none;fill-rule:nonzero;fill:rgb(42.352941%,38.823529%,100%);fill-opacity:1;" d="M 396.886719 272.039062 L 396.886719 497.832031 L 442.472656 497.832031 L 442.472656 268.90625 L 438.726562 269.164062 L 431.886719 269.632812 L 431.886719 223.4375 L 407.464844 223.4375 L 407.464844 271.3125 Z M 396.886719 272.039062 "/>
<path style=" stroke:none;fill-rule:nonzero;fill:rgb(100%,100%,100%);fill-opacity:1;" d="M 385.125 356.832031 L 373.863281 356.832031 L 373.863281 335.140625 L 385.125 335.140625 Z M 385.125 356.832031 "/>
<path style=" stroke:none;fill-rule:nonzero;fill:rgb(100%,100%,100%);fill-opacity:1;" d="M 367.109375 356.832031 L 355.847656 356.832031 L 355.847656 335.140625 L 367.109375 335.140625 Z M 367.109375 356.832031 "/>
<path style=" stroke:none;fill-rule:nonzero;fill:rgb(100%,100%,100%);fill-opacity:1;" d="M 349.089844 356.832031 L 337.828125 356.832031 L 337.828125 335.140625 L 349.089844 335.140625 Z M 349.089844 356.832031 "/>
<path style=" stroke:none;fill-rule:nonzero;fill:rgb(100%,100%,100%);fill-opacity:1;" d="M 385.125 391.539062 L 373.863281 391.539062 L 373.863281 369.847656 L 385.125 369.847656 Z M 385.125 391.539062 "/>
<path style=" stroke:none;fill-rule:nonzero;fill:rgb(100%,100%,100%);fill-opacity:1;" d="M 367.109375 391.539062 L 355.847656 391.539062 L 355.847656 369.847656 L 367.109375 369.847656 Z M 367.109375 391.539062 "/>
<path style=" stroke:none;fill-rule:nonzero;fill:rgb(100%,100%,100%);fill-opacity:1;" d="M 349.089844 391.539062 L 337.828125 391.539062 L 337.828125 369.847656 L 349.089844 369.847656 Z M 349.089844 391.539062 "/>
<path style=" stroke:none;fill-rule:nonzero;fill:rgb(100%,100%,100%);fill-opacity:1;" d="M 385.125 426.246094 L 373.863281 426.246094 L 373.863281 404.554688 L 385.125 404.554688 Z M 385.125 426.246094 "/>
<path style=" stroke:none;fill-rule:nonzero;fill:rgb(100%,100%,100%);fill-opacity:1;" d="M 367.109375 426.246094 L 355.847656 426.246094 L 355.847656 404.554688 L 367.109375 404.554688 Z M 367.109375 426.246094 "/>
<path style=" stroke:none;fill-rule:nonzero;fill:rgb(100%,100%,100%);fill-opacity:1;" d="M 349.089844 426.246094 L 337.828125 426.246094 L 337.828125 404.554688 L 349.089844 404.554688 Z M 349.089844 426.246094 "/>
<path style=" stroke:none;fill-rule:nonzero;fill:rgb(100%,100%,100%);fill-opacity:1;" d="M 308.90625 348.15625 L 297.644531 348.15625 L 297.644531 326.464844 L 308.90625 326.464844 Z M 308.90625 348.15625 "/>
<path style=" stroke:none;fill-rule:nonzero;fill:rgb(100%,100%,100%);fill-opacity:1;" d="M 308.90625 382.863281 L 297.644531 382.863281 L 297.644531 361.171875 L 308.90625 361.171875 Z M 308.90625 382.863281 "/>
<path style=" stroke:none;fill-rule:nonzero;fill:rgb(100%,100%,100%);fill-opacity:1;" d="M 308.90625 417.570312 L 297.644531 417.570312 L 297.644531 395.878906 L 308.90625 395.878906 Z M 308.90625 417.570312 "/>
<path style=" stroke:none;fill-rule:nonzero;fill:rgb(100%,100%,100%);fill-opacity:1;" d="M 308.90625 452.277344 L 297.644531 452.277344 L 297.644531 430.585938 L 308.90625 430.585938 Z M 308.90625 452.277344 "/>
<path style=" stroke:none;fill-rule:nonzero;fill:rgb(100%,100%,100%);fill-opacity:1;" d="M 425.214844 348.15625 L 413.953125 348.15625 L 413.953125 326.464844 L 425.214844 326.464844 Z M 425.214844 348.15625 "/>
<path style=" stroke:none;fill-rule:nonzero;fill:rgb(100%,100%,100%);fill-opacity:1;" d="M 425.214844 382.863281 L 413.953125 382.863281 L 413.953125 361.171875 L 425.214844 361.171875 Z M 425.214844 382.863281 "/>
<path style=" stroke:none;fill-rule:nonzero;fill:rgb(100%,100%,100%);fill-opacity:1;" d="M 425.214844 417.570312 L 413.953125 417.570312 L 413.953125 395.878906 L 425.214844 395.878906 Z M 425.214844 417.570312 "/>
<path style=" stroke:none;fill-rule:nonzero;fill:rgb(100%,100%,100%);fill-opacity:1;" d="M 425.214844 452.277344 L 413.953125 452.277344 L 413.953125 430.585938 L 425.214844 430.585938 Z M 425.214844 452.277344 "/>
<path style=" stroke:none;fill-rule:nonzero;fill:rgb(24.705882%,23.921569%,33.72549%);fill-opacity:1;" d="M 0 497.066406 L 500 497.066406 L 500 499.234375 L 0 499.234375 Z M 0 497.066406 "/>
</g>
</svg>
