<?xml version="1.0" encoding="UTF-8"?>
<svg xmlns="http://www.w3.org/2000/svg" xmlns:xlink="http://www.w3.org/1999/xlink" width="500px" height="500px" viewBox="0 0 500 500" version="1.1">
<defs>
<filter id="alpha" filterUnits="objectBoundingBox" x="0%" y="0%" width="100%" height="100%">
  <feColorMatrix type="matrix" in="SourceGraphic" values="0 0 0 0 1 0 0 0 0 1 0 0 0 0 1 0 0 0 1 0"/>
</filter>
<mask id="mask0">
  <g filter="url(#alpha)">
<rect x="0" y="0" width="500" height="500" style="fill:rgb(0%,0%,0%);fill-opacity:0.101961;stroke:none;"/>
  </g>
</mask>
<clipPath id="clip1">
  <rect x="0" y="0" width="500" height="500"/>
</clipPath>
<g id="surface5" clip-path="url(#clip1)">
<path style=" stroke:none;fill-rule:nonzero;fill:rgb(0%,0%,0%);fill-opacity:1;" d="M 76.226562 303.808594 L 76.96875 261.175781 C 76.96875 261.175781 59.433594 272.765625 57.835938 322.433594 C 56.238281 372.101562 60.5 465.644531 66.363281 466.472656 C 72.226562 467.300781 99.945312 457.367188 99.945312 457.367188 C 99.945312 457.367188 104.210938 337.335938 102.613281 321.605469 C 101.011719 305.878906 76.226562 303.808594 76.226562 303.808594 Z M 76.226562 303.808594 "/>
</g>
</defs>
<g id="surface1">
<path style=" stroke:none;fill-rule:nonzero;fill:rgb(94.901961%,94.901961%,94.901961%);fill-opacity:1;" d="M 362.785156 469.085938 L 360.1875 418.941406 L 352.765625 471.96875 C 352.765625 471.96875 352.863281 485.347656 353.109375 500 L 362.617188 500 C 362.9375 483.25 362.785156 469.085938 362.785156 469.085938 Z M 362.785156 469.085938 "/>
<path style=" stroke:none;fill-rule:nonzero;fill:rgb(94.901961%,94.901961%,94.901961%);fill-opacity:1;" d="M 229.207031 486.917969 C 228.472656 482.230469 227.957031 477.464844 227.660156 472.664062 L 226.621094 455.316406 C 226.183594 450.566406 225.734375 446.378906 225.285156 442.6875 C 221.976562 416.34375 218.558594 415.390625 218.558594 415.390625 C 218.414062 415.566406 218.269531 415.757812 218.125 415.957031 C 217.722656 416.523438 217.347656 417.136719 217.003906 417.789062 C 211.5625 428.527344 207.875 456.382812 205.933594 474.859375 C 204.863281 485.066406 204.332031 492.410156 204.332031 492.410156 C 204.332031 492.410156 204.816406 495.539062 205.476562 500 L 230.304688 500 C 230.207031 495.59375 229.839844 491.214844 229.207031 486.917969 Z M 229.207031 486.917969 "/>
<path style=" stroke:none;fill-rule:nonzero;fill:rgb(94.901961%,94.901961%,94.901961%);fill-opacity:1;" d="M 424.425781 0 L 75.574219 0 C 34.007812 0 0 52.816406 0 117.367188 L 0 382.632812 C 0 447.183594 34.007812 500 75.574219 500 L 186.140625 500 L 184.714844 489.566406 C 184.714844 489.566406 181.046875 452.789062 184.714844 424.117188 C 185.898438 415.121094 186.714844 406.015625 187.148438 396.859375 C 187.609375 386.519531 188.695312 376.273438 190.398438 366.25 C 190.496094 365.671875 190.605469 365.101562 190.707031 364.523438 C 189.8125 364.144531 189.398438 363.84375 189.609375 363.652344 C 190.179688 363.125 190.496094 361.515625 190.652344 359.472656 C 191.632812 345.941406 193.496094 332.601562 196.21875 319.660156 C 192.507812 323.273438 190.046875 323.65625 188.433594 322.257812 C 182.769531 319.855469 185.121094 300.070312 185.121094 300.070312 C 185.121094 300.070312 188.644531 257.28125 189.8125 241.789062 C 190.484375 232.882812 199.097656 227.835938 206.722656 225.097656 C 207.527344 222.421875 208.105469 219.722656 207.738281 216.894531 C 207.710938 216.703125 207.675781 216.519531 207.644531 216.332031 C 206.675781 212.988281 204.703125 210.238281 203.964844 206.777344 C 203.636719 205.84375 203.40625 204.835938 203.28125 203.792969 C 202.625 197.855469 206.199219 192.726562 207.230469 187.015625 C 206.179688 185.441406 205.394531 183.484375 204.945312 181.324219 C 203.375 176.320312 204.140625 170.316406 209.183594 165.679688 C 210.191406 164.753906 211.257812 163.9375 212.339844 163.15625 C 212.738281 162.757812 213.171875 162.449219 213.625 162.242188 C 217.234375 159.707031 220.859375 157.253906 223.019531 152.316406 C 223.574219 151.046875 224.0625 149.570312 224.964844 148.902344 C 225.386719 148.621094 225.839844 148.464844 226.300781 148.4375 C 233.257812 147.609375 239.550781 156.871094 246.472656 155.542969 C 248.570312 155.140625 250.710938 153.773438 252.722656 154.757812 C 254.042969 155.40625 255.078125 156.980469 255.964844 158.613281 C 260.863281 167.691406 262.898438 179.6875 261.515625 191.335938 C 260.636719 198.417969 258.503906 205.714844 260.039062 212.527344 C 261.171875 217.53125 264.195312 221.59375 264.21875 226.886719 C 264.234375 231.246094 262.242188 234.722656 260.320312 238.113281 C 260.570312 238.507812 260.8125 238.917969 261.050781 239.335938 C 265.753906 247.65625 264.863281 254.757812 264.199219 257.601562 L 261.78125 293.835938 L 259.742188 318.148438 C 259.742188 318.148438 259.238281 328.125 254.492188 330.3125 C 253.109375 331.308594 251.296875 331.570312 248.914062 330.441406 C 247.367188 329.710938 246.066406 328.980469 244.960938 328.273438 C 246.003906 333.453125 247.804688 344.035156 247.511719 354.300781 C 247.101562 368.640625 248.328125 369.886719 248.328125 369.886719 C 248.25 370.03125 248.164062 370.167969 248.066406 370.285156 C 252.910156 386.902344 252.957031 403.953125 247.917969 421 C 242.210938 440.324219 248.328125 485.203125 248.328125 485.203125 C 248.328125 485.203125 248.761719 492.207031 248.957031 500 L 336.53125 500 C 335.136719 479.367188 333.464844 458.714844 332.722656 456.40625 C 331.496094 452.597656 333.050781 389.894531 333.632812 368.113281 C 333.375 368.011719 333.121094 367.910156 332.886719 367.804688 C 332.472656 367.621094 332.097656 367.425781 331.753906 367.230469 C 331.738281 368.339844 331.8125 369.445312 331.980469 370.523438 C 332.496094 372.390625 331.257812 373.765625 329.160156 374.703125 C 330.378906 383.960938 331.890625 401.191406 326.785156 404.53125 C 321.53125 407.964844 321.425781 387.105469 321.714844 376.230469 C 321.050781 376.269531 320.386719 376.289062 319.730469 376.289062 C 313.421875 376.289062 321.585938 262.742188 321.214844 255.246094 C 320.84375 247.753906 324.183594 217.207031 324.183594 217.207031 C 324.183594 217.207031 325.300781 210.867188 328.640625 209.714844 C 331.980469 208.558594 347.9375 194.152344 347.9375 194.152344 C 348.835938 192.191406 349.972656 190.523438 351.28125 189.238281 L 351.28125 188.386719 C 351.695312 187.785156 352.136719 187.230469 352.605469 186.722656 C 352.410156 181.6875 351.96875 175.1875 351.652344 170.800781 C 349.855469 167.960938 348.644531 164.359375 348.167969 160.453125 C 347.484375 159.621094 346.835938 158.726562 346.226562 157.769531 C 344.691406 155.042969 343.8125 151.574219 343.734375 147.957031 C 343.667969 144.359375 344.003906 140.777344 344.726562 137.359375 C 344.914062 136.226562 345.203125 135.136719 345.585938 134.125 C 346.109375 132.953125 346.769531 131.9375 347.527344 131.132812 C 347.753906 130.871094 347.988281 130.628906 348.21875 130.386719 C 348.710938 128.902344 349.433594 127.628906 350.320312 126.683594 C 352.210938 124.753906 354.652344 124.910156 356.914062 124.996094 C 356.949219 125 356.984375 125 357.019531 125 C 357.4375 124.894531 357.859375 124.808594 358.285156 124.738281 C 358.789062 124.582031 359.1875 123.976562 359.296875 123.195312 C 359.605469 123.652344 359.910156 124.109375 360.21875 124.566406 C 360.679688 124.554688 361.136719 124.570312 361.597656 124.605469 C 361.800781 123.878906 362.039062 123.183594 362.3125 122.515625 C 362.480469 123.261719 362.648438 124.003906 362.816406 124.75 C 363.277344 124.828125 363.738281 124.921875 364.195312 125.046875 C 364.558594 124.601562 364.917969 124.15625 365.277344 123.710938 C 365.359375 123.613281 365.644531 125.070312 365.789062 125.570312 C 366.039062 125.671875 366.285156 125.777344 366.53125 125.894531 C 366.914062 125.867188 367.339844 125.753906 367.578125 125.761719 C 368.882812 125.691406 370.175781 126.191406 371.308594 127.203125 C 372.296875 128.320312 373.109375 129.777344 373.679688 131.453125 C 375.136719 135.039062 376.042969 139.09375 376.324219 143.308594 C 377.035156 144.835938 377.53125 146.570312 377.792969 148.40625 C 378.40625 154.191406 374.863281 159.027344 374.164062 164.789062 C 373.789062 167.863281 374.214844 171.265625 373.207031 173.972656 C 372.765625 175.0625 372.1875 176.007812 371.507812 176.742188 C 371.105469 177.207031 370.6875 177.636719 370.25 178.027344 C 370.273438 181.511719 370.53125 184.984375 371.019531 188.386719 L 371.496094 191.230469 C 372.238281 192.0625 373.039062 193.023438 373.917969 194.152344 C 373.917969 194.152344 384.3125 201.066406 388.023438 204.527344 C 391.285156 207.566406 394.832031 207.9375 395.894531 211.898438 L 396.1875 212.019531 C 396.1875 212.019531 399.898438 275.996094 400.269531 286.949219 C 400.640625 297.898438 405.09375 365.335938 404.351562 368.21875 C 404.078125 369.285156 402.328125 370.507812 400.214844 371.484375 C 401.449219 380.238281 403.4375 399.273438 398.042969 402.800781 C 392.574219 406.378906 392.6875 383.601562 393.011719 373.203125 C 392.28125 373.101562 391.804688 372.804688 391.734375 372.253906 C 391.675781 371.785156 391.480469 369.667969 391.199219 366.441406 C 390.738281 366.554688 390.257812 366.667969 389.75 366.789062 C 389.644531 366.8125 389.539062 366.839844 389.433594 366.863281 C 394.140625 389.851562 383.71875 450.8125 381.714844 462.746094 C 380.664062 468.980469 379.535156 484.398438 378.519531 500 L 424.425781 500 C 465.992188 500 500 447.183594 500 382.632812 L 500 117.367188 C 500 52.816406 465.992188 0 424.425781 0 Z M 424.425781 0 "/>
<path style=" stroke:none;fill-rule:nonzero;fill:rgb(24.705882%,23.921569%,33.72549%);fill-opacity:1;" d="M 162.578125 139.902344 C 162.578125 100.375 139.90625 68.335938 111.941406 68.335938 C 83.972656 68.335938 61.300781 100.375 61.300781 139.902344 C 61.300781 179.425781 83.972656 211.464844 111.941406 211.464844 C 139.90625 211.464844 162.578125 179.425781 162.578125 139.902344 Z M 162.578125 139.902344 "/>
<path style=" stroke:none;fill-rule:nonzero;fill:rgb(100%,72.54902%,72.54902%);fill-opacity:1;" d="M 195.363281 373.757812 C 195.363281 373.757812 212.421875 355.546875 212.421875 347.269531 C 212.421875 338.988281 224.148438 285.183594 230.542969 309.1875 C 236.941406 333.195312 221.480469 367.136719 221.480469 367.136719 C 221.480469 367.136719 204.425781 415.148438 194.296875 423.425781 C 184.167969 431.707031 175.640625 426.738281 175.640625 426.738281 L 175.640625 404.386719 L 185.382812 381.988281 C 187.625 376.84375 191.363281 373.757812 195.363281 373.757812 Z M 195.363281 373.757812 "/>
<path style=" stroke:none;fill-rule:nonzero;fill:rgb(34.117647%,35.294118%,53.72549%);fill-opacity:1;" d="M 146.878906 246.96875 C 146.878906 246.96875 172.441406 259.519531 175.105469 265.316406 C 177.773438 271.109375 178.839844 261.175781 186.300781 299.253906 C 193.761719 337.335938 195.628906 374.171875 195.628906 374.171875 C 195.628906 374.171875 177.238281 383.691406 179.371094 420.945312 C 181.503906 458.195312 176.171875 498.757812 176.171875 498.757812 L 169.519531 498.757812 L 154.851562 428.394531 L 172.441406 321.605469 C 172.441406 321.605469 147.433594 255.9375 146.878906 246.96875 Z M 146.878906 246.96875 "/>
<path style=" stroke:none;fill-rule:nonzero;fill:rgb(100%,72.54902%,72.54902%);fill-opacity:1;" d="M 170.308594 162.664062 C 170.308594 190.097656 155.988281 212.335938 138.328125 212.335938 C 120.664062 212.335938 106.34375 190.097656 106.34375 162.664062 C 106.34375 135.234375 120.664062 112.996094 138.328125 112.996094 C 155.988281 112.996094 170.308594 135.234375 170.308594 162.664062 Z M 170.308594 162.664062 "/>
<path style=" stroke:none;fill-rule:nonzero;fill:rgb(100%,72.54902%,72.54902%);fill-opacity:1;" d="M 150.585938 199.917969 C 150.585938 199.917969 141.523438 246.273438 149.519531 252.898438 C 157.515625 259.519531 166.578125 289.320312 166.578125 289.320312 L 152.71875 313.328125 L 120.734375 313.328125 L 106.34375 288.492188 L 100.480469 246.273438 L 108.476562 236.339844 C 108.476562 236.339844 117.003906 203.226562 117.003906 185.84375 C 117.003906 168.460938 150.585938 199.917969 150.585938 199.917969 Z M 150.585938 199.917969 "/>
<path style=" stroke:none;fill-rule:nonzero;fill:rgb(42.352941%,38.823529%,100%);fill-opacity:1;" d="M 153.25 251.242188 C 153.25 251.242188 146.855469 248.757812 150.585938 258.691406 C 154.316406 268.625 158.050781 286.835938 144.722656 287.664062 C 131.398438 288.492188 118.070312 277.730469 113.804688 255.378906 C 109.542969 233.03125 107.941406 234.683594 106.34375 235.511719 C 104.742188 236.339844 87.6875 263.660156 87.6875 263.660156 L 93.550781 314.984375 L 95.683594 498.757812 L 173.507812 498.757812 C 173.507812 498.757812 176.707031 445.777344 171.375 433.359375 C 166.042969 420.945312 176.171875 389.488281 176.171875 389.488281 C 176.171875 389.488281 185.234375 367.964844 178.304688 326.574219 C 171.375 285.183594 155.917969 251.242188 153.25 251.242188 Z M 153.25 251.242188 "/>
<path style=" stroke:none;fill-rule:nonzero;fill:rgb(34.117647%,35.294118%,53.72549%);fill-opacity:1;" d="M 110.074219 235.511719 C 110.074219 235.511719 102.078125 229.71875 95.148438 239.652344 C 88.21875 249.585938 72.761719 257.863281 72.761719 262.832031 C 72.761719 267.796875 86.085938 409.355469 77.027344 434.1875 C 67.964844 459.023438 58.367188 498.757812 58.367188 498.757812 L 102.832031 498.757812 C 102.832031 498.757812 110.074219 457.367188 117.539062 435.015625 C 125 412.664062 124.46875 349.75 122.335938 330.710938 C 120.203125 311.671875 110.074219 235.511719 110.074219 235.511719 Z M 110.074219 235.511719 "/>
<path style=" stroke:none;fill-rule:nonzero;fill:rgb(100%,72.54902%,72.54902%);fill-opacity:1;" d="M 63.167969 454.882812 L 65.761719 498.757812 L 94.570312 498.757812 L 91.949219 444.121094 Z M 63.167969 454.882812 "/>
<path style=" stroke:none;fill-rule:nonzero;fill:rgb(24.705882%,23.921569%,33.72549%);fill-opacity:1;" d="M 194.296875 431.707031 L 201.226562 498.757812 L 355.277344 498.757812 L 368.601562 363.824219 Z M 194.296875 431.707031 "/>
<path style=" stroke:none;fill-rule:nonzero;fill:rgb(24.705882%,23.921569%,33.72549%);fill-opacity:1;" d="M 374.46875 354.71875 L 376.066406 367.136719 L 176.707031 441.640625 L 176.707031 430.878906 Z M 374.46875 354.71875 "/>
<path style=" stroke:none;fill-rule:nonzero;fill:rgb(24.705882%,23.921569%,33.72549%);fill-opacity:1;" d="M 290.246094 377.070312 L 289.179688 391.140625 L 300.90625 388.660156 L 296.109375 374.585938 Z M 290.246094 377.070312 "/>
<path style="fill:none;stroke-width:5;stroke-linecap:butt;stroke-linejoin:miter;stroke:rgb(24.705882%,23.921569%,33.72549%);stroke-opacity:1;stroke-miterlimit:10;" d="M 554.499672 431.497781 C 554.499672 431.497781 598.497734 428.501375 610.501203 462.499969 C 622.497344 496.498562 650.498109 557.497844 661.497625 566.501219 C 672.497141 575.499875 684.500609 599.499437 682.500031 607.497719 " transform="matrix(0.533049,0,0,0.827815,-69.829424,-122.516556)"/>
<path style=" stroke:none;fill-rule:nonzero;fill:rgb(42.352941%,38.823529%,100%);fill-opacity:1;" d="M 229.210938 234.273438 C 229.210938 238.15625 226.550781 241.308594 222.28125 241.308594 C 218.011719 241.308594 215.886719 238.15625 215.886719 234.273438 C 215.886719 230.386719 218.011719 227.234375 222.28125 227.234375 C 226.550781 227.234375 229.210938 230.386719 229.210938 234.273438 Z M 229.210938 234.273438 "/>
<path style=" stroke:none;fill-rule:nonzero;fill:rgb(34.117647%,35.294118%,53.72549%);fill-opacity:1;" d="M 189.765625 363.410156 C 189.765625 363.410156 193.761719 337.335938 186.300781 299.253906 C 178.839844 261.175781 177.773438 271.109375 175.105469 265.316406 C 172.441406 259.519531 146.878906 246.96875 146.878906 246.96875 C 147.0625 249.914062 149.882812 258.984375 153.59375 269.835938 C 152.925781 265.921875 151.914062 262.175781 150.585938 258.691406 C 146.855469 248.757812 153.25 251.242188 153.25 251.242188 C 155.917969 251.242188 171.375 285.183594 178.304688 326.574219 C 185.234375 367.964844 176.171875 389.488281 176.171875 389.488281 Z M 189.765625 363.410156 "/>
<path style=" stroke:none;fill-rule:nonzero;fill:rgb(34.117647%,35.294118%,53.72549%);fill-opacity:1;" d="M 147.121094 246.6875 C 147.121094 246.6875 150.277344 265.28125 152.964844 267.988281 C 155.648438 270.695312 171.582031 296.402344 171.582031 296.402344 L 169.507812 275.664062 L 160.980469 255.792969 L 158.710938 253.238281 Z M 147.121094 246.6875 "/>
<use xlink:href="#surface5" mask="url(#mask0)"/>
<path style=" stroke:none;fill-rule:nonzero;fill:rgb(34.117647%,35.294118%,53.72549%);fill-opacity:1;" d="M 77.558594 261.175781 L 73.238281 261.175781 C 73.238281 261.175781 55.703125 272.765625 54.105469 322.433594 C 52.503906 372.101562 56.769531 465.644531 62.632812 466.472656 C 68.496094 467.300781 96.214844 457.367188 96.214844 457.367188 C 96.214844 457.367188 100.480469 337.335938 98.878906 321.605469 C 97.28125 305.878906 77.558594 261.175781 77.558594 261.175781 Z M 77.558594 261.175781 "/>
<path style=" stroke:none;fill-rule:nonzero;fill:rgb(24.705882%,23.921569%,33.72549%);fill-opacity:1;" d="M 133.261719 149.421875 C 133.261719 117.644531 118.464844 91.886719 100.214844 91.886719 C 81.960938 91.886719 67.164062 117.644531 67.164062 149.421875 C 67.164062 181.195312 81.960938 206.953125 100.214844 206.953125 C 118.464844 206.953125 133.261719 181.195312 133.261719 149.421875 Z M 133.261719 149.421875 "/>
<path style=" stroke:none;fill-rule:nonzero;fill:rgb(100%,72.54902%,72.54902%);fill-opacity:1;" d="M 130.597656 180.878906 C 130.597656 172.417969 127.613281 165.5625 123.933594 165.5625 C 120.253906 165.5625 117.269531 172.417969 117.269531 180.878906 C 117.269531 189.335938 120.253906 196.191406 123.933594 196.191406 C 127.613281 196.191406 130.597656 189.335938 130.597656 180.878906 Z M 130.597656 180.878906 "/>
<path style=" stroke:none;fill-rule:nonzero;fill:rgb(24.705882%,23.921569%,33.72549%);fill-opacity:1;" d="M 94.351562 91.886719 C 94.351562 115.203125 82.179688 134.105469 67.164062 134.105469 C 52.148438 134.105469 39.980469 115.203125 39.980469 91.886719 C 39.980469 68.570312 52.148438 49.667969 67.164062 49.667969 C 82.179688 49.667969 94.351562 68.570312 94.351562 91.886719 Z M 94.351562 91.886719 "/>
<path style=" stroke:none;fill-rule:nonzero;fill:rgb(24.705882%,23.921569%,33.72549%);fill-opacity:1;" d="M 70.679688 125.710938 C 62.660156 132.046875 53.140625 131.808594 45.257812 125.078125 C 37.371094 118.351562 32.144531 106 31.289062 92.089844 C 29.707031 108.230469 34.257812 124.34375 42.976562 133.464844 C 51.695312 142.585938 63.023438 143.078125 72.058594 134.730469 C 81.09375 126.382812 86.21875 110.691406 85.222656 94.4375 C 83.910156 107.898438 78.492188 119.542969 70.679688 125.710938 Z M 70.679688 125.710938 "/>
<path style=" stroke:none;fill-rule:nonzero;fill:rgb(24.705882%,23.921569%,33.72549%);fill-opacity:1;" d="M 52.25 98.867188 C 46.707031 87.859375 45.03125 73.308594 47.769531 60 C 50.511719 46.691406 57.3125 36.351562 65.941406 32.382812 C 55.433594 33.0625 46.125 43.09375 42.035156 58.132812 C 37.941406 73.175781 39.804688 90.53125 46.8125 102.699219 C 53.820312 114.871094 64.722656 119.671875 74.800781 115.03125 C 66.042969 115.613281 57.644531 109.59375 52.25 98.867188 Z M 52.25 98.867188 "/>
<path style=" stroke:none;fill-rule:nonzero;fill:rgb(24.705882%,23.921569%,33.72549%);fill-opacity:1;" d="M 159.382812 124.171875 C 159.382812 112.285156 150.789062 102.648438 140.191406 102.648438 C 129.59375 102.648438 121.003906 112.285156 121.003906 124.171875 C 121.003906 136.058594 129.59375 145.695312 140.191406 145.695312 C 150.789062 145.695312 159.382812 136.058594 159.382812 124.171875 Z M 159.382812 124.171875 "/>
</g>
</svg>
