<?xml version="1.0" encoding="UTF-8"?>
<svg xmlns="http://www.w3.org/2000/svg" xmlns:xlink="http://www.w3.org/1999/xlink" width="500px" height="500px" viewBox="0 0 500 500" version="1.1">
<g id="surface1">
<path style=" stroke:none;fill-rule:nonzero;fill:rgb(42.352941%,38.823529%,100%);fill-opacity:1;" d="M 472.121094 259.726562 C 482.402344 239.449219 478.480469 213.140625 467.550781 204.332031 C 456.617188 195.523438 436.03125 202.085938 425.75 222.363281 C 416.234375 241.128906 419.375 265.449219 428.058594 275.542969 C 427.894531 275.578125 427.734375 275.648438 427.589844 275.757812 L 425.042969 277.769531 C 424.652344 278.082031 424.414062 278.625 424.414062 279.214844 C 424.417969 279.800781 424.660156 280.34375 425.058594 280.648438 L 430.519531 284.84375 C 430.917969 285.148438 431.410156 285.171875 431.824219 284.90625 C 432.242188 284.640625 432.515625 284.121094 432.554688 283.539062 L 432.804688 279.769531 C 432.8125 279.636719 432.808594 279.503906 432.789062 279.375 C 443.707031 285.148438 462.582031 278.535156 472.121094 259.726562 Z M 472.121094 259.726562 "/>
<path style=" stroke:none;fill-rule:nonzero;fill:rgb(100%,100%,100%);fill-opacity:1;" d="M 466.894531 219.726562 C 470.359375 233.742188 464.597656 248.742188 453.726562 254.007812 C 452.53125 254.589844 453.050781 257.042969 454.261719 256.453125 C 466.179688 250.78125 472.558594 234.414062 468.835938 219.054688 C 468.460938 217.496094 466.515625 218.160156 466.894531 219.726562 Z M 466.894531 219.726562 "/>
<path style=" stroke:none;fill-rule:nonzero;fill:rgb(90.196078%,90.196078%,90.196078%);fill-opacity:1;" d="M 99.835938 185.984375 C 110.449219 168.082031 129.875 163.757812 139.527344 172.851562 C 149.183594 181.945312 151.398438 206.65625 140.785156 224.558594 C 130.960938 241.132812 113.160156 245.652344 103.355469 239.445312 C 103.390625 239.636719 103.390625 239.835938 103.363281 240.03125 L 102.808594 243.476562 C 102.722656 244.011719 102.425781 244.449219 102.019531 244.640625 C 101.613281 244.828125 101.160156 244.738281 100.820312 244.402344 L 96.140625 239.792969 C 95.800781 239.460938 95.621094 238.925781 95.667969 238.382812 C 95.714844 237.84375 95.980469 237.371094 96.371094 237.136719 L 98.890625 235.628906 C 98.976562 235.578125 99.070312 235.539062 99.167969 235.515625 C 91.609375 225.445312 89.988281 202.59375 99.835938 185.984375 Z M 99.835938 185.984375 "/>
<path style=" stroke:none;fill-rule:nonzero;fill:rgb(100%,100%,100%);fill-opacity:1;" d="M 123.050781 179.226562 C 112.269531 181.386719 104.71875 193.8125 105.871094 207.496094 C 105.984375 209.007812 104.113281 208.996094 104 207.496094 C 102.890625 192.761719 110.980469 179.445312 122.554688 176.953125 C 123.730469 176.699219 124.238281 178.972656 123.050781 179.226562 Z M 123.050781 179.226562 "/>
<path style=" stroke:none;fill-rule:nonzero;fill:rgb(94.901961%,94.901961%,94.901961%);fill-opacity:1;" d="M 366.976562 438.789062 C 375.316406 422.339844 372.136719 400.992188 363.265625 393.84375 C 354.398438 386.699219 337.691406 392.023438 329.351562 408.472656 C 321.628906 423.703125 324.179688 443.433594 331.226562 451.625 C 331.089844 451.652344 330.960938 451.710938 330.839844 451.800781 L 328.777344 453.429688 C 328.457031 453.683594 328.265625 454.125 328.265625 454.601562 C 328.269531 455.078125 328.46875 455.519531 328.789062 455.765625 L 333.21875 459.167969 C 333.542969 459.417969 333.945312 459.4375 334.28125 459.222656 C 334.617188 459.007812 334.839844 458.585938 334.871094 458.113281 L 335.074219 455.054688 C 335.082031 454.945312 335.078125 454.839844 335.0625 454.734375 C 343.917969 459.417969 359.238281 454.050781 366.976562 438.789062 Z M 366.976562 438.789062 "/>
<path style=" stroke:none;fill-rule:nonzero;fill:rgb(24.705882%,23.921569%,33.72549%);fill-opacity:1;" d="M 493.054688 67.238281 L 6.988281 67.238281 C 3.128906 67.242188 0.00390625 71.183594 0 76.042969 L 0 491.238281 C 0.00390625 496.097656 3.128906 500.039062 6.988281 500.042969 L 493.054688 500.042969 C 496.910156 500.039062 500.035156 496.097656 500.039062 491.238281 L 500.039062 76.042969 C 500.035156 71.183594 496.910156 67.242188 493.054688 67.238281 Z M 498.042969 491.238281 C 498.042969 494.710938 495.808594 497.527344 493.054688 497.527344 L 6.988281 497.527344 C 4.230469 497.527344 1.996094 494.710938 1.996094 491.238281 L 1.996094 76.042969 C 1.996094 72.570312 4.230469 69.753906 6.988281 69.753906 L 493.054688 69.753906 C 495.808594 69.753906 498.042969 72.570312 498.042969 76.042969 Z M 498.042969 491.238281 "/>
<path style=" stroke:none;fill-rule:nonzero;fill:rgb(24.705882%,23.921569%,33.72549%);fill-opacity:1;" d="M 1 102.515625 L 499.042969 102.515625 L 499.042969 105.03125 L 1 105.03125 Z M 1 102.515625 "/>
<path style=" stroke:none;fill-rule:nonzero;fill:rgb(24.705882%,23.921569%,33.72549%);fill-opacity:1;" d="M 23.953125 86.109375 C 23.953125 90.277344 21.273438 93.660156 17.964844 93.660156 C 14.65625 93.660156 11.976562 90.277344 11.976562 86.109375 C 11.976562 81.941406 14.65625 78.5625 17.964844 78.5625 C 21.273438 78.5625 23.953125 81.941406 23.953125 86.109375 Z M 23.953125 86.109375 "/>
<path style=" stroke:none;fill-rule:nonzero;fill:rgb(24.705882%,23.921569%,33.72549%);fill-opacity:1;" d="M 41.171875 86.109375 C 41.171875 90.277344 38.488281 93.660156 35.183594 93.660156 C 31.875 93.660156 29.195312 90.277344 29.195312 86.109375 C 29.195312 81.941406 31.875 78.5625 35.183594 78.5625 C 38.488281 78.5625 41.171875 81.941406 41.171875 86.109375 Z M 41.171875 86.109375 "/>
<path style=" stroke:none;fill-rule:nonzero;fill:rgb(24.705882%,23.921569%,33.72549%);fill-opacity:1;" d="M 58.386719 86.109375 C 58.386719 90.277344 55.707031 93.660156 52.398438 93.660156 C 49.09375 93.660156 46.410156 90.277344 46.410156 86.109375 C 46.410156 81.941406 49.09375 78.5625 52.398438 78.5625 C 55.707031 78.5625 58.386719 81.941406 58.386719 86.109375 Z M 58.386719 86.109375 "/>
<path style=" stroke:none;fill-rule:nonzero;fill:rgb(18.431373%,18.039216%,25.490196%);fill-opacity:1;" d="M 268.457031 206.675781 C 268.457031 220.855469 259.335938 232.355469 248.085938 232.355469 C 236.832031 232.355469 227.714844 220.855469 227.714844 206.675781 C 227.714844 192.492188 236.832031 180.996094 248.085938 180.996094 C 259.335938 180.996094 268.457031 192.492188 268.457031 206.675781 Z M 268.457031 206.675781 "/>
<path style=" stroke:none;fill-rule:nonzero;fill:rgb(62.745098%,38.039216%,41.568627%);fill-opacity:1;" d="M 282.625 454.738281 L 275.226562 459.269531 L 257.832031 425.445312 L 268.753906 418.753906 Z M 282.625 454.738281 "/>
<path style=" stroke:none;fill-rule:nonzero;fill:rgb(18.431373%,18.039216%,25.490196%);fill-opacity:1;" d="M 268.910156 459.84375 L 283.183594 451.101562 L 287.550781 462.429688 L 264.292969 476.675781 C 261.878906 470.417969 263.949219 462.882812 268.910156 459.84375 Z M 268.910156 459.84375 "/>
<path style=" stroke:none;fill-rule:nonzero;fill:rgb(18.431373%,18.039216%,25.490196%);fill-opacity:1;" d="M 267.859375 453.851562 C 267.621094 453.851562 267.378906 453.816406 267.148438 453.746094 C 266.246094 453.472656 265.488281 452.710938 265.074219 451.667969 L 245.214844 402.050781 C 244.546875 400.363281 244.871094 398.320312 246.007812 397.09375 L 257.066406 385.367188 C 257.820312 384.554688 258.84375 384.253906 259.808594 384.566406 C 260.792969 384.875 261.597656 385.769531 261.960938 386.960938 L 278.9375 440.691406 C 279.484375 442.40625 279.046875 444.367188 277.871094 445.472656 L 269.695312 453.085938 C 269.164062 453.582031 268.519531 453.851562 267.859375 453.851562 Z M 267.859375 453.851562 "/>
<path style=" stroke:none;fill-rule:nonzero;fill:rgb(62.745098%,38.039216%,41.568627%);fill-opacity:1;" d="M 260.808594 478.601562 L 253.226562 482.628906 L 237.292969 447.679688 L 248.484375 441.734375 Z M 260.808594 478.601562 "/>
<path style=" stroke:none;fill-rule:nonzero;fill:rgb(18.431373%,18.039216%,25.490196%);fill-opacity:1;" d="M 246.898438 482.773438 L 261.519531 475.007812 L 265.398438 486.613281 L 241.570312 499.273438 C 239.425781 492.863281 241.8125 485.476562 246.898438 482.773438 Z M 246.898438 482.773438 "/>
<path style=" stroke:none;fill-rule:nonzero;fill:rgb(18.431373%,18.039216%,25.490196%);fill-opacity:1;" d="M 248.726562 478.488281 C 247.640625 478.488281 246.636719 477.75 246.105469 476.558594 C 243.34375 470.394531 235.871094 453.265625 226.105469 427.351562 C 214.519531 396.601562 240.183594 362.519531 245.445312 356 C 245.925781 355.40625 246.179688 354.578125 246.140625 353.730469 L 245 327.867188 C 244.910156 325.921875 246.007812 324.207031 247.53125 323.898438 L 277.835938 317.699219 C 278.902344 317.488281 279.980469 318 280.664062 319.050781 C 285.785156 326.882812 287.984375 335.3125 287.203125 344.097656 C 285.605469 362.039062 272.199219 375.585938 270.675781 377.070312 C 270.613281 377.132812 270.554688 377.195312 270.496094 377.265625 L 243.066406 410.234375 C 242.363281 411.074219 242.144531 412.367188 242.511719 413.496094 L 259.480469 466.003906 C 260.011719 467.628906 259.585938 469.5 258.453125 470.527344 L 250.5 477.765625 C 249.984375 478.234375 249.363281 478.488281 248.726562 478.488281 Z M 248.726562 478.488281 "/>
<path style=" stroke:none;fill-rule:nonzero;fill:rgb(62.745098%,38.039216%,41.568627%);fill-opacity:1;" d="M 222.175781 300.632812 C 221.5 300.636719 220.839844 300.351562 220.304688 299.820312 L 195.851562 275.597656 C 195.625 275.699219 195.394531 275.785156 195.15625 275.855469 C 191.1875 277.03125 187.214844 273.929688 186.28125 268.925781 C 185.347656 263.921875 187.808594 258.914062 191.777344 257.738281 C 195.746094 256.5625 199.722656 259.664062 200.65625 264.667969 C 200.726562 265.070312 200.78125 265.480469 200.808594 265.894531 L 221.710938 285.039062 L 229.703125 274.710938 L 237.5625 287.683594 L 223.929688 299.933594 C 223.417969 300.390625 222.804688 300.636719 222.175781 300.632812 Z M 222.175781 300.632812 "/>
<path style=" stroke:none;fill-rule:nonzero;fill:rgb(62.745098%,38.039216%,41.568627%);fill-opacity:1;" d="M 262.097656 218.097656 C 262.097656 229.574219 254.71875 238.875 245.613281 238.875 C 236.511719 238.875 229.128906 229.574219 229.128906 218.097656 C 229.128906 206.621094 236.511719 197.316406 245.613281 197.316406 C 254.71875 197.316406 262.097656 206.621094 262.097656 218.097656 Z M 262.097656 218.097656 "/>
<path style=" stroke:none;fill-rule:nonzero;fill:rgb(42.352941%,38.823529%,100%);fill-opacity:1;" d="M 253.398438 340.632812 C 252.054688 340.648438 250.726562 340.347656 249.472656 339.746094 C 247.601562 338.832031 246.039062 337.136719 245.042969 334.941406 C 239.949219 323.746094 228.976562 289.042969 239.195312 263.277344 C 246.078125 245.925781 253.691406 241.800781 258.867188 241.398438 C 263.640625 241.023438 264.566406 242.359375 266.164062 247.777344 C 267.050781 250.78125 268.769531 255.074219 270.765625 260.050781 C 277.921875 277.90625 288.734375 304.890625 279.683594 318.308594 C 269.914062 332.796875 260.597656 340.632812 253.398438 340.632812 Z M 253.398438 340.632812 "/>
<path style=" stroke:none;fill-rule:nonzero;fill:rgb(42.352941%,38.823529%,100%);fill-opacity:1;" d="M 240.042969 291.707031 C 239.5625 291.707031 239.09375 291.507812 238.710938 291.136719 L 225.859375 278.777344 C 225.347656 278.285156 225.035156 277.535156 224.996094 276.726562 C 224.960938 275.917969 225.203125 275.128906 225.667969 274.566406 L 238.015625 259.570312 C 239.742188 257.476562 242.359375 257.082031 244.429688 258.597656 C 246.5 260.117188 247.519531 263.179688 246.929688 266.105469 L 242.183594 289.613281 C 241.933594 290.84375 241.054688 291.707031 240.042969 291.707031 Z M 240.042969 291.707031 "/>
<path style=" stroke:none;fill-rule:nonzero;fill:rgb(62.745098%,38.039216%,41.568627%);fill-opacity:1;" d="M 251.824219 325.75 C 248.550781 325.730469 245.675781 323 244.753906 319.039062 C 244.167969 316.492188 244.46875 313.75 245.585938 311.503906 C 246.703125 309.253906 248.527344 307.714844 250.597656 307.265625 C 250.925781 307.199219 251.253906 307.160156 251.582031 307.148438 L 273.390625 273.195312 L 266.105469 263.304688 L 276.859375 254.210938 L 285.722656 272.117188 C 286.425781 273.554688 286.300781 275.40625 285.410156 276.667969 L 258.960938 313.980469 C 259.027344 314.273438 259.078125 314.570312 259.121094 314.871094 C 259.476562 317.484375 258.929688 320.164062 257.617188 322.238281 C 256.304688 324.3125 254.355469 325.585938 252.253906 325.730469 C 252.109375 325.742188 251.96875 325.75 251.824219 325.75 Z M 251.824219 325.75 "/>
<path style=" stroke:none;fill-rule:nonzero;fill:rgb(42.352941%,38.823529%,100%);fill-opacity:1;" d="M 266.355469 271.753906 C 265.589844 271.753906 264.882812 271.253906 264.480469 270.433594 L 255.480469 252.035156 C 254.308594 249.621094 254.449219 246.539062 255.832031 244.308594 C 257.410156 241.796875 260.167969 241.019531 262.441406 242.445312 L 279.652344 253.292969 C 280.316406 253.707031 280.765625 254.515625 280.855469 255.441406 C 280.945312 256.367188 280.660156 257.289062 280.097656 257.894531 L 267.785156 271.089844 C 267.386719 271.519531 266.878906 271.753906 266.355469 271.753906 Z M 266.355469 271.753906 "/>
<path style=" stroke:none;fill-rule:nonzero;fill:rgb(24.705882%,23.921569%,33.72549%);fill-opacity:1;" d="M 232.1875 239.789062 L 243.757812 230.808594 L 242.910156 229.074219 L 232.019531 237.53125 C 231.425781 235.648438 229.828125 234.601562 228.265625 235.074219 C 226.703125 235.546875 225.65625 237.398438 225.804688 239.414062 C 225.957031 241.429688 227.261719 242.996094 228.867188 243.09375 C 230.472656 243.1875 231.886719 241.777344 232.1875 239.789062 Z M 232.1875 239.789062 "/>
<path style=" stroke:none;fill-rule:nonzero;fill:rgb(18.431373%,18.039216%,25.490196%);fill-opacity:1;" d="M 257.046875 186.003906 C 257.046875 186.003906 249.320312 195.570312 232.546875 198.589844 C 215.773438 201.609375 228.953125 234.835938 228.953125 234.835938 C 228.953125 234.835938 224.160156 222.753906 233.746094 212.183594 C 243.328125 201.609375 257.046875 199.59375 257.046875 186.003906 Z M 257.046875 186.003906 "/>
<path style=" stroke:none;fill-rule:nonzero;fill:rgb(18.431373%,18.039216%,25.490196%);fill-opacity:1;" d="M 248.835938 179.234375 C 248.835938 179.234375 253.625 200.378906 260.816406 203.398438 C 268.003906 206.417969 264.410156 238.132812 252.429688 241.152344 C 252.429688 241.152344 262.613281 223.785156 256.621094 210.195312 C 250.632812 196.601562 247.039062 186.03125 248.835938 179.234375 Z M 248.835938 179.234375 "/>
<path style=" stroke:none;fill-rule:nonzero;fill:rgb(42.352941%,38.823529%,100%);fill-opacity:1;" d="M 260.007812 194.859375 C 259.933594 194.839844 259.859375 194.8125 259.789062 194.78125 L 241.003906 186.699219 C 240.386719 186.433594 239.929688 185.777344 239.792969 184.972656 C 239.660156 184.167969 239.871094 183.335938 240.351562 182.78125 L 255.402344 165.347656 C 255.898438 164.773438 256.601562 164.585938 257.238281 164.855469 C 257.875 165.125 258.347656 165.808594 258.46875 166.640625 L 262.199219 192.15625 C 262.3125 192.921875 262.113281 193.703125 261.675781 194.246094 C 261.234375 194.785156 260.609375 195.015625 260.007812 194.859375 Z M 260.007812 194.859375 "/>
<path style=" stroke:none;fill-rule:nonzero;fill:rgb(90.196078%,90.196078%,90.196078%);fill-opacity:1;" d="M 251.28125 170.753906 L 258.996094 172.824219 L 258.578125 169.960938 L 253.210938 168.523438 Z M 251.28125 170.753906 "/>
<path style=" stroke:none;fill-rule:nonzero;fill:rgb(90.196078%,90.196078%,90.196078%);fill-opacity:1;" d="M 249.679688 172.613281 L 259.347656 175.207031 L 259.765625 178.066406 L 247.75 174.84375 Z M 249.679688 172.613281 "/>
<path style=" stroke:none;fill-rule:nonzero;fill:rgb(80%,80%,80%);fill-opacity:1;" d="M 248.234375 152.082031 L 250.699219 161.679688 C 250.855469 162.34375 251.402344 162.734375 251.9375 162.566406 C 252.46875 162.371094 252.78125 161.679688 252.640625 161.003906 L 250.175781 151.40625 C 250.019531 150.738281 249.472656 150.347656 248.9375 150.519531 C 248.40625 150.710938 248.09375 151.40625 248.234375 152.082031 Z M 248.234375 152.082031 "/>
<path style=" stroke:none;fill-rule:nonzero;fill:rgb(80%,80%,80%);fill-opacity:1;" d="M 260.191406 148.824219 L 257.84375 158.875 C 257.480469 160.445312 259.421875 161.113281 259.785156 159.546875 L 262.132812 149.5 C 262.5 147.929688 260.554688 147.257812 260.191406 148.824219 Z M 260.191406 148.824219 "/>
<path style=" stroke:none;fill-rule:nonzero;fill:rgb(80%,80%,80%);fill-opacity:1;" d="M 268.867188 158.027344 L 263.066406 165.527344 C 262.160156 166.699219 263.628906 168.4375 264.535156 167.269531 L 270.332031 159.765625 C 271.238281 158.59375 269.769531 156.855469 268.867188 158.027344 Z M 268.867188 158.027344 "/>
<path style=" stroke:none;fill-rule:nonzero;fill:rgb(100%,100%,100%);fill-opacity:1;" d="M 362.734375 406.335938 C 365.546875 417.707031 360.871094 429.878906 352.050781 434.152344 C 351.082031 434.621094 351.5 436.613281 352.484375 436.136719 C 362.15625 431.53125 367.332031 418.253906 364.308594 405.789062 C 364.003906 404.523438 362.429688 405.0625 362.734375 406.335938 Z M 362.734375 406.335938 "/>
<path style=" stroke:none;fill-rule:nonzero;fill:rgb(90.196078%,90.196078%,90.196078%);fill-opacity:1;" d="M 419.769531 59.21875 C 430.050781 38.941406 426.132812 12.632812 415.199219 3.824219 C 404.269531 -4.980469 383.679688 1.578125 373.402344 21.855469 C 363.882812 40.621094 367.027344 64.941406 375.710938 75.035156 C 375.542969 75.070312 375.382812 75.140625 375.238281 75.25 L 372.695312 77.261719 C 372.300781 77.574219 372.0625 78.117188 372.066406 78.707031 C 372.070312 79.292969 372.3125 79.835938 372.710938 80.140625 L 378.171875 84.335938 C 378.566406 84.640625 379.0625 84.664062 379.476562 84.398438 C 379.890625 84.132812 380.167969 83.613281 380.207031 83.03125 L 380.457031 79.261719 C 380.464844 79.128906 380.457031 78.996094 380.441406 78.867188 C 391.355469 84.640625 410.234375 78.027344 419.769531 59.21875 Z M 419.769531 59.21875 "/>
<path style=" stroke:none;fill-rule:nonzero;fill:rgb(100%,100%,100%);fill-opacity:1;" d="M 414.542969 19.222656 C 418.011719 33.234375 412.25 48.234375 401.378906 53.5 C 400.179688 54.082031 400.703125 56.535156 401.914062 55.945312 C 413.832031 50.273438 420.210938 33.90625 416.484375 18.546875 C 416.109375 16.988281 414.167969 17.652344 414.542969 19.222656 Z M 414.542969 19.222656 "/>
<path style=" stroke:none;fill-rule:nonzero;fill:rgb(42.352941%,38.823529%,100%);fill-opacity:1;" d="M 136.722656 49.507812 C 125.296875 30.234375 104.382812 25.582031 93.992188 35.371094 C 83.597656 45.160156 81.210938 71.757812 92.636719 91.035156 C 103.214844 108.878906 122.378906 113.742188 132.933594 107.058594 C 132.898438 107.269531 132.894531 107.484375 132.925781 107.691406 L 133.519531 111.402344 C 133.613281 111.976562 133.933594 112.449219 134.371094 112.652344 C 134.808594 112.855469 135.296875 112.761719 135.664062 112.398438 L 140.703125 107.4375 C 141.066406 107.074219 141.261719 106.5 141.210938 105.917969 C 141.160156 105.335938 140.871094 104.828125 140.453125 104.574219 L 137.742188 102.949219 C 137.644531 102.894531 137.546875 102.855469 137.441406 102.832031 C 145.578125 91.988281 147.324219 67.390625 136.722656 49.507812 Z M 136.722656 49.507812 "/>
<path style=" stroke:none;fill-rule:nonzero;fill:rgb(100%,100%,100%);fill-opacity:1;" d="M 111.730469 42.230469 C 123.335938 44.554688 131.464844 57.933594 130.226562 72.667969 C 130.101562 74.292969 132.117188 74.28125 132.238281 72.667969 C 133.433594 56.804688 124.722656 42.464844 112.265625 39.785156 C 110.996094 39.511719 110.453125 41.957031 111.730469 42.230469 Z M 111.730469 42.230469 "/>
<path style=" stroke:none;fill-rule:nonzero;fill:rgb(42.352941%,38.823529%,100%);fill-opacity:1;" d="M 90.851562 314.738281 C 100.984375 315.542969 110.199219 322.425781 115.628906 333.242188 C 116.378906 334.753906 117.359375 336.414062 116.839844 338.273438 C 116.464844 339.742188 115.335938 340.695312 114.117188 340.566406 C 112.585938 340.328125 111.597656 338.441406 111.410156 336.632812 C 111.195312 334.582031 112.34375 332.96875 113.761719 332.207031 C 117.226562 330.34375 120.722656 333.222656 123.546875 335.519531 C 129.976562 340.757812 137.050781 345.492188 144.84375 346.089844 C 152.054688 346.640625 159.785156 343.078125 163.796875 335.195312 C 164.496094 333.816406 162.753906 332.542969 162.058594 333.914062 C 158.078125 341.730469 150.039062 344.539062 143.046875 343.332031 C 138.882812 342.503906 134.859375 340.78125 131.15625 338.242188 C 129.234375 336.984375 127.371094 335.589844 125.542969 334.125 C 123.804688 332.597656 121.964844 331.265625 120.039062 330.148438 C 116.832031 328.488281 112.582031 328.617188 110.339844 332.441406 C 108.25 336.011719 109.867188 341.953125 113.363281 342.957031 C 116.679688 343.910156 119.582031 339.980469 118.898438 335.871094 C 118.550781 333.769531 117.296875 331.710938 116.324219 329.992188 C 110.410156 319.503906 101.042969 312.960938 90.851562 312.203125 C 89.554688 312.121094 89.558594 314.660156 90.851562 314.738281 Z M 90.851562 314.738281 "/>
<path style=" stroke:none;fill-rule:nonzero;fill:rgb(100%,39.607843%,51.764706%);fill-opacity:1;" d="M 392.460938 312.570312 C 383.089844 318.871094 371.839844 318.820312 362.503906 312.441406 C 361.464844 311.71875 360.589844 310.894531 360.46875 309.289062 C 360.34375 307.9375 360.890625 306.628906 361.847656 305.992188 C 363.292969 305.105469 365.011719 306.140625 365.914062 307.660156 C 366.886719 309.292969 366.5 311.414062 365.597656 312.953125 C 363.273438 316.929688 358.878906 316.554688 355.398438 316.464844 C 347.90625 316.273438 340.03125 317.03125 333.320312 321.617188 C 327.015625 325.925781 321.949219 334.015625 321.808594 343.316406 C 321.785156 344.949219 323.796875 344.949219 323.824219 343.316406 C 323.960938 334.136719 329.464844 326.570312 335.804688 322.886719 C 339.738281 320.734375 343.941406 319.488281 348.222656 319.199219 C 350.3125 319.003906 352.410156 318.953125 354.503906 318.984375 C 356.59375 319.125 358.691406 319.066406 360.773438 318.816406 C 364.367188 318.195312 368.230469 315.277344 368.496094 310.238281 C 368.734375 305.679688 364.625 301.8125 361.238281 303.570312 C 359.984375 304.28125 359.039062 305.644531 358.644531 307.308594 C 358.253906 308.96875 358.457031 310.765625 359.203125 312.222656 C 360.109375 313.960938 361.71875 314.851562 363.160156 315.714844 C 372.8125 321.480469 384.066406 321.128906 393.476562 314.761719 C 394.613281 313.976562 393.597656 311.78125 392.460938 312.570312 Z M 392.460938 312.570312 "/>
<path style=" stroke:none;fill-rule:nonzero;fill:rgb(90.196078%,90.196078%,90.196078%);fill-opacity:1;" d="M 301.503906 147.996094 C 310.5625 151.921875 316.90625 163.496094 317.441406 175.414062 C 317.714844 181.460938 316.578125 188.453125 313 192.804688 C 311.390625 194.953125 309.03125 195.933594 306.722656 195.40625 C 304.75 194.863281 302.6875 193.164062 302.347656 190.46875 C 302.023438 187.859375 303.433594 185.707031 305.148438 184.519531 C 307.113281 183.175781 309.429688 182.898438 311.558594 183.75 C 314.355469 184.847656 316.71875 187.195312 318.976562 189.464844 C 321.179688 191.765625 323.519531 193.847656 325.980469 195.6875 C 346.15625 210.335938 371.921875 202.039062 384.050781 176.984375 C 384.761719 175.539062 385.410156 174.050781 386 172.519531 C 386.570312 171.058594 384.832031 169.773438 384.261719 171.238281 C 379.082031 184.722656 369.511719 194.707031 358.035156 198.597656 C 346.558594 202.492188 334.308594 199.90625 324.460938 191.519531 C 319.773438 187.5625 315.28125 180.761719 309.183594 180.710938 C 304.695312 180.675781 299.296875 184.953125 300.445312 191.390625 C 300.96875 194.316406 302.933594 196.425781 305.085938 197.441406 C 307.425781 198.535156 310.035156 198.265625 312.203125 196.707031 C 316.957031 193.339844 319.03125 185.871094 319.425781 179.382812 C 320.203125 166.628906 314.480469 153.402344 305.496094 147.421875 C 304.382812 146.6875 303.226562 146.058594 302.039062 145.546875 C 300.8125 145.015625 300.285156 147.464844 301.503906 147.996094 Z M 301.503906 147.996094 "/>
</g>
</svg>
